<svg width="36" height="36" viewBox="0 0 36 36" fill="none" xmlns="http://www.w3.org/2000/svg">
<path d="M28.4048 16.165C28.4068 16.181 28.4148 16.185 28.4748 16.184H29.1998C29.3195 16.1844 29.4378 16.1578 29.5458 16.1061C29.6539 16.0545 29.7489 15.9792 29.8238 15.8858C29.8988 15.7924 29.9517 15.6834 29.9787 15.5667C30.0057 15.4501 30.0061 15.3288 29.9798 15.212C29.9373 15.0166 29.8227 14.8444 29.6588 14.7299C29.4949 14.6153 29.2939 14.5668 29.0958 14.594C28.9034 14.6191 28.7269 14.7137 28.5994 14.86C28.472 15.0062 28.4024 15.194 28.4038 15.388C28.4038 15.489 28.4018 16.054 28.4048 16.165ZM16.8958 20.973C16.6928 20.974 15.5428 20.977 15.2108 20.976C14.9505 20.9737 14.6921 20.9312 14.4448 20.85C14.4389 20.8483 14.4326 20.8487 14.4271 20.8513C14.4216 20.8539 14.4172 20.8584 14.4148 20.864L13.6998 22.413C13.6972 22.4186 13.6968 22.425 13.6986 22.4309C13.7005 22.4368 13.7044 22.4419 13.7098 22.445C13.8208 22.505 14.0458 22.569 14.2048 22.569C14.8648 22.579 15.5248 22.571 16.1858 22.569C16.1958 22.569 16.2058 22.563 16.2088 22.554L16.9208 21.009C16.9227 21.0051 16.9236 21.0007 16.9233 20.9963C16.923 20.992 16.9216 20.9877 16.9191 20.9841C16.9167 20.9804 16.9134 20.9775 16.9094 20.9755C16.9055 20.9736 16.9011 20.9727 16.8968 20.973H16.8958ZM6.47677 16.196C6.40577 16.196 6.40077 16.198 6.40077 16.206C6.39615 16.2325 6.39282 16.2592 6.39077 16.286C6.36377 16.683 6.35277 16.781 6.15677 19.346C6.14477 19.586 6.12277 19.735 6.02177 19.953C5.99577 20.01 5.98877 19.995 6.02477 20.065C6.07077 20.157 6.70577 21.588 6.81177 21.805C6.81977 21.82 6.82277 21.825 6.82877 21.825C6.83677 21.825 6.86177 21.799 6.87577 21.781C7.02277 21.594 7.14377 21.39 7.24677 21.175C7.55277 20.54 7.68677 19.85 7.73277 19.469C7.74677 19.359 7.75377 19.249 7.76277 19.139L7.96677 16.523L7.98877 16.23C7.99177 16.201 7.98877 16.197 7.95877 16.196H6.47677ZM13.6798 19.953C13.5907 19.7631 13.5446 19.5558 13.5448 19.346C13.5408 19.262 13.5138 18.956 13.3098 16.286C13.309 16.2584 13.3057 16.231 13.2998 16.204C13.2958 16.193 13.2478 16.196 13.2238 16.196H11.7438C11.7138 16.197 11.7098 16.201 11.7138 16.23L11.7348 16.523C11.8108 17.505 11.8878 18.487 11.9678 19.469C12.0178 19.869 12.1538 20.554 12.4548 21.175C12.5578 21.39 12.6778 21.594 12.8248 21.781C12.8398 21.799 12.8618 21.832 12.8728 21.83C12.8928 21.827 13.6148 20.188 13.6768 20.065C13.7128 19.995 13.7068 20.01 13.6798 19.953ZM17.5408 19.04H16.6688C16.6476 19.0402 16.6267 19.0351 16.6081 19.0251C16.5894 19.0151 16.5735 19.0005 16.562 18.9828C16.5504 18.9651 16.5435 18.9447 16.5419 18.9236C16.5403 18.9025 16.544 18.8813 16.5528 18.862L17.7308 16.237C17.7324 16.2332 17.7331 16.229 17.7328 16.2249C17.7324 16.2207 17.731 16.2167 17.7288 16.2133C17.7265 16.2098 17.7234 16.2069 17.7197 16.205C17.716 16.203 17.7119 16.202 17.7078 16.202L16.3898 16.199C16.3649 16.1991 16.3404 16.1929 16.3185 16.181C16.2966 16.1692 16.2781 16.152 16.2647 16.131C16.2512 16.1101 16.2432 16.0861 16.2415 16.0613C16.2398 16.0365 16.2443 16.0116 16.2548 15.989L17.1308 14.035C17.1324 14.0312 17.1331 14.027 17.1328 14.0229C17.1324 14.0187 17.131 14.0147 17.1288 14.0113C17.1265 14.0078 17.1234 14.0049 17.1197 14.003C17.116 14.001 17.1119 14 17.1078 14H15.5478C15.5378 14 15.5278 14.006 15.5238 14.015L14.5978 16.083C14.5128 16.252 14.2838 16.717 14.1988 17.021C14.1806 17.0829 14.1738 17.1476 14.1788 17.212C14.1822 17.2893 14.2051 17.3644 14.2453 17.4305C14.2855 17.4965 14.3418 17.5514 14.4088 17.59C14.55 17.6668 14.708 17.7076 14.8688 17.709H15.4588C15.4998 17.709 14.7708 19.191 14.6248 19.681C14.6077 19.7367 14.5999 19.7948 14.6018 19.853C14.6023 19.9336 14.6238 20.0126 14.6642 20.0824C14.7045 20.1522 14.7622 20.2103 14.8318 20.251C14.9818 20.343 15.1738 20.371 15.3068 20.371L16.9668 20.37C16.9768 20.37 16.9868 20.364 16.9898 20.355L17.5648 19.075C17.5665 19.0711 17.5672 19.0668 17.5668 19.0626C17.5664 19.0584 17.5649 19.0543 17.5625 19.0508C17.5601 19.0473 17.5568 19.0445 17.553 19.0426C17.5492 19.0407 17.545 19.0398 17.5408 19.04ZM10.6108 14.103H9.09977C9.09532 14.1027 9.09086 14.1034 9.08667 14.1049C9.08249 14.1065 9.07867 14.1089 9.07547 14.112C9.07227 14.1151 9.06975 14.1188 9.06808 14.123C9.06641 14.1271 9.06563 14.1315 9.06577 14.136C9.06577 15.184 9.05577 16.931 9.05577 20.965C9.05577 21.253 8.78677 21.227 8.77577 21.227H8.03577C7.99577 21.228 7.99177 21.231 7.99577 21.274C7.99677 21.311 8.46077 22.338 8.55077 22.537C8.56077 22.557 8.58077 22.57 8.60177 22.57C8.75877 22.573 9.36877 22.579 9.53977 22.556C9.69277 22.536 9.83977 22.496 9.97777 22.424C10.2778 22.268 10.4678 22.005 10.5728 21.659C10.6248 21.487 10.6478 21.306 10.6478 21.126C10.6498 18.796 10.6478 16.466 10.6408 14.135C10.6408 14.1265 10.6374 14.1184 10.6314 14.1124C10.6254 14.1064 10.6173 14.103 10.6088 14.103H10.6108ZM22.3948 20.999C22.3948 20.985 22.3848 20.978 22.3708 20.977H20.9058C20.8578 20.976 20.8568 20.975 20.8558 20.928V16.268C20.8558 16.196 20.8508 16.198 20.9258 16.198H21.7888C21.8688 16.198 21.8638 16.202 21.8638 16.124V14.679C21.8638 14.597 21.8698 14.603 21.7838 14.603H18.2838C18.2198 14.603 18.2088 14.597 18.2088 14.676V16.121C18.2088 16.204 18.2028 16.198 18.2888 16.198H19.1428C19.2178 16.198 19.2128 16.194 19.2128 16.268V20.892C19.2128 20.987 19.2208 20.976 19.1278 20.976C18.7578 20.976 18.0178 20.974 17.8238 20.976C17.7758 20.977 17.7638 21.006 17.7638 21.006L17.0668 22.525C17.0668 22.525 17.0528 22.55 17.0588 22.561C17.0648 22.571 17.0718 22.569 17.1168 22.569C18.8648 22.572 20.6118 22.571 22.3598 22.571C22.3898 22.57 22.3938 22.565 22.3948 22.538V20.999ZM26.5718 17.569C26.5718 17.582 26.5648 17.592 26.5518 17.593C26.2058 17.599 25.8598 17.597 25.5148 17.597C25.5008 17.595 25.4928 17.587 25.4928 17.573C25.4878 17.139 25.4858 16.704 25.4828 16.27C25.4828 16.198 25.4768 16.199 25.5528 16.2L26.2858 16.197C26.3268 16.197 26.3668 16.199 26.4058 16.212C26.4988 16.237 26.5658 16.319 26.5708 16.416C26.5768 16.847 26.5728 17.569 26.5718 17.569ZM29.2418 17.813C28.969 17.6705 28.6665 17.5944 28.3588 17.591H28.1788C28.1388 17.59 28.1388 17.588 28.1368 17.551V16.496C28.1368 16.364 28.1298 16.233 28.1118 16.102C28.088 15.9186 28.0364 15.7399 27.9588 15.572C27.817 15.2676 27.5791 15.0181 27.2818 14.862C26.9741 14.6967 26.631 14.6082 26.2818 14.604C26.1288 14.601 25.7148 14.604 25.5618 14.604C25.4918 14.604 25.4938 14.608 25.4938 14.539V14.046C25.4938 14.015 25.4838 14.005 25.4478 14.007H23.9298C23.9298 14.007 23.9138 14.007 23.9068 14.014C23.9008 14.02 23.8988 14.026 23.8988 14.037V14.583C23.8908 14.619 23.8418 14.598 23.8168 14.605H22.8668C22.8448 14.607 22.8388 14.613 22.8368 14.637V16.118C22.8368 16.208 22.8328 16.2 22.9188 16.2H23.8318C23.9138 16.2 23.9038 16.328 23.9038 16.328V17.476C23.9038 17.476 23.9068 17.593 23.8438 17.593H22.3618C22.2938 17.593 22.3018 17.675 22.3018 17.675V19.12C22.3018 19.12 22.2918 19.188 22.3658 19.188H23.8228C23.9048 19.188 23.8988 19.182 23.8988 19.267V22.492C23.8988 22.58 23.8918 22.573 23.9808 22.573H25.4108C25.5008 22.573 25.4928 22.58 25.4928 22.493V19.223C25.4928 19.194 25.4988 19.188 25.5258 19.188L27.8488 19.185C27.9468 19.185 28.0398 19.205 28.1288 19.246C28.2082 19.2811 28.2761 19.3379 28.3246 19.4099C28.3731 19.4819 28.4002 19.5662 28.4028 19.653C28.4108 20.048 28.4058 20.443 28.4058 20.838C28.4058 21.097 28.2988 21.205 28.0758 21.205H26.8578C26.8348 21.207 26.8288 21.213 26.8298 21.238C27.0138 21.675 27.2038 22.109 27.3998 22.541C27.4033 22.5486 27.409 22.5551 27.416 22.5597C27.4231 22.5643 27.4313 22.5669 27.4398 22.567C27.6098 22.572 27.7798 22.569 27.9498 22.57C28.0998 22.568 28.4668 22.574 28.6158 22.56C28.754 22.549 28.8907 22.5239 29.0238 22.485C29.6138 22.305 29.9988 21.787 29.9998 21.172V19.191C29.9998 19.063 29.9898 18.937 29.9658 18.811C29.9658 18.889 29.9368 18.17 29.2418 17.813Z" fill="#FFF1F1"/>
<rect x="0.5" y="0.5" width="35" height="35" rx="6.5" stroke="white"/>
</svg>
