<svg width="545" height="104" viewBox="0 0 545 104" fill="none" xmlns="http://www.w3.org/2000/svg">
<path d="M39.3813 57.375C37.2771 57.7917 35.0479 58 32.6938 58H11.8188L21.6 11.9375H43.975C49.6 12.0208 53.2458 13.6562 54.9125 16.8438C55.9125 18.8021 56.1313 21.1458 55.5688 23.875C54.9646 26.6875 53.7667 28.9479 51.975 30.6562C50.9958 31.6146 49.6521 32.4896 47.9438 33.2812C50.1104 34.1354 51.5896 35.4896 52.3813 37.3438C53.1938 39.1979 53.3188 41.4479 52.7563 44.0938C52.1729 46.8229 50.9646 49.2708 49.1313 51.4375C47.9438 52.875 46.5896 54.0833 45.0688 55.0625C43.3604 56.1875 41.4646 56.9583 39.3813 57.375ZM36.7563 37.7188H25.2875L22.6938 50H34.0063C36.0271 50 37.6521 49.7292 38.8813 49.1875C41.1521 48.1875 42.5896 46.2708 43.1938 43.4375C43.6938 41.0417 43.0479 39.3958 41.2563 38.5C40.2563 38 38.7563 37.7396 36.7563 37.7188ZM43.4125 28.9375C44.8292 28.1875 45.7458 26.8438 46.1625 24.9062C46.6 22.7604 46.0688 21.3438 44.5688 20.6562C43.2146 20.1771 41.4229 19.9375 39.1938 19.9375H29.0688L26.9125 30.0938H38.225C40.2458 30.0938 41.975 29.7083 43.4125 28.9375ZM94.9563 11.9375L101.488 58H91.05L90.0813 48.5312H73.1125L67.925 58H57.8625L84.0813 11.9375H94.9563ZM87.175 22.4688L77.3938 40.5938H89.0813L87.175 22.4688ZM154.688 18.6875C156.063 21.5417 156.51 24.4062 156.031 27.2812H146.406C146.26 25.0729 145.813 23.4062 145.063 22.2812C143.75 20.2812 141.375 19.2812 137.938 19.2812C134.438 19.2812 131.375 20.6979 128.75 23.5312C126.125 26.3438 124.271 30.3333 123.188 35.5C122.083 40.6667 122.323 44.5417 123.906 47.125C125.49 49.6875 127.927 50.9688 131.219 50.9688C134.594 50.9688 137.406 49.8646 139.656 47.6562C140.885 46.4688 142.073 44.6875 143.219 42.3125H152.75C150.854 47.3333 147.854 51.4167 143.75 54.5625C139.667 57.7083 134.948 59.2812 129.594 59.2812C122.969 59.2812 118.208 57.1562 115.313 52.9062C112.438 48.6354 111.792 42.7812 113.375 35.3438C115.083 27.3021 118.552 21.1042 123.781 16.75C128.344 12.9583 133.521 11.0625 139.313 11.0625C147.063 11.0625 152.188 13.6042 154.688 18.6875ZM172.888 42.5938L169.638 58H160.169L169.95 11.9375H179.419L175.388 30.9062L197.2 11.9375H209.638L186.731 30.9062L200.825 58H188.45L178.481 37.875L172.888 42.5938ZM234.463 40.9688L236.119 33.2812H255.306L250.056 58H243.681L243.931 52.25C241.598 54.4375 239.598 55.9792 237.931 56.875C235.056 58.4375 231.765 59.2188 228.056 59.2188C221.952 59.2188 217.4 57.1042 214.4 52.875C211.254 48.625 210.463 42.8125 212.025 35.4375C213.608 27.9792 216.931 22 221.994 17.5C227.056 13 232.963 10.75 239.713 10.75C245.567 10.75 249.952 12.2396 252.869 15.2188C255.785 18.1771 257.035 21.875 256.619 26.3125H247.15C247.088 23.1667 245.775 20.9688 243.213 19.7188C241.775 19.0312 240.088 18.6875 238.15 18.6875C234.442 18.6875 231.098 20.0938 228.119 22.9062C225.14 25.6979 223.046 29.9062 221.838 35.5312C220.65 41.1979 221.088 45.2083 223.15 47.5625C225.233 49.9167 227.921 51.0938 231.213 51.0938C234.442 51.0938 237.285 50.1667 239.744 48.3125C242.223 46.4375 244.015 43.9896 245.119 40.9688H234.463ZM290.413 55.5312C290.433 54.2396 290.579 52.9167 290.85 51.5625L291.694 47.2812C292.277 44.3438 292.152 42.3854 291.319 41.4062C290.506 40.4271 288.683 39.9375 285.85 39.9375H275.913L272.1 58H262.694L272.475 11.9375H295.069C298.277 12 300.673 12.3958 302.256 13.125C303.84 13.8542 305.09 14.9271 306.006 16.3438C306.756 17.5104 307.267 18.8021 307.538 20.2188C307.829 21.6354 307.788 23.25 307.413 25.0625C306.933 27.25 305.913 29.4062 304.35 31.5312C302.808 33.6354 300.673 35.125 297.944 36C299.881 36.8542 301.121 38.0729 301.663 39.6562C302.225 41.2188 302.163 43.6146 301.475 46.8438L300.819 49.9375C300.381 52.0417 300.163 53.4688 300.163 54.2188C300.163 55.4062 300.558 56.2812 301.35 56.8438L301.131 58H290.538C290.454 56.9792 290.413 56.1562 290.413 55.5312ZM291.35 19.9375H280.163L277.538 32.3125H288.444C290.61 32.3125 292.288 32.0625 293.475 31.5625C295.579 30.6875 296.913 28.9583 297.475 26.375C298.058 23.5833 297.527 21.7083 295.881 20.75C294.944 20.2083 293.433 19.9375 291.35 19.9375ZM356.331 15.9062C360.081 20.1354 361.06 26.4688 359.269 34.9062C357.498 43.1771 353.821 49.5104 348.238 53.9062C344.008 57.4896 338.602 59.2812 332.019 59.2812C325.435 59.2812 320.779 57.4896 318.05 53.9062C314.321 49.5104 313.342 43.1771 315.113 34.9062C316.904 26.4688 320.581 20.1354 326.144 15.9062C330.373 12.3229 335.779 10.5312 342.363 10.5312C348.946 10.5312 353.602 12.3229 356.331 15.9062ZM340.644 18.6875C336.831 18.6875 333.488 20.0938 330.613 22.9062C327.758 25.7188 325.779 29.7188 324.675 34.9062C323.571 40.0938 323.852 44.0938 325.519 46.9062C327.185 49.7188 329.925 51.125 333.738 51.125C337.55 51.125 340.873 49.7188 343.706 46.9062C346.56 44.0938 348.54 40.0938 349.644 34.9062C350.727 29.7396 350.446 25.75 348.8 22.9375C347.175 20.1042 344.456 18.6875 340.644 18.6875ZM411.75 11.9375L405.719 40.25C404.677 45.1458 403.104 48.9583 401 51.6875C397.104 56.6875 391.167 59.1875 383.188 59.1875C375.208 59.1875 370.323 56.6875 368.531 51.6875C367.594 48.9583 367.646 45.1458 368.688 40.25L374.719 11.9375H384.5L378.469 40.25C377.802 43.4167 377.688 45.7292 378.125 47.1875C378.75 49.7708 381.021 51.0625 384.938 51.0625C388.833 51.0625 391.635 49.7708 393.344 47.1875C394.406 45.7292 395.271 43.4167 395.938 40.25L401.969 11.9375H411.75ZM442.013 58L430.138 25.2812L423.2 58H414.231L424.013 11.9375H434.106L445.606 44.0938L452.45 11.9375H461.419L451.638 58H442.013ZM506.962 18.7812C508.087 21.0729 508.65 23.5521 508.65 26.2188C508.671 28.8854 508.431 31.4271 507.931 33.8438C506.619 39.9688 504.285 45.1562 500.931 49.4062C496.39 55.1354 490.64 58 483.681 58H463.837L473.619 11.9375H493.462C496.296 11.9792 498.598 12.3125 500.369 12.9375C503.369 14 505.567 15.9479 506.962 18.7812ZM497.994 34.5C498.994 29.8125 499.025 26.2188 498.087 23.7188C497.15 21.1979 494.494 19.9375 490.119 19.9375H481.244L474.869 50H483.744C488.285 50 491.931 47.7604 494.681 43.2812C496.181 40.8229 497.285 37.8958 497.994 34.5Z" fill="black"/>
<path d="M55.8813 90.375C53.7771 90.7917 51.5479 91 49.1938 91H28.3188L38.1 44.9375H60.475C66.1 45.0208 69.7458 46.6562 71.4125 49.8438C72.4125 51.8021 72.6313 54.1458 72.0688 56.875C71.4646 59.6875 70.2667 61.9479 68.475 63.6562C67.4958 64.6146 66.1521 65.4896 64.4438 66.2812C66.6104 67.1354 68.0896 68.4896 68.8813 70.3438C69.6938 72.1979 69.8188 74.4479 69.2563 77.0938C68.6729 79.8229 67.4646 82.2708 65.6313 84.4375C64.4438 85.875 63.0896 87.0833 61.5688 88.0625C59.8604 89.1875 57.9646 89.9583 55.8813 90.375ZM53.2563 70.7188H41.7875L39.1938 83H50.5063C52.5271 83 54.1521 82.7292 55.3813 82.1875C57.6521 81.1875 59.0896 79.2708 59.6938 76.4375C60.1938 74.0417 59.5479 72.3958 57.7563 71.5C56.7563 71 55.2563 70.7396 53.2563 70.7188ZM59.9125 61.9375C61.3292 61.1875 62.2458 59.8438 62.6625 57.9062C63.1 55.7604 62.5688 54.3438 61.0688 53.6562C59.7146 53.1771 57.9229 52.9375 55.6938 52.9375H45.5688L43.4125 63.0938H54.725C56.7458 63.0938 58.475 62.7083 59.9125 61.9375ZM111.456 44.9375L117.988 91H107.55L106.581 81.5312H89.6125L84.425 91H74.3625L100.581 44.9375H111.456ZM103.675 55.4688L93.8938 73.5938H105.581L103.675 55.4688ZM171.188 51.6875C172.563 54.5417 173.01 57.4062 172.531 60.2812H162.906C162.76 58.0729 162.313 56.4062 161.563 55.2812C160.25 53.2812 157.875 52.2812 154.438 52.2812C150.938 52.2812 147.875 53.6979 145.25 56.5312C142.625 59.3438 140.771 63.3333 139.688 68.5C138.583 73.6667 138.823 77.5417 140.406 80.125C141.99 82.6875 144.427 83.9688 147.719 83.9688C151.094 83.9688 153.906 82.8646 156.156 80.6562C157.385 79.4688 158.573 77.6875 159.719 75.3125H169.25C167.354 80.3333 164.354 84.4167 160.25 87.5625C156.167 90.7083 151.448 92.2812 146.094 92.2812C139.469 92.2812 134.708 90.1562 131.813 85.9062C128.938 81.6354 128.292 75.7812 129.875 68.3438C131.583 60.3021 135.052 54.1042 140.281 49.75C144.844 45.9583 150.021 44.0625 155.813 44.0625C163.563 44.0625 168.688 46.6042 171.188 51.6875ZM189.388 75.5938L186.138 91H176.669L186.45 44.9375H195.919L191.888 63.9062L213.7 44.9375H226.138L203.231 63.9062L217.325 91H204.95L194.981 70.875L189.388 75.5938ZM250.963 73.9688L252.619 66.2812H271.806L266.556 91H260.181L260.431 85.25C258.098 87.4375 256.098 88.9792 254.431 89.875C251.556 91.4375 248.265 92.2188 244.556 92.2188C238.452 92.2188 233.9 90.1042 230.9 85.875C227.754 81.625 226.963 75.8125 228.525 68.4375C230.108 60.9792 233.431 55 238.494 50.5C243.556 46 249.463 43.75 256.213 43.75C262.067 43.75 266.452 45.2396 269.369 48.2188C272.285 51.1771 273.535 54.875 273.119 59.3125H263.65C263.588 56.1667 262.275 53.9688 259.713 52.7188C258.275 52.0312 256.588 51.6875 254.65 51.6875C250.942 51.6875 247.598 53.0938 244.619 55.9062C241.64 58.6979 239.546 62.9062 238.338 68.5312C237.15 74.1979 237.588 78.2083 239.65 80.5625C241.733 82.9167 244.421 84.0938 247.713 84.0938C250.942 84.0938 253.785 83.1667 256.244 81.3125C258.723 79.4375 260.515 76.9896 261.619 73.9688H250.963ZM306.913 88.5312C306.933 87.2396 307.079 85.9167 307.35 84.5625L308.194 80.2812C308.777 77.3438 308.652 75.3854 307.819 74.4062C307.006 73.4271 305.183 72.9375 302.35 72.9375H292.413L288.6 91H279.194L288.975 44.9375H311.569C314.777 45 317.173 45.3958 318.756 46.125C320.34 46.8542 321.59 47.9271 322.506 49.3438C323.256 50.5104 323.767 51.8021 324.038 53.2188C324.329 54.6354 324.288 56.25 323.913 58.0625C323.433 60.25 322.413 62.4062 320.85 64.5312C319.308 66.6354 317.173 68.125 314.444 69C316.381 69.8542 317.621 71.0729 318.163 72.6562C318.725 74.2188 318.663 76.6146 317.975 79.8438L317.319 82.9375C316.881 85.0417 316.663 86.4688 316.663 87.2188C316.663 88.4062 317.058 89.2812 317.85 89.8438L317.631 91H307.038C306.954 89.9792 306.913 89.1562 306.913 88.5312ZM307.85 52.9375H296.663L294.038 65.3125H304.944C307.11 65.3125 308.788 65.0625 309.975 64.5625C312.079 63.6875 313.413 61.9583 313.975 59.375C314.558 56.5833 314.027 54.7083 312.381 53.75C311.444 53.2083 309.933 52.9375 307.85 52.9375ZM372.831 48.9062C376.581 53.1354 377.56 59.4688 375.769 67.9062C373.998 76.1771 370.321 82.5104 364.738 86.9062C360.508 90.4896 355.102 92.2812 348.519 92.2812C341.935 92.2812 337.279 90.4896 334.55 86.9062C330.821 82.5104 329.842 76.1771 331.613 67.9062C333.404 59.4688 337.081 53.1354 342.644 48.9062C346.873 45.3229 352.279 43.5312 358.863 43.5312C365.446 43.5312 370.102 45.3229 372.831 48.9062ZM357.144 51.6875C353.331 51.6875 349.988 53.0938 347.113 55.9062C344.258 58.7188 342.279 62.7188 341.175 67.9062C340.071 73.0938 340.352 77.0938 342.019 79.9062C343.685 82.7188 346.425 84.125 350.238 84.125C354.05 84.125 357.373 82.7188 360.206 79.9062C363.06 77.0938 365.04 73.0938 366.144 67.9062C367.227 62.7396 366.946 58.75 365.3 55.9375C363.675 53.1042 360.956 51.6875 357.144 51.6875ZM428.25 44.9375L422.219 73.25C421.177 78.1458 419.604 81.9583 417.5 84.6875C413.604 89.6875 407.667 92.1875 399.688 92.1875C391.708 92.1875 386.823 89.6875 385.031 84.6875C384.094 81.9583 384.146 78.1458 385.188 73.25L391.219 44.9375H401L394.969 73.25C394.302 76.4167 394.188 78.7292 394.625 80.1875C395.25 82.7708 397.521 84.0625 401.438 84.0625C405.333 84.0625 408.135 82.7708 409.844 80.1875C410.906 78.7292 411.771 76.4167 412.438 73.25L418.469 44.9375H428.25ZM458.513 91L446.638 58.2812L439.7 91H430.731L440.513 44.9375H450.606L462.106 77.0938L468.95 44.9375H477.919L468.138 91H458.513ZM523.462 51.7812C524.587 54.0729 525.15 56.5521 525.15 59.2188C525.171 61.8854 524.931 64.4271 524.431 66.8438C523.119 72.9688 520.785 78.1562 517.431 82.4062C512.89 88.1354 507.14 91 500.181 91H480.337L490.119 44.9375H509.962C512.796 44.9792 515.098 45.3125 516.869 45.9375C519.869 47 522.067 48.9479 523.462 51.7812ZM514.494 67.5C515.494 62.8125 515.525 59.2188 514.587 56.7188C513.65 54.1979 510.994 52.9375 506.619 52.9375H497.744L491.369 83H500.244C504.785 83 508.431 80.7604 511.181 76.2812C512.681 73.8229 513.785 70.8958 514.494 67.5Z" fill="#00B9F2" fill-opacity="0.33"/>
</svg>
