<svg width="386" height="92" viewBox="0 0 386 92" fill="none" xmlns="http://www.w3.org/2000/svg">
<mask id="mask0_436_432" style="mask-type:alpha" maskUnits="userSpaceOnUse" x="0" y="0" width="386" height="92">
<rect width="386" height="92" fill="#D9D9D9"/>
</mask>
<g mask="url(#mask0_436_432)">
<path d="M80.8375 51.6875C82.2125 54.5417 82.6604 57.4062 82.1812 60.2812H72.5562C72.4104 58.0729 71.9625 56.4062 71.2125 55.2812C69.9 53.2812 67.525 52.2812 64.0875 52.2812C60.5875 52.2812 57.525 53.6979 54.9 56.5312C52.275 59.3438 50.4208 63.3333 49.3375 68.5C48.2333 73.6667 48.4729 77.5417 50.0562 80.125C51.6396 82.6875 54.0771 83.9688 57.3687 83.9688C60.7437 83.9688 63.5562 82.8646 65.8062 80.6562C67.0354 79.4688 68.2229 77.6875 69.3687 75.3125H78.9C77.0042 80.3333 74.0042 84.4167 69.9 87.5625C65.8167 90.7083 61.0979 92.2812 55.7437 92.2812C49.1187 92.2812 44.3583 90.1562 41.4625 85.9062C38.5875 81.6354 37.9417 75.7812 39.525 68.3438C41.2333 60.3021 44.7021 54.1042 49.9312 49.75C54.4937 45.9583 59.6708 44.0625 65.4625 44.0625C73.2125 44.0625 78.3375 46.6042 80.8375 51.6875ZM130.569 48.9062C134.319 53.1354 135.298 59.4688 133.506 67.9062C131.735 76.1771 128.058 82.5104 122.475 86.9062C118.246 90.4896 112.84 92.2812 106.256 92.2812C99.6729 92.2812 95.0167 90.4896 92.2875 86.9062C88.5583 82.5104 87.5792 76.1771 89.35 67.9062C91.1417 59.4688 94.8187 53.1354 100.381 48.9062C104.61 45.3229 110.017 43.5312 116.6 43.5312C123.183 43.5312 127.84 45.3229 130.569 48.9062ZM114.881 51.6875C111.069 51.6875 107.725 53.0938 104.85 55.9062C101.996 58.7188 100.017 62.7188 98.9125 67.9062C97.8083 73.0938 98.0896 77.0938 99.7562 79.9062C101.423 82.7188 104.162 84.125 107.975 84.125C111.787 84.125 115.11 82.7188 117.944 79.9062C120.798 77.0938 122.777 73.0938 123.881 67.9062C124.965 62.7396 124.683 58.75 123.037 55.9375C121.412 53.1042 118.694 51.6875 114.881 51.6875ZM160.769 62.875L168.3 64.7812C171.592 65.6146 173.977 66.7292 175.456 68.125C177.748 70.2917 178.456 73.4271 177.581 77.5312C176.685 81.7396 174.331 85.2396 170.519 88.0312C166.706 90.8021 161.862 92.1875 155.987 92.1875C149.987 92.1875 145.56 90.8229 142.706 88.0938C139.852 85.3438 138.935 81.5729 139.956 76.7812H149.144C148.998 78.8854 149.237 80.4583 149.862 81.5C151.029 83.3958 153.508 84.3438 157.3 84.3438C159.571 84.3438 161.467 84.0938 162.987 83.5938C165.883 82.6354 167.602 80.8542 168.144 78.25C168.477 76.7292 168.06 75.5521 166.894 74.7188C165.748 73.9062 163.81 73.1875 161.081 72.5625L156.425 71.4688C151.862 70.3854 148.8 69.2083 147.237 67.9375C144.592 65.8125 143.748 62.4896 144.706 57.9688C145.581 53.8438 147.81 50.4167 151.394 47.6875C154.977 44.9583 159.675 43.5938 165.487 43.5938C170.342 43.5938 174.206 44.8854 177.081 47.4688C179.956 50.0312 180.956 53.7604 180.081 58.6562H170.831C171.269 55.8854 170.487 53.9167 168.487 52.75C167.154 51.9792 165.373 51.5938 163.144 51.5938C160.665 51.5938 158.571 52.0938 156.862 53.0938C155.175 54.0938 154.144 55.4896 153.769 57.2812C153.415 58.9271 153.883 60.1562 155.175 60.9688C155.987 61.5104 157.852 62.1458 160.769 62.875ZM189.25 53.0938L191 44.9375H228.312L226.562 53.0938H212.781L204.75 91H195.062L203.094 53.0938H189.25ZM274.2 44.9375L268.169 73.25C267.127 78.1458 265.554 81.9583 263.45 84.6875C259.554 89.6875 253.617 92.1875 245.638 92.1875C237.658 92.1875 232.773 89.6875 230.981 84.6875C230.044 81.9583 230.096 78.1458 231.138 73.25L237.169 44.9375H246.95L240.919 73.25C240.252 76.4167 240.138 78.7292 240.575 80.1875C241.2 82.7708 243.471 84.0625 247.388 84.0625C251.283 84.0625 254.085 82.7708 255.794 80.1875C256.856 78.7292 257.721 76.4167 258.388 73.25L264.419 44.9375H274.2ZM303.587 91H294.244L293.775 52.3438C293.608 53.2188 293.358 54.4688 293.025 56.0938C292.712 57.6979 292.452 58.9479 292.244 59.8438L285.65 91H276.681L286.462 44.9375H300.462L301.119 81.1562L317.15 44.9375H330.994L321.212 91H312.244L318.837 59.8438C319.046 58.9479 319.327 57.6979 319.681 56.0938C320.056 54.4688 320.327 53.2188 320.494 52.3438L303.587 91ZM370.288 82.7188L368.538 91H333.631L343.413 44.9375H377.194L375.444 53.0938H351.069L349.006 62.875H371.381L369.663 70.875H347.288L344.788 82.7188H370.288Z" fill="#00B9F2" fill-opacity="0.33"/>
<path d="M47.3375 18.6875C48.7125 21.5417 49.1604 24.4062 48.6812 27.2812H39.0562C38.9104 25.0729 38.4625 23.4062 37.7125 22.2812C36.4 20.2812 34.025 19.2812 30.5875 19.2812C27.0875 19.2812 24.025 20.6979 21.4 23.5312C18.775 26.3438 16.9208 30.3333 15.8375 35.5C14.7333 40.6667 14.9729 44.5417 16.5562 47.125C18.1396 49.6875 20.5771 50.9688 23.8687 50.9688C27.2437 50.9688 30.0562 49.8646 32.3062 47.6562C33.5354 46.4688 34.7229 44.6875 35.8687 42.3125H45.4C43.5042 47.3333 40.5042 51.4167 36.4 54.5625C32.3167 57.7083 27.5979 59.2812 22.2437 59.2812C15.6187 59.2812 10.8583 57.1562 7.96249 52.9062C5.08749 48.6354 4.44166 42.7812 6.02499 35.3438C7.73333 27.3021 11.2021 21.1042 16.4312 16.75C20.9937 12.9583 26.1708 11.0625 31.9625 11.0625C39.7125 11.0625 44.8375 13.6042 47.3375 18.6875ZM97.0687 15.9062C100.819 20.1354 101.798 26.4688 100.006 34.9062C98.2354 43.1771 94.5583 49.5104 88.975 53.9062C84.7458 57.4896 79.3396 59.2812 72.7562 59.2812C66.1729 59.2812 61.5167 57.4896 58.7875 53.9062C55.0583 49.5104 54.0792 43.1771 55.85 34.9062C57.6417 26.4688 61.3187 20.1354 66.8812 15.9062C71.1104 12.3229 76.5167 10.5312 83.1 10.5312C89.6833 10.5312 94.3396 12.3229 97.0687 15.9062ZM81.3812 18.6875C77.5687 18.6875 74.225 20.0938 71.35 22.9062C68.4958 25.7188 66.5167 29.7188 65.4125 34.9062C64.3083 40.0938 64.5896 44.0938 66.2562 46.9062C67.9229 49.7188 70.6625 51.125 74.475 51.125C78.2875 51.125 81.6104 49.7188 84.4437 46.9062C87.2979 44.0938 89.2771 40.0938 90.3812 34.9062C91.4646 29.7396 91.1833 25.75 89.5375 22.9375C87.9125 20.1042 85.1937 18.6875 81.3812 18.6875ZM127.269 29.875L134.8 31.7812C138.092 32.6146 140.477 33.7292 141.956 35.125C144.248 37.2917 144.956 40.4271 144.081 44.5312C143.185 48.7396 140.831 52.2396 137.019 55.0312C133.206 57.8021 128.362 59.1875 122.487 59.1875C116.487 59.1875 112.06 57.8229 109.206 55.0938C106.352 52.3438 105.435 48.5729 106.456 43.7812H115.644C115.498 45.8854 115.737 47.4583 116.362 48.5C117.529 50.3958 120.008 51.3438 123.8 51.3438C126.071 51.3438 127.967 51.0938 129.487 50.5938C132.383 49.6354 134.102 47.8542 134.644 45.25C134.977 43.7292 134.56 42.5521 133.394 41.7188C132.248 40.9062 130.31 40.1875 127.581 39.5625L122.925 38.4688C118.362 37.3854 115.3 36.2083 113.737 34.9375C111.092 32.8125 110.248 29.4896 111.206 24.9688C112.081 20.8438 114.31 17.4167 117.894 14.6875C121.477 11.9583 126.175 10.5938 131.987 10.5938C136.842 10.5938 140.706 11.8854 143.581 14.4688C146.456 17.0312 147.456 20.7604 146.581 25.6562H137.331C137.769 22.8854 136.987 20.9167 134.987 19.75C133.654 18.9792 131.873 18.5938 129.644 18.5938C127.165 18.5938 125.071 19.0938 123.362 20.0938C121.675 21.0938 120.644 22.4896 120.269 24.2812C119.915 25.9271 120.383 27.1562 121.675 27.9688C122.487 28.5104 124.352 29.1458 127.269 29.875ZM155.75 20.0938L157.5 11.9375H194.812L193.062 20.0938H179.281L171.25 58H161.562L169.594 20.0938H155.75ZM240.7 11.9375L234.669 40.25C233.627 45.1458 232.054 48.9583 229.95 51.6875C226.054 56.6875 220.117 59.1875 212.138 59.1875C204.158 59.1875 199.273 56.6875 197.481 51.6875C196.544 48.9583 196.596 45.1458 197.638 40.25L203.669 11.9375H213.45L207.419 40.25C206.752 43.4167 206.638 45.7292 207.075 47.1875C207.7 49.7708 209.971 51.0625 213.888 51.0625C217.783 51.0625 220.585 49.7708 222.294 47.1875C223.356 45.7292 224.221 43.4167 224.888 40.25L230.919 11.9375H240.7ZM270.087 58H260.744L260.275 19.3438C260.108 20.2188 259.858 21.4688 259.525 23.0938C259.212 24.6979 258.952 25.9479 258.744 26.8438L252.15 58H243.181L252.962 11.9375H266.962L267.619 48.1562L283.65 11.9375H297.494L287.712 58H278.744L285.337 26.8438C285.546 25.9479 285.827 24.6979 286.181 23.0938C286.556 21.4688 286.827 20.2188 286.994 19.3438L270.087 58ZM336.788 49.7188L335.038 58H300.131L309.913 11.9375H343.694L341.944 20.0938H317.569L315.506 29.875H337.881L336.163 37.875H313.788L311.288 49.7188H336.788Z" fill="black"/>
</g>
</svg>
