<svg width="545" height="104" viewBox="0 0 545 104" fill="none" xmlns="http://www.w3.org/2000/svg">
<path d="M124.494 40.9688L126.15 33.2812H145.337L140.087 58H133.712L133.962 52.25C131.629 54.4375 129.629 55.9792 127.962 56.875C125.087 58.4375 121.796 59.2188 118.087 59.2188C111.983 59.2188 107.431 57.1042 104.431 52.875C101.285 48.625 100.494 42.8125 102.056 35.4375C103.64 27.9792 106.962 22 112.025 17.5C117.087 13 122.994 10.75 129.744 10.75C135.598 10.75 139.983 12.2396 142.9 15.2188C145.817 18.1771 147.067 21.875 146.65 26.3125H137.181C137.119 23.1667 135.806 20.9688 133.244 19.7188C131.806 19.0312 130.119 18.6875 128.181 18.6875C124.473 18.6875 121.129 20.0938 118.15 22.9062C115.171 25.6979 113.077 29.9062 111.869 35.5312C110.681 41.1979 111.119 45.2083 113.181 47.5625C115.265 49.9167 117.952 51.0938 121.244 51.0938C124.473 51.0938 127.317 50.1667 129.775 48.3125C132.254 46.4375 134.046 43.9896 135.15 40.9688H124.494ZM186.35 11.9375L192.881 58H182.444L181.475 48.5312H164.506L159.319 58H149.256L175.475 11.9375H186.35ZM178.569 22.4688L168.787 40.5938H180.475L178.569 22.4688ZM221.362 11.9375L213.331 49.7188H236.144L234.394 58H201.956L211.737 11.9375H221.362ZM263.688 11.9375L255.656 49.7188H278.469L276.719 58H244.281L254.062 11.9375H263.688ZM323.544 49.7188L321.794 58H286.888L296.669 11.9375H330.45L328.7 20.0938H304.325L302.263 29.875H324.638L322.919 37.875H300.544L298.044 49.7188H323.544ZM360.431 55.5312C360.452 54.2396 360.598 52.9167 360.869 51.5625L361.712 47.2812C362.296 44.3438 362.171 42.3854 361.337 41.4062C360.525 40.4271 358.702 39.9375 355.869 39.9375H345.931L342.119 58H332.712L342.494 11.9375H365.087C368.296 12 370.692 12.3958 372.275 13.125C373.858 13.8542 375.108 14.9271 376.025 16.3438C376.775 17.5104 377.285 18.8021 377.556 20.2188C377.848 21.6354 377.806 23.25 377.431 25.0625C376.952 27.25 375.931 29.4062 374.369 31.5312C372.827 33.6354 370.692 35.125 367.962 36C369.9 36.8542 371.14 38.0729 371.681 39.6562C372.244 41.2188 372.181 43.6146 371.494 46.8438L370.837 49.9375C370.4 52.0417 370.181 53.4688 370.181 54.2188C370.181 55.4062 370.577 56.2812 371.369 56.8438L371.15 58H360.556C360.473 56.9792 360.431 56.1562 360.431 55.5312ZM361.369 19.9375H350.181L347.556 32.3125H358.462C360.629 32.3125 362.306 32.0625 363.494 31.5625C365.598 30.6875 366.931 28.9583 367.494 26.375C368.077 23.5833 367.546 21.7083 365.9 20.75C364.962 20.2083 363.452 19.9375 361.369 19.9375ZM415.631 11.9375H426.538L405.006 40.6875L401.35 58H391.725L395.381 40.6875L385.569 11.9375H396.913L402.194 32L415.631 11.9375Z" fill="black"/>
<path d="M140.994 73.9688L142.65 66.2812H161.837L156.587 91H150.212L150.462 85.25C148.129 87.4375 146.129 88.9792 144.462 89.875C141.587 91.4375 138.296 92.2188 134.587 92.2188C128.483 92.2188 123.931 90.1042 120.931 85.875C117.785 81.625 116.994 75.8125 118.556 68.4375C120.14 60.9792 123.462 55 128.525 50.5C133.587 46 139.494 43.75 146.244 43.75C152.098 43.75 156.483 45.2396 159.4 48.2188C162.317 51.1771 163.567 54.875 163.15 59.3125H153.681C153.619 56.1667 152.306 53.9688 149.744 52.7188C148.306 52.0312 146.619 51.6875 144.681 51.6875C140.973 51.6875 137.629 53.0938 134.65 55.9062C131.671 58.6979 129.577 62.9062 128.369 68.5312C127.181 74.1979 127.619 78.2083 129.681 80.5625C131.765 82.9167 134.452 84.0938 137.744 84.0938C140.973 84.0938 143.817 83.1667 146.275 81.3125C148.754 79.4375 150.546 76.9896 151.65 73.9688H140.994ZM202.85 44.9375L209.381 91H198.944L197.975 81.5312H181.006L175.819 91H165.756L191.975 44.9375H202.85ZM195.069 55.4688L185.287 73.5938H196.975L195.069 55.4688ZM237.862 44.9375L229.831 82.7188H252.644L250.894 91H218.456L228.237 44.9375H237.862ZM280.188 44.9375L272.156 82.7188H294.969L293.219 91H260.781L270.562 44.9375H280.188ZM340.044 82.7188L338.294 91H303.388L313.169 44.9375H346.95L345.2 53.0938H320.825L318.763 62.875H341.138L339.419 70.875H317.044L314.544 82.7188H340.044ZM376.931 88.5312C376.952 87.2396 377.098 85.9167 377.369 84.5625L378.212 80.2812C378.796 77.3438 378.671 75.3854 377.837 74.4062C377.025 73.4271 375.202 72.9375 372.369 72.9375H362.431L358.619 91H349.212L358.994 44.9375H381.587C384.796 45 387.192 45.3958 388.775 46.125C390.358 46.8542 391.608 47.9271 392.525 49.3438C393.275 50.5104 393.785 51.8021 394.056 53.2188C394.348 54.6354 394.306 56.25 393.931 58.0625C393.452 60.25 392.431 62.4062 390.869 64.5312C389.327 66.6354 387.192 68.125 384.462 69C386.4 69.8542 387.64 71.0729 388.181 72.6562C388.744 74.2188 388.681 76.6146 387.994 79.8438L387.337 82.9375C386.9 85.0417 386.681 86.4688 386.681 87.2188C386.681 88.4062 387.077 89.2812 387.869 89.8438L387.65 91H377.056C376.973 89.9792 376.931 89.1562 376.931 88.5312ZM377.869 52.9375H366.681L364.056 65.3125H374.962C377.129 65.3125 378.806 65.0625 379.994 64.5625C382.098 63.6875 383.431 61.9583 383.994 59.375C384.577 56.5833 384.046 54.7083 382.4 53.75C381.462 53.2083 379.952 52.9375 377.869 52.9375ZM432.131 44.9375H443.038L421.506 73.6875L417.85 91H408.225L411.881 73.6875L402.069 44.9375H413.413L418.694 65L432.131 44.9375Z" fill="#00B9F2" fill-opacity="0.33"/>
</svg>
