<svg width="1434" height="16" viewBox="0 0 1434 16" fill="none" xmlns="http://www.w3.org/2000/svg">
<path d="M19.0645 2.98891e-07L43.6602 7.70898L19.0645 15.417L19.0645 2.98891e-07ZM18.5957 2.93301e-07L18.5957 15.417L-6 7.70898L18.5957 2.93301e-07Z" fill="#455070"/>
<path d="M108.078 2.98891e-07L132.674 7.70898L108.078 15.417L108.078 2.98891e-07ZM107.609 2.93301e-07L107.609 15.417L83.0137 7.70898L107.609 2.93301e-07Z" fill="#455070"/>
<ellipse cx="54.5" cy="7.87109" rx="6" ry="5.5" transform="rotate(-90 54.5 7.87109)" fill="#455070"/>
<ellipse cx="71.5" cy="7.87109" rx="6" ry="5.5" transform="rotate(-90 71.5 7.87109)" fill="#455070"/>
<path d="M163.656 2.98891e-07L188.252 7.70898L163.656 15.417L163.656 2.98891e-07ZM163.188 2.93301e-07L163.188 15.417L138.592 7.70898L163.188 2.93301e-07Z" fill="#455070"/>
<path d="M252.67 2.98891e-07L277.266 7.70898L252.67 15.417L252.67 2.98891e-07ZM252.201 2.93301e-07L252.201 15.417L227.605 7.70898L252.201 2.93301e-07Z" fill="#455070"/>
<ellipse cx="199.5" cy="7.87109" rx="6" ry="5.5" transform="rotate(-90 199.5 7.87109)" fill="#455070"/>
<ellipse cx="216.5" cy="7.87109" rx="6" ry="5.5" transform="rotate(-90 216.5 7.87109)" fill="#455070"/>
<path d="M308.248 2.98891e-07L332.844 7.70898L308.248 15.417L308.248 2.98891e-07ZM307.779 2.93301e-07L307.779 15.417L283.184 7.70898L307.779 2.93301e-07Z" fill="#455070"/>
<path d="M397.262 2.98891e-07L421.857 7.70898L397.262 15.417L397.262 2.98891e-07ZM396.793 2.93301e-07L396.793 15.417L372.197 7.70898L396.793 2.93301e-07Z" fill="#455070"/>
<ellipse cx="344.5" cy="7.87109" rx="6" ry="5.5" transform="rotate(-90 344.5 7.87109)" fill="#455070"/>
<circle cx="361" cy="7.87109" r="6" transform="rotate(-90 361 7.87109)" fill="#455070"/>
<path d="M452.84 2.98891e-07L477.436 7.70898L452.84 15.417L452.84 2.98891e-07ZM452.371 2.93301e-07L452.371 15.417L427.775 7.70898L452.371 2.93301e-07Z" fill="#455070"/>
<path d="M541.854 2.98891e-07L566.449 7.70898L541.854 15.417L541.854 2.98891e-07ZM541.385 2.93301e-07L541.385 15.417L516.789 7.70898L541.385 2.93301e-07Z" fill="#455070"/>
<circle cx="489" cy="7.87109" r="6" transform="rotate(-90 489 7.87109)" fill="#455070"/>
<ellipse cx="505.5" cy="7.87109" rx="6" ry="5.5" transform="rotate(-90 505.5 7.87109)" fill="#455070"/>
<path d="M597.432 2.98891e-07L622.027 7.70898L597.432 15.417L597.432 2.98891e-07ZM596.963 2.93301e-07L596.963 15.417L572.367 7.70898L596.963 2.93301e-07Z" fill="#455070"/>
<path d="M686.445 2.98891e-07L711.041 7.70898L686.445 15.417L686.445 2.98891e-07ZM685.977 2.93301e-07L685.977 15.417L661.381 7.70898L685.977 2.93301e-07Z" fill="#455070"/>
<ellipse cx="633.5" cy="7.87109" rx="6" ry="5.5" transform="rotate(-90 633.5 7.87109)" fill="#455070"/>
<ellipse cx="650.5" cy="7.87109" rx="6" ry="5.5" transform="rotate(-90 650.5 7.87109)" fill="#455070"/>
<path d="M742.023 2.98891e-07L766.619 7.70898L742.023 15.417L742.023 2.98891e-07ZM741.555 2.93301e-07L741.555 15.417L716.959 7.70898L741.555 2.93301e-07Z" fill="#455070"/>
<path d="M831.037 2.98891e-07L855.633 7.70898L831.037 15.417L831.037 2.98891e-07ZM830.568 2.93301e-07L830.568 15.417L805.973 7.70898L830.568 2.93301e-07Z" fill="#455070"/>
<ellipse cx="777.5" cy="7.87109" rx="6" ry="5.5" transform="rotate(-90 777.5 7.87109)" fill="#455070"/>
<ellipse cx="794.5" cy="7.87109" rx="6" ry="5.5" transform="rotate(-90 794.5 7.87109)" fill="#455070"/>
<path d="M886.615 2.98891e-07L911.211 7.70898L886.615 15.417L886.615 2.98891e-07ZM886.146 2.93301e-07L886.146 15.417L861.551 7.70898L886.146 2.93301e-07Z" fill="#455070"/>
<path d="M975.629 2.98891e-07L1000.22 7.70898L975.629 15.417L975.629 2.98891e-07ZM975.16 2.93301e-07L975.16 15.417L950.564 7.70898L975.16 2.93301e-07Z" fill="#455070"/>
<ellipse cx="922.5" cy="7.87109" rx="6" ry="5.5" transform="rotate(-90 922.5 7.87109)" fill="#455070"/>
<circle cx="939" cy="7.87109" r="6" transform="rotate(-90 939 7.87109)" fill="#455070"/>
<path d="M1031.21 2.98891e-07L1055.8 7.70898L1031.21 15.417L1031.21 2.98891e-07ZM1030.74 2.93301e-07L1030.74 15.417L1006.14 7.70898L1030.74 2.93301e-07Z" fill="#455070"/>
<path d="M1120.22 2.98891e-07L1144.82 7.70898L1120.22 15.417L1120.22 2.98891e-07ZM1119.75 2.93301e-07L1119.75 15.417L1095.16 7.70898L1119.75 2.93301e-07Z" fill="#455070"/>
<circle cx="1067" cy="7.87109" r="6" transform="rotate(-90 1067 7.87109)" fill="#455070"/>
<ellipse cx="1083.5" cy="7.87109" rx="6" ry="5.5" transform="rotate(-90 1083.5 7.87109)" fill="#455070"/>
<path d="M1175.8 2.98891e-07L1200.39 7.70898L1175.8 15.417L1175.8 2.98891e-07ZM1175.33 2.93301e-07L1175.33 15.417L1150.73 7.70898L1175.33 2.93301e-07Z" fill="#455070"/>
<path d="M1264.81 2.98891e-07L1289.41 7.70898L1264.81 15.417L1264.81 2.98891e-07ZM1264.34 2.93301e-07L1264.34 15.417L1239.75 7.70898L1264.34 2.93301e-07Z" fill="#455070"/>
<ellipse cx="1211.5" cy="7.87109" rx="6" ry="5.5" transform="rotate(-90 1211.5 7.87109)" fill="#455070"/>
<ellipse cx="1228.5" cy="7.87109" rx="6" ry="5.5" transform="rotate(-90 1228.5 7.87109)" fill="#455070"/>
<path d="M1320.39 2.98891e-07L1344.99 7.70898L1320.39 15.417L1320.39 2.98891e-07ZM1319.92 2.93301e-07L1319.92 15.417L1295.33 7.70898L1319.92 2.93301e-07Z" fill="#455070"/>
<path d="M1409.4 2.98891e-07L1434 7.70898L1409.4 15.417L1409.4 2.98891e-07ZM1408.94 2.93301e-07L1408.94 15.417L1384.34 7.70898L1408.94 2.93301e-07Z" fill="#455070"/>
<ellipse cx="1356.5" cy="7.87109" rx="6" ry="5.5" transform="rotate(-90 1356.5 7.87109)" fill="#455070"/>
<ellipse cx="1373.5" cy="7.87109" rx="6" ry="5.5" transform="rotate(-90 1373.5 7.87109)" fill="#455070"/>
</svg>
