<svg width="243" height="153" viewBox="0 0 243 153" fill="none" xmlns="http://www.w3.org/2000/svg">
<path d="M140.08 104.38C139.514 104.645 138.883 104.751 138.246 104.688C137.086 104.503 135.926 104.703 134.927 105.261C134.741 105.405 134.509 105.472 134.271 105.451C133.33 105.339 132.399 105.525 131.596 105.985C131.099 106.21 130.645 106.238 130.28 105.752C129.914 105.265 129.438 105.242 128.91 105.211C128.018 105.144 127.694 105.552 127.854 106.473C127.9 106.631 127.928 106.792 127.938 106.954C127.907 107.367 127.622 107.634 127.296 107.374C126.354 106.576 125.84 107.213 125.266 107.801C125.124 107.942 124.879 107.999 124.805 108.158C124.635 108.498 124.492 108.853 124.377 109.22C122.359 108.91 121.587 109.019 121.157 110.435C119.847 110.897 118.576 111.367 117.297 111.784C116.837 111.895 116.364 111.954 115.886 111.958C115.275 111.944 114.698 112.181 114.279 112.62C113.851 113.059 113.785 113.772 114.119 114.344C114.345 114.835 113.985 115.111 113.704 115.405C113.423 115.698 113.023 116.184 112.627 116.546C112.231 116.909 111.875 117.212 111.321 117.689C111.773 117.797 112.028 117.943 112.25 117.902C112.887 117.824 113.474 117.601 114.102 117.401C114.76 117.102 115.526 117.117 116.214 117.441C115.923 118.234 115.229 118.76 114.411 118.809C113.733 118.891 113.105 119.182 112.605 119.645C110.945 120.987 108.956 121.829 106.83 122.089C105.74 122.295 104.675 122.6 103.646 122.999C103.309 123.041 102.995 123.216 102.652 123.299C102.502 123.317 102.278 123.345 102.19 123.356C101.367 124.344 100.055 124.356 99.0086 124.866C97.9612 125.319 96.842 125.59 95.6914 125.671C95.0545 125.749 94.6175 125.803 94.4268 126.467C94.3274 126.693 94.1841 126.892 94.0054 127.051C92.9353 128.233 92.4828 128.125 91.9241 126.38L92.7281 125.722L90.2531 124.841C89.8787 125.267 89.5313 125.72 89.2132 126.196C88.8903 126.686 89.0926 127.043 89.7019 127.173C90.3113 127.302 90.7179 127.293 91.2531 127.363C91.365 127.998 91.103 128.614 90.5923 128.918C89.9266 129.397 89.2987 129.93 88.7138 130.513C88.5927 130.623 88.5026 130.839 88.3879 130.84C87.3763 130.964 86.7103 131.756 85.8459 132.067C84.9563 132.253 84.0324 132.275 83.1144 132.131C82.9396 132.152 82.5873 131.814 82.6038 131.689C82.6467 131.249 82.7833 130.831 83.0037 130.467C83.2957 130.143 83.6222 129.856 83.9774 129.61C84.6393 129.529 85.3137 129.446 85.9881 129.362C86.6624 129.279 87.0374 129.015 87.1879 127.974C87.0101 127.891 86.8276 127.822 86.642 127.768C86.1987 127.714 85.7556 127.659 85.3444 127.642C83.8663 127.578 83.5152 128.126 84.0194 129.632C83.4919 129.369 82.8971 129.357 82.3939 129.601C81.2009 130.075 79.9119 130.439 78.6571 130.852C77.4962 131.29 76.538 132.144 75.9401 133.274C75.4255 132.825 74.6926 132.878 74.3029 133.393L74.3026 133.394C73.8256 133.888 73.2132 134.215 72.5399 134.334C72.174 134.459 71.8527 134.686 71.6087 134.994C71.3671 135.32 71.1548 135.67 70.9743 136.041C70.4876 136.837 70.1603 137.668 68.9395 137.764C68.2651 137.847 67.7004 138.708 67.0387 139.158C65.3279 140.323 63.6102 141.448 61.8697 142.59L59.5786 144.087C59.3395 144.252 59.1301 144.442 58.9013 144.593C58.5417 144.877 58.0398 144.89 57.6316 144.626C57.1716 144.329 57.3235 143.955 57.4412 143.532C57.7091 142.756 57.3154 141.853 56.5618 141.515C56.2955 141.396 56.0074 141.359 55.7328 141.41C55.3706 141.455 54.9963 141.283 54.6397 141.286C53.8262 141.362 53.0117 140.931 52.5467 140.18C52.1996 139.814 51.7258 139.622 51.2566 139.657C49.6205 139.859 48.1892 138.89 46.6301 138.727C46.5088 138.721 46.3918 138.661 46.308 138.562C45.5699 137.398 44.234 136.758 43.7006 135.379C43.3706 134.649 42.947 133.967 42.4424 133.352C42.174 132.977 41.818 132.681 41.4136 132.496C40.1543 131.862 38.7863 131.562 37.4348 131.623C37.2112 131.364 37.0102 131.089 36.7788 130.858C36.3651 130.325 35.6639 130.167 35.1327 130.488C34.2449 130.948 33.2632 131.199 32.2503 131.225C31.8566 131.291 31.4739 131.402 31.1088 131.557C30.6037 131.795 30.0643 131.953 29.5067 132.027C28.3226 132.158 27.1961 132.557 26.2024 133.198C25.522 133.396 24.8108 133.483 24.0917 133.458C24.0105 132.991 24.05 132.631 24.0396 132.278C25.2318 132.458 25.5403 132.325 25.9574 131.496C24.9999 130.905 24.6087 131.076 24.0442 132.305L23.4456 132.897C22.8525 133.447 22.4935 133.437 21.8927 132.843C20.9543 131.922 20.9543 131.922 19.7218 132.169C19.6675 131.931 19.6257 131.69 19.5964 131.448C19.5412 130.691 19.6734 130.498 20.3862 130.342L22.0014 130.02C22.1407 129.28 22.2499 128.735 22.3826 128.105C21.7713 127.157 22.0599 126.249 23.1996 126.054C23.971 125.748 24.8307 125.713 25.6572 125.955C26.3365 126.267 26.6813 125.829 27.2041 124.728L26.4814 123.726C27.0141 122.944 27.7752 122.374 28.6595 122.094C29.5911 121.74 30.4403 121.2 31.1638 120.503C31.6142 120.227 31.7493 119.606 31.4686 119.102C31.3136 118.605 31.2286 118.092 31.2164 117.579C31.1606 117.258 31.1026 116.924 31.1218 116.595C31.1409 116.265 31.1416 115.829 31.1515 115.445L31.4138 115.413L31.8773 116.024C32.1584 116.429 32.4642 116.816 32.7926 117.18C32.984 117.344 33.2322 117.404 33.4588 117.343C34.439 116.745 35.3874 116.11 36.3335 115.462C36.421 115.451 36.4213 115.233 36.4808 115.062L35.5513 114.044C36.0113 113.756 36.4058 113.53 36.7831 113.279L39.3859 111.594C40.0147 111.176 40.6755 110.794 41.2871 110.351C41.8988 109.907 42.4615 109.401 43.0561 108.932L44.7866 107.587C44.7709 107.057 44.7469 106.406 44.7206 105.741C44.6997 105.62 44.6719 105.46 44.6579 105.38C43.6566 104.317 43.6441 102.777 43.0808 101.592C42.4428 101.371 41.9862 101.386 41.7642 102.164C41.5021 103.15 40.5916 103.563 39.918 104.164C39.2443 104.765 38.5522 105.26 37.8397 105.784C37.4967 106.081 37.1062 106.313 36.6837 106.472C36.1203 106.563 35.7125 107.051 35.6909 107.658C35.6499 107.936 35.3874 108.186 35.2145 108.44C35.0416 108.693 34.9559 108.567 34.9324 108.652C34.6764 109.747 33.6305 109.821 32.8042 110.278C33.096 110.855 33.3846 111.488 32.7184 111.911C32.0521 112.334 31.355 113.02 30.4372 112.438C29.8611 112.059 29.5343 112.453 29.1134 112.601C28.6925 112.748 28.348 112.968 27.9342 113.155C27.6332 113.26 27.3502 113.41 27.0931 113.6C26.1123 114.346 25.2092 115.198 24.3971 116.141C23.9647 116.715 23.3573 117.111 22.6669 117.268C21.9395 115.653 22.8644 114.516 23.5099 113.387C23.6376 113.197 23.8257 113.063 24.0434 113.007C25.397 112.531 26.489 111.508 27.0927 110.149C27.2618 109.919 27.4569 109.712 27.6742 109.532L28.7604 110.203C28.7093 109.909 28.7916 109.722 28.6629 109.642C28.4032 109.374 28.3839 108.949 28.6198 108.692C28.6695 108.638 28.7285 108.594 28.794 108.562C29.481 108.097 30.2274 107.73 31.0151 107.47C32.3009 107.315 33.4319 106.598 34.1403 105.49C34.3141 105.268 34.53 105.089 34.7755 104.961C34.7755 104.961 34.8504 104.952 34.888 104.947C36.7135 103.781 38.8021 103.101 40.5816 101.818C41.598 101.134 42.5411 100.322 43.5379 99.5991C43.8621 99.3803 44.2234 99.2249 44.6062 99.1401C45.3957 98.9115 45.8161 98.0345 45.5449 97.1813C45.5423 97.1731 45.5397 97.1651 45.537 97.157C45.047 96.4078 45.1977 95.4211 45.8736 94.9532C45.9237 94.9185 45.9762 94.8871 46.0304 94.8594C46.5218 94.4579 47.0601 94.1052 47.6061 93.7243L45.9328 92.1711C45.3576 93.8513 43.7695 93.2287 42.673 93.7456C42.4871 94.4369 42.8658 94.8538 43.2514 95.3109C43.3862 95.4989 43.3397 95.8183 43.3838 96.072C43.163 96.0783 42.9405 96.0552 42.7213 96.0035C42.3196 95.8212 41.9314 95.569 41.5251 95.36C41.1188 95.151 40.849 94.9933 40.9097 94.5357C40.9705 94.0782 41.0873 93.7229 41.5651 93.6094C41.8017 93.5294 42.0321 93.4328 42.2546 93.3198C41.9049 92.4999 41.1652 91.9232 40.3361 91.8243C39.9211 91.7118 39.2508 91.6716 39.1568 91.4241C38.976 90.7935 38.9058 90.1408 38.9496 89.4994C38.8846 89.1255 39.4354 88.7712 38.984 88.3768C38.5485 88.0664 37.9885 88.1015 37.6338 88.4615C36.7455 89.0756 35.9042 89.7384 35.0478 90.3895L32.8055 92.1659C32.6492 92.2944 32.4578 92.4406 32.4232 92.6085C32.1497 93.897 30.9322 93.9378 30.0776 94.4523C29.9902 94.463 29.7991 94.3912 29.5058 94.3182C29.9453 93.6141 30.4741 92.9804 31.0787 92.4333C31.8531 91.7514 32.5784 91.0074 33.3333 90.287C33.5302 90.0991 33.7887 89.9718 33.9856 89.7839C34.601 89.226 35.1731 88.6176 35.6974 87.9637C35.9134 87.5918 35.9672 87.1307 35.8459 86.6906C35.6223 85.9812 35.8193 85.2285 36.3442 84.7881C36.6995 84.4616 37.03 84.1063 37.333 83.7253C37.6591 83.2936 37.9099 82.8016 38.075 82.2701C38.3121 81.2862 37.8242 80.8281 36.8562 81.0565C36.6386 81.1497 36.4113 81.2189 36.1777 81.2629C35.9965 81.2381 35.8327 81.1204 35.7404 80.9486C35.7149 80.8017 35.8276 80.5696 35.9589 80.4443C36.0902 80.319 36.2836 80.4043 36.4094 80.3206C36.5352 80.237 36.8976 79.974 36.923 79.7527C36.9238 79.477 36.7909 79.2104 36.5706 79.0461C36.2825 78.9941 35.9921 79.0299 35.7338 79.1492C35.6061 79.2361 35.4915 79.342 35.3931 79.4639C34.4366 78.218 34.5412 77.646 35.5407 76.7181C36.3801 75.9305 37.1419 75.0558 37.8163 74.1055C38.2657 73.4571 38.2264 72.5395 37.7205 71.8671C37.3408 71.3379 37.2952 70.6374 37.6059 70.1082C38.085 69.1218 38.5366 68.1252 38.9736 67.1167C39.102 66.828 39.311 66.4887 39.2622 66.2083C39.1809 65.3517 39.4888 64.5336 40.091 64.0059C40.6563 63.2954 40.5939 62.7165 39.7869 62.2568C38.8757 61.845 38.4022 60.7507 38.7293 59.8129C38.7365 59.7926 38.7439 59.7723 38.7517 59.7523C38.9949 58.8767 38.4196 58.4295 38.1411 57.7819C38.7613 57.2567 39.4084 56.7673 40.0802 56.3155C41.0628 55.7306 42.1653 55.322 43.1386 54.6838C43.9915 54.1109 44.7863 53.4513 45.5131 52.7138C45.9454 52.1045 46.6884 51.8379 47.4223 52.0285C48.3069 52.3291 49.2434 52.1149 49.8759 51.467L50.5629 50.796C51.7359 51.8925 52.5645 51.4494 53.3843 50.7347C54.4 49.7535 55.6084 49.0154 56.936 48.5651C57.3959 48.3948 57.7856 48.0755 58.0525 47.6502C58.3478 47.1572 58.8459 46.8457 59.4101 46.8009C60.1805 46.7578 60.9008 46.454 61.4662 45.9339C62.0604 45.3504 62.9587 45.2397 63.7266 45.6553C64.5748 46.0593 65.5314 45.9674 66.2359 45.4142C67.1155 44.8967 68.0635 44.4798 68.9577 43.9741C69.4955 43.7268 69.9746 43.3667 70.3678 42.9138C71.0943 41.9305 72.2353 41.3919 73.4564 41.4558C74.2056 41.4212 74.9352 41.2528 75.615 40.958C76.6321 40.6139 77.7075 40.4538 78.7982 40.4839C79.4436 40.5291 80.0708 40.3513 80.5852 39.9772C81.1356 39.5787 81.7125 39.2206 82.3123 38.9052C82.6442 38.687 83.066 38.4713 82.8732 37.9496C82.6803 37.4278 82.1567 37.4242 81.722 37.4914C81.2871 37.5586 81.1277 37.7419 80.8053 37.7953C80.4829 37.8486 79.8937 37.9076 79.2817 37.983C79.3138 37.5993 79.367 37.2193 79.4409 36.8451C79.7044 35.9398 80.1201 35.6159 80.9484 35.9774C81.5689 36.2045 82.2324 36.1668 82.7927 35.8729C83.4503 35.7033 84.095 35.4919 84.7236 35.2395C85.353 34.9124 85.9519 34.5284 86.514 34.0915C87.1111 33.677 87.3726 32.8924 87.1677 32.1289C87.0662 31.675 87.3268 31.2453 87.7498 31.169C87.7839 31.1629 87.8187 31.1591 87.8536 31.1579C88.5244 31.0837 89.2087 31.1141 89.8849 31.2485C90.4188 31.4085 90.9764 31.3398 91.4335 31.0577C92.1927 30.5823 93.1622 30.4355 93.7362 29.6283C93.858 29.4815 94.0248 29.3843 94.2111 29.3516C95.1765 29.1987 95.9684 28.531 96.3137 27.5787C96.6918 26.6114 97.4724 25.9047 98.4408 25.6528C99.4399 25.5297 99.6147 25.5081 99.7473 26.6373C99.7565 26.7632 99.7783 26.8884 99.8124 27.0112C99.8124 27.0112 99.8124 27.0112 99.9347 27.2006C100.047 27.2675 100.168 27.3171 100.292 27.3475C101.176 27.3202 102.069 27.4741 102.922 27.8007C103.513 28.0614 104.168 27.9806 104.645 27.5884C105.4 27.0569 106.309 26.7974 107.246 26.8451C107.763 26.8208 108.264 26.6942 108.725 26.472C109.496 25.9616 110.441 25.7916 111.372 25.9957C111.492 26.0281 111.617 26.0128 111.721 25.9526C112.741 25.6339 113.834 25.5833 114.91 25.8051C116.084 25.8173 117.235 25.6061 118.31 25.1816C119.216 24.8871 120.143 24.6587 121.087 24.4984C121.711 24.4091 122.315 24.2291 122.882 23.9635C124.477 22.8807 126.201 22.0135 128.02 21.38C129.232 21.0125 129.218 20.9323 129.69 20.0558C129.488 19.9479 129.272 19.873 129.052 19.8344C127.067 19.8471 125.11 20.1433 123.235 20.7149C122.621 20.8799 121.994 20.9982 121.358 21.0691C121.033 21.1091 120.721 21.1476 120.396 21.1876C118.197 21.745 116.005 22.3424 113.803 22.8866C112.58 23.1874 111.218 23.4234 109.934 23.7452C109.393 23.8619 108.878 24.0679 108.408 24.3561C107.817 24.8191 107.103 25.0867 106.348 25.1282C106.06 25.0885 105.773 25.1239 105.511 25.2313C104.348 25.8793 103.401 25.2732 102.402 24.8099C102.248 24.7333 102.035 24.4597 102.056 24.3615C102.129 24.1397 102.288 23.9667 102.496 23.8846C103.029 23.6949 103.586 23.5715 104.154 23.5166C104.757 23.4702 105.313 23.2095 105.735 22.7762C106.206 22.3444 106.722 21.97 107.275 21.659C107.639 21.5026 108.03 21.4175 108.431 21.4075C109.18 21.3151 109.929 21.2228 110.679 21.1304C111.931 20.913 113.152 20.5661 114.325 20.0946C115.249 19.8711 116.199 19.754 117.16 19.7453C117.938 19.7466 118.671 19.4479 119.221 18.9049C119.295 18.8141 119.426 18.6887 119.508 18.7195C120.962 19.0858 121.878 17.6774 123.251 17.7263C125.088 17.8 126.554 16.692 128.209 16.1607C128.416 16.0762 128.644 16.0482 128.871 16.0791C130.655 16.6705 132.534 16.1925 133.757 14.836C134.112 14.4483 134.655 14.3182 135.166 14.4988C136.203 14.9014 137.326 14.6515 138.052 13.8566C138.286 13.6482 138.583 13.5304 138.899 13.5204C140.343 13.4215 141.747 13.0828 143.062 12.5164C143.98 12.2876 144.926 12.1709 145.884 12.1686C146.814 11.972 147.762 11.8552 148.719 11.8192C149.621 11.8717 150.532 12.414 151.377 12.4327C153.307 12.4539 155.189 12.3448 157.161 12.1698C159.096 11.9296 161.082 12.078 163.016 12.6075C163.535 12.7463 164.071 12.7414 164.57 12.5933C166.02 12.296 167.517 12.2126 169.017 12.3453C169.529 12.2822 170.061 12.4076 170.58 12.3845C171.714 12.1553 172.909 12.2927 174.016 12.7792C174.313 12.9472 174.791 12.6838 175.192 12.7162C176.703 12.5299 178.228 12.4238 179.762 12.3711C180.198 12.3719 180.63 12.5303 180.988 12.82C181.576 13.2995 182.295 13.5457 183.009 13.5119C183.602 13.5602 184.183 13.7601 184.705 14.0939C185.453 14.5423 186.267 14.8359 187.1 14.9579C188.208 15.2614 189.352 15.2384 190.406 14.8916C190.683 14.8462 190.972 14.8714 191.248 14.9651C192.088 15.0748 192.925 15.2498 193.75 15.4887C195.651 15.9294 197.305 17.2831 198.211 19.1394C198.225 19.2194 198.237 19.2863 198.326 19.3571C198.966 21.1329 200.058 21.5439 201.954 21.2966C203.428 21.115 204.901 20.9333 206.375 20.7517C207.849 20.5702 209.222 20.2509 210.598 19.8767C211.975 19.5025 211.915 19.4553 212.086 18.0159C212.715 17.5807 213.488 17.4127 214.262 17.5432C215.454 17.7236 215.815 18.552 215.228 19.5789C214.604 20.5519 213.641 21.2159 212.528 21.4391C211.312 21.7799 210.077 22.0139 208.844 22.2613C207.169 22.6042 206.493 23.4103 206.899 25.7469C206.899 25.7469 206.916 25.8404 206.923 25.8804C207.574 27.7913 207.46 28.31 205.146 29.2361C204.497 29.4098 203.927 29.7942 203.513 30.3374C203.018 31.1309 202.04 31.4106 201.168 31.0083C200.501 30.8026 199.808 30.7755 199.152 30.9294C198.313 31.0371 197.591 31.5416 197.184 32.3039C196.971 32.6437 196.703 32.9395 196.392 33.1788C195.741 33.7636 195.714 34.1216 196.329 34.7959C196.943 35.4702 197.083 35.8348 196.501 36.7386C196.084 37.28 195.87 37.9723 195.897 38.695C196.002 39.814 196.627 40.3234 197.627 39.9138C198.628 39.5341 199.7 39.3558 200.788 39.3878C201.587 39.2953 202.361 39.0851 203.091 38.7631C203.91 38.4849 204.7 38.1148 205.477 37.8143C206.007 37.6934 206.437 37.3126 206.637 36.7848C206.443 36.6011 206.26 36.405 206.089 36.1978C205.573 35.6581 205.54 34.8075 206.016 34.2979C206.053 34.2583 206.093 34.2213 206.134 34.1875C206.396 33.8552 206.61 33.4742 206.885 33.0721C207.35 33.2099 207.821 33.3204 208.294 33.403C208.57 33.4085 208.838 33.3474 209.08 33.2245C210.377 32.7645 210.718 32.8862 211.249 34.1846C211.376 34.5812 211.663 34.9075 212.029 35.0704C212.381 35.2634 212.654 35.5936 212.787 35.9862C212.944 36.7186 213.582 37.2525 214.28 37.2343C215.792 37.552 217.318 37.7379 218.841 37.7904C220.071 37.8429 221.138 38.8463 221.342 40.1417C221.39 40.7759 221.81 41.3367 222.389 41.5401C223.045 41.8712 223.682 42.2485 224.295 42.669C224.6 42.8769 224.855 43.1597 225.037 43.4912C225.268 43.862 225.183 44.3399 224.847 44.5587C224.701 44.6542 224.523 44.6879 224.347 44.6537C223.624 44.6064 222.913 44.4076 222.196 44.3187C220.894 44.1655 220.896 44.1788 220.402 45.3718C219.908 46.5648 218.847 47.2136 217.018 46.7435C216.41 46.4491 215.722 46.6753 215.425 47.2671C214.747 48.2099 214.304 48.1553 213.192 47.3377C213.172 45.9764 212.494 45.3781 210.958 45.5674C209.849 45.74 208.761 46.0109 207.706 46.3773C207.28 46.4979 206.905 46.7624 206.997 47.3647C207.716 47.9165 208.658 47.9383 209.328 47.4184C210.121 46.9317 211.148 47.0264 211.921 47.658C212.301 47.8639 212.705 48.0074 213.118 48.0833C213.208 49.2587 213.208 49.2587 213.752 49.8191L214.275 48.8681C214.656 48.8101 215.05 48.8312 215.434 48.9299C216.171 49.2229 216.971 49.1544 217.608 48.7436C218.533 48.4115 219.494 48.143 220.433 47.8227C221.059 47.6092 221.769 47.6581 222.097 46.8268C222.177 46.626 222.646 46.6091 222.936 46.5188C223.354 46.4348 223.759 46.3026 224.143 46.1246C224.873 45.6501 225.78 45.5383 226.641 45.8168C226.884 46.4706 227.086 47.1385 227.244 47.8154C227.255 48.2216 227.16 48.6154 226.97 48.9538C226.617 49.7882 226.613 49.9115 227.255 50.5961C227.461 50.8044 227.653 51.0269 227.83 51.2617C228.299 51.9152 228.231 52.8073 227.674 53.2993C227.515 53.4826 227.309 53.6171 227.134 53.7886C226.296 54.6148 226.256 54.9742 227.075 55.8688C227.603 56.3608 227.842 57.1082 227.691 57.7977C227.511 58.4404 227.695 59.1613 228.169 59.6617C229.062 60.6155 228.745 61.2137 228.001 62.0008C227.787 62.2319 227.544 62.4527 227.249 62.7346C228.112 63.5148 227.731 64.4072 227.588 65.4204C228.113 65.5057 228.572 65.5719 229.034 65.665C229.731 65.6338 230.36 66.2097 230.437 66.9515C230.463 67.1988 230.424 67.4443 230.325 67.6607C230.135 68.3788 229.859 69.0631 229.506 69.6983C229.298 70.0492 228.967 70.2946 228.579 70.3853C227.729 70.6175 226.954 71.0583 226.316 71.6735C226.016 71.9215 225.775 72.2397 225.611 72.606C225.277 73.4685 224.6 74.113 223.75 74.3764C223.341 74.5221 222.957 74.7331 222.561 74.8774C222.391 74.967 222.193 74.9914 221.999 74.9467C221.329 74.6891 220.605 74.7784 220.051 75.1868C218.874 75.7545 217.62 76.3183 216.386 76.8523C216.087 76.9502 215.77 76.9893 215.45 76.9677C215.021 76.8788 214.587 76.8497 214.159 76.8813C212.585 77.1778 210.979 77.3209 209.36 77.309C209.087 77.3635 208.819 77.4376 208.557 77.5308C207.152 77.963 205.757 78.4486 204.331 78.8289C202.904 79.2093 202.67 79.6201 202.976 81.0143C203.118 81.8288 203.349 82.6458 203.516 83.4572C203.703 84.1498 203.399 84.8505 202.796 85.1143L201.884 85.6631C201.821 85.6708 201.819 85.8075 201.781 85.8803C202.378 86.8448 203.371 87.4639 204.428 87.5316L204.325 88.7718C205.427 89.3861 206.385 90.3455 207.996 89.9287C207.802 90.43 207.732 90.6841 207.617 90.9028C207.007 91.8944 206.481 92.9445 206.045 94.0423C205.624 95.105 204.88 95.9715 203.924 96.5131C203.671 96.0659 203.698 95.5184 203.991 95.141C204.394 94.4505 204.783 93.6797 205.151 93.007C205.312 92.7296 205.422 92.4204 205.477 92.0939C205.553 91.799 205.383 91.478 205.099 91.3771C205.013 91.3469 204.924 91.339 204.838 91.3543C204.391 91.3346 203.948 91.3891 203.527 91.5159C201.958 92.1236 200.268 92.3829 198.557 92.2785C197.832 92.3069 197.127 92.4677 196.471 92.7537C195.615 93.0911 194.683 93.206 193.748 93.0892C193.43 93.0193 193.105 93.0593 192.824 93.2031C191.186 93.9369 189.402 94.3053 187.578 94.286C186.81 94.2959 186.075 94.5281 185.45 94.9574C185.198 95.1598 184.906 95.3025 184.591 95.3769C183.359 95.6243 182.119 95.8316 180.886 96.0789C179.654 96.3263 178.211 96.6131 176.881 96.8862C176.65 96.948 176.411 96.9775 176.169 96.9739C174.192 96.9959 172.261 97.405 170.473 98.1806C170.057 98.3289 169.63 98.4454 169.194 98.5291C168.29 98.7009 167.446 99.0842 166.723 99.6518C165.73 100.224 164.695 100.716 163.624 101.125C163.118 101.336 162.634 101.596 162.178 101.903C161.649 102.311 161.02 102.557 160.351 102.619C159.406 102.769 158.509 103.106 157.705 103.614C156.099 104.595 154.282 105.172 152.386 105.306C151.825 105.346 151.289 105.519 150.816 105.813C150.144 106.323 149.3 106.539 148.447 106.419C148.303 106.695 148.174 106.979 148.059 107.271C147.79 107.734 147.314 108.012 146.785 108.014C146.091 108.162 145.409 108.355 144.743 108.593C144.017 108.819 143.319 109.137 142.581 109.296C141.844 109.455 141.544 109.124 141.751 108.335C142.053 107.138 142.043 107.153 143.261 107.262C143.614 107.273 143.963 107.23 144.298 107.134C144.467 107.056 144.586 106.895 144.617 106.699C144.592 106.552 144.441 106.271 144.324 106.258C143.452 106.161 142.472 105.586 141.845 106.673C141.66 106.882 141.405 107.006 141.127 107.02C140.44 107.105 139.752 107.108 139.077 107.191C138.366 107.244 137.666 107.372 136.988 107.571C136.669 107.714 136.432 107.996 136.332 108.348C136.115 109.084 136.006 109.847 135.845 110.685C134.868 110.609 133.945 111.015 133.345 111.784C132.659 111.386 131.865 111.305 131.163 111.562C130.668 111.789 130.065 111.535 129.815 110.995C129.797 110.956 129.781 110.916 129.768 110.875C129.624 110.322 129.925 109.782 130.438 109.669C130.607 109.631 130.786 109.644 130.955 109.706C131.26 109.83 131.554 109.991 131.829 110.184C132.241 110.494 132.788 110.427 133.078 110.031C133.425 109.606 133.1 109.278 132.885 108.922C132.729 108.738 132.62 108.516 132.569 108.279C132.488 107.812 132.956 107.495 133.527 107.698C134.21 107.944 134.941 107.854 135.512 107.453C135.97 107.151 136.499 106.963 136.976 106.7C137.453 106.436 137.638 106.25 137.97 106.032C138.268 105.78 138.612 105.595 138.984 105.484C139.556 105.442 140.002 104.995 140.071 104.396C140.251 104.482 140.493 104.698 140.609 104.629C141.58 104.284 142.621 104.156 143.668 104.252C143.83 104.252 143.983 104.189 144.097 104.077C144.237 103.855 144.428 103.558 144.366 103.348C144.254 103.09 144.029 102.901 143.769 102.849C142.383 102.951 140.932 102.966 140.08 104.38ZM164.507 19.9375C165.109 20.2287 165.779 20.2731 166.378 20.0615C167.224 19.8754 168.082 19.7422 168.95 19.6629C169.539 19.5974 170.122 19.4981 170.696 19.3658C172.05 18.7096 173.468 18.1926 174.931 17.8211C175.051 17.8142 175.163 17.767 175.252 17.686C175.395 17.5148 175.486 17.3 175.514 17.0673C175.491 16.9337 175.271 16.7699 175.103 16.6816C174.934 16.5934 174.803 16.7186 174.632 16.6168C172.224 16.2478 169.803 16.1439 167.409 16.3068C166.521 16.2903 165.675 16.5917 165.006 17.162C165.267 17.4845 165.48 17.7583 165.672 17.9801C165.504 18.8465 164.272 18.8073 164.507 19.9375ZM209.439 58.9829C208.981 58.9433 208.523 58.9313 208.068 58.9473C206.819 59.1012 205.57 59.2551 204.307 59.3289C203.072 59.4846 201.915 59.9696 200.942 60.7391C201.593 61.5455 202.053 62.4298 202.97 62.644C203.888 62.8583 205.121 62.9791 206.204 63.1184C206.365 63.1134 206.519 63.0613 206.649 62.9681C207.412 62.5335 208.141 62.0381 208.828 61.4858C209.493 60.8885 209.733 59.9061 209.439 58.9829ZM146.265 102.609C146.323 102.942 146.412 103.45 146.558 103.554C146.703 103.659 147.207 103.474 147.532 103.434C147.678 103.365 147.808 103.266 147.914 103.142C148.587 102.497 149.521 102.232 150.455 102.42C150.975 102.498 151.495 102.434 151.966 102.233C153.057 101.758 154.09 101.167 155.112 100.591C155.288 100.456 155.386 100.236 155.379 99.999C155.346 99.812 155.047 99.6308 154.846 99.5737C154.607 99.5145 154.362 99.5166 154.132 99.5798C152.06 99.9425 150.014 100.418 148.002 101.004C147.173 101.154 146.512 101.765 146.265 102.609ZM207.501 50.8479C205.978 49.7179 203.961 50.0475 202.996 51.5844C202.929 51.6909 202.868 51.8018 202.814 51.9164C204.508 52.0487 205.855 51.2826 207.501 50.8479ZM101.312 121.827L101.358 122.094C102.213 122.166 102.723 121.285 103.529 121.227C103.591 121.219 103.625 120.97 103.765 120.53L101.312 121.827ZM119.144 108.106L121.005 107.876C119.862 107.022 119.837 107.025 119.144 108.106ZM47.0592 97.037L46.8777 96.8003C46.4781 96.8495 46.1548 96.9711 46.2223 97.7266L47.0592 97.037ZM88.1241 34.6969C87.9292 34.53 87.8241 34.3657 87.7071 34.3528C87.59 34.34 87.4462 34.4668 87.3182 34.5372C87.4313 34.6733 87.5137 34.8541 87.6548 34.9321C87.796 35.0102 87.8657 34.8243 88.0992 34.7L88.1241 34.6969Z" fill="#455070"/>
<path d="M62.4555 44.949C62.454 45.0084 62.4643 45.0685 62.4858 45.125C62.6759 45.5576 63.3209 45.8785 62.9704 46.4474C62.6914 47.1683 62.0572 47.6441 61.3131 47.6908C60.7046 47.6558 60.0005 48.0339 59.5256 47.1389L60.0017 45.9596C59.1949 45.1473 58.3324 44.9781 57.6562 45.7398C56.5992 46.6762 55.3905 47.4061 54.08 47.8993C53.5847 48.1499 53.1271 48.4718 52.7195 48.8568C52.5365 49.0593 52.6308 49.5316 52.5887 49.8824C52.9267 49.9094 53.3657 50.0762 53.5832 49.9246C54.6247 49.259 55.624 48.5251 56.5759 47.7269C57.2076 47.0163 58.241 46.8877 59.0861 47.4146C58.5471 48.441 57.8347 49.3441 56.9822 50.0824C56.3596 50.518 55.7137 50.9169 55.0474 51.2773C54.6884 51.4501 54.3124 51.5849 53.9245 51.6797C53.6819 51.6816 53.4421 51.7115 53.2091 51.7687C51.783 52.5683 51.5997 52.3975 50.4214 50.8434C50.1208 50.4383 49.8177 50.0196 49.579 49.676C49.7401 48.8263 49.8626 48.0505 50.0503 47.2804C50.122 46.9184 50.2815 46.589 50.5136 46.3239C51.0845 45.7689 51.7196 45.2889 52.3376 44.7834C52.4928 44.6655 52.67 44.5825 52.8594 44.5387C55.2284 43.7685 57.4984 42.7307 59.6328 41.442C61.2987 40.2875 63.2718 39.6871 65.3212 39.7108C66.2395 39.8841 67.1099 39.3845 67.4445 38.4926C67.7832 37.9092 68.3743 37.5529 69.0355 37.5341C69.5584 37.4872 70.0546 37.3069 70.4832 37.0082C71.2475 36.4477 72.2135 36.2577 73.1615 36.4814C73.765 36.5262 74.367 36.5023 74.9568 36.4102C75.2779 36.3629 75.5565 36.1728 75.7254 35.8859C76.0058 35.2996 76.6626 35.0529 77.2664 35.307C78.421 35.7377 79.644 35.8158 80.7923 35.5321C81.0936 35.418 81.4191 35.3775 81.7462 35.4134C82.0029 35.4667 82.2329 35.6348 82.377 35.8742C82.4097 36.0637 82.2454 36.3746 82.1 36.5725C81.9705 36.731 81.7987 36.8434 81.6047 36.8967C80.8316 37.1214 80.1542 37.5906 79.6578 38.2452C79.2959 38.755 78.7124 39.0286 78.0921 38.9793C77.6698 39.0069 77.2509 39.0591 76.8371 39.1355C76.2195 39.1325 75.6613 39.4555 75.345 39.9988C74.6156 41.1957 73.2811 41.4863 72.2394 42.2105C72.2009 42.2291 72.1571 42.2345 72.1138 42.2261C70.5598 41.8387 69.2418 42.8185 67.7523 42.8795C66.899 42.959 66.0724 43.1832 65.3028 43.5438C64.2952 43.9458 63.3988 44.4721 62.4555 44.949Z" fill="#455070"/>
<path d="M51.0874 40.2588C52.4916 38.944 57.0678 37.0385 58.375 37.2504C58.3064 38.1205 57.6573 38.4517 57.0631 38.8037C56.4689 39.1557 56.0671 39.5811 55.5656 39.9495C55.397 40.1067 55.1996 40.2255 54.984 40.2999C54.0288 40.4192 53.0879 40.6201 52.1351 40.7531C51.5515 40.8678 51.5445 40.8269 51.0874 40.2588Z" fill="#455070"/>
<path d="M33.845 95.6973C33.8052 96.2711 33.3508 96.4354 33.0269 96.6919C31.4344 97.9848 29.7978 99.2425 28.2101 100.562C27.5217 101.134 26.9334 101.843 26.2816 102.479C26.0789 102.674 25.8512 102.838 25.6043 102.968C24.8236 103.347 24.1647 103.941 23.6931 104.693C23.4444 105.089 23.0194 105.86 22.5504 105.429C22.0813 104.999 22.802 104.613 23.0701 104.255C23.5228 103.644 23.9927 103.058 24.4773 102.483C24.6231 102.294 24.7895 102.123 24.9734 101.975C26.7198 100.691 28.4832 99.4309 30.225 98.1196C31.0784 97.4729 31.8533 96.7411 32.6943 96.0959C32.9425 95.9165 33.2216 95.4757 33.845 95.6973Z" fill="#455070"/>
<path d="M117.861 116.723C117.63 115.395 117.355 115.279 116.384 115.548C116.222 115.568 116.065 115.763 115.944 115.724C115.673 115.607 115.41 115.467 115.158 115.305C115.298 115.084 115.384 114.775 115.584 114.683C116.215 114.361 116.902 114.141 117.535 113.832C117.938 113.614 118.319 113.359 118.675 113.068C119.318 112.533 120.17 112.334 121.01 112.523C120.605 113.144 120.114 113.693 119.551 114.155C119.089 114.645 118.549 115.051 118.442 115.824C118.573 116.133 118.239 116.337 117.861 116.723Z" fill="#455070"/>
<path d="M129.518 113.177L132.196 110.866C133.223 112.467 132.887 113.155 131.155 113.26C130.933 113.323 130.724 113.422 130.534 113.552C130.123 113.737 130.123 113.737 129.518 113.177Z" fill="#455070"/>
<path d="M44.1368 53.6901C44.0055 53.8813 43.9465 54.0501 43.8317 54.118C42.9763 54.5306 42.302 55.2502 41.9215 56.1567C41.85 56.3271 41.6683 56.5917 41.5397 56.5805C41.4112 56.5694 40.9134 56.4015 40.9051 56.2812C40.8575 55.3911 41.2363 54.5658 41.9139 54.0838C42.4617 53.4517 43.3596 53.2928 44.1368 53.6901Z" fill="#455070"/>
<path d="M126.893 111.423C126.169 111.252 125.43 111.383 124.832 111.788C124.558 111.905 124.271 112.174 123.986 111.563C124.922 111.2 125.307 110.025 126.448 109.884C126.881 109.899 127.315 109.937 127.747 109.998L126.834 111.375L126.893 111.423Z" fill="#455070"/>
<path d="M44.6199 53.3298C45.1992 52.3701 45.2513 51.2191 46.5493 51.3293C46.6852 52.6862 46.6852 52.6862 44.6199 53.3298Z" fill="#455070"/>
<path d="M125.43 114.577C125.137 113.785 125.303 112.918 125.853 112.363C125.997 112.253 126.188 112.23 126.364 112.3C126.511 112.423 126.588 112.618 126.564 112.806C126.408 113.207 126.212 113.587 125.978 113.939C125.818 114.173 125.634 114.386 125.43 114.577Z" fill="#455070"/>
<path d="M59.9926 36.3318C60.4184 36.0996 60.8594 35.8962 61.3128 35.7229C61.6245 35.6846 61.9302 35.9042 61.7543 36.2102C61.5459 36.5347 61.2486 36.7827 60.8982 36.9245C60.545 37.0897 60.2212 36.9128 59.9926 36.3318Z" fill="#455070"/>
<path d="M116.985 111.437C116.837 112.329 116.626 112.57 116.087 112.381C115.884 112.311 115.578 111.932 115.621 111.819C115.811 111.165 116.327 111.222 116.985 111.437Z" fill="#455070"/>
<path d="M126.85 111.356C127.256 111.44 127.79 111.241 127.884 111.924C127.891 112.158 127.779 112.371 127.59 112.481C127.084 112.624 126.791 112.245 126.558 111.779C126.544 111.701 126.762 111.5 126.872 111.34L126.85 111.356Z" fill="#455070"/>
<path d="M21.4014 112.888C21.3827 113.508 21.3827 113.508 20.5928 113.712C20.78 113.112 20.78 113.112 21.4014 112.888Z" fill="#455070"/>
<path d="M143.533 113.173C143.26 112.687 143.405 112.443 143.916 112.354C144.108 112.81 144.012 113.048 143.533 113.173Z" fill="#455070"/>
<path d="M89.8271 127.176L90.524 127.212L90.5679 127.465L89.8543 127.553L89.8271 127.176Z" fill="#455070"/>
<path d="M50.3032 40.733L49.9142 40.9825L49.7561 40.7329L50.2086 40.5562L50.3032 40.733Z" fill="#455070"/>
<path d="M121.593 114.865C121.445 114.945 121.291 115.014 121.132 115.069C121.132 115.069 121.014 114.976 120.955 114.929C121.041 114.813 121.137 114.707 121.243 114.611C121.243 114.611 121.391 114.728 121.593 114.865Z" fill="#455070"/>
<path d="M94.2821 80.1881C93.7301 80.1881 93.4541 79.9361 93.4541 79.4321C93.4541 79.2161 93.4661 78.5321 93.4901 77.3801C93.5381 76.2281 93.5741 74.7521 93.5981 72.9521C93.6461 71.1521 93.6701 69.1841 93.6701 67.0481C93.6701 63.8321 93.5621 61.9001 93.3461 61.2521C93.3221 61.1081 93.3341 61.0121 93.3821 60.9641C93.4781 60.8681 93.5981 60.8441 93.7421 60.8921C93.9581 60.9401 94.2821 61.0481 94.7141 61.2161C95.1461 61.3841 95.6141 61.5641 96.1181 61.7561C96.6221 61.9241 97.0541 62.0921 97.4141 62.2601C97.6061 62.3561 97.8101 62.4041 98.0261 62.4041H99.3221C99.5141 62.4041 99.6701 62.3321 99.7901 62.1881C99.9341 62.0441 100.006 61.8881 100.006 61.7201V57.5801C100.006 57.3881 99.9341 57.2321 99.7901 57.1121C99.6701 56.9681 99.5141 56.8961 99.3221 56.8961H89.9981C89.3501 56.8961 88.7381 56.9081 88.1621 56.9321C87.5861 56.9561 87.1181 56.9921 86.7581 57.0401H86.6861C86.3021 57.0401 86.0501 56.8481 85.9301 56.4641L85.8581 56.1761L85.8221 56.0681C85.8221 55.9241 85.8701 55.8041 85.9661 55.7081C86.0861 55.6121 86.2061 55.5761 86.3261 55.6001C86.7581 55.6481 87.3101 55.6961 87.9821 55.7441C88.6541 55.7921 89.3261 55.8161 89.9981 55.8161H111.238C111.454 55.8161 111.622 55.8041 111.742 55.7801C111.886 55.7321 112.018 55.6241 112.138 55.4561C112.258 55.3121 112.414 55.1081 112.606 54.8441C112.798 54.5801 112.99 54.3161 113.182 54.0521C113.398 53.7641 113.554 53.5721 113.65 53.4761C113.77 53.2841 113.914 53.1881 114.082 53.1881C114.274 53.1881 114.55 53.2961 114.91 53.5121C115.294 53.7281 115.69 53.9921 116.098 54.3041C116.506 54.6161 116.878 54.9281 117.214 55.2401C117.55 55.5521 117.802 55.8041 117.97 55.9961C118.09 56.1641 118.15 56.3081 118.15 56.4281C118.15 56.7401 118.006 56.8961 117.718 56.8961H104.506C104.338 56.8961 104.182 56.9681 104.038 57.1121C103.918 57.2321 103.858 57.3881 103.858 57.5801V61.7201C103.858 61.8881 103.918 62.0441 104.038 62.1881C104.182 62.3321 104.338 62.4041 104.506 62.4041H105.946C106.138 62.4041 106.282 62.3201 106.378 62.1521L106.954 61.0721C107.098 60.8561 107.29 60.7961 107.53 60.8921C107.842 60.9881 108.238 61.1441 108.718 61.3601C109.198 61.5521 109.678 61.7561 110.158 61.9721C110.638 62.1881 111.022 62.3921 111.31 62.5841C111.454 62.6561 111.526 62.7881 111.526 62.9801C111.526 63.2201 111.43 63.4001 111.238 63.5201L110.878 63.7721C110.638 63.9161 110.482 64.0721 110.41 64.2401C110.338 64.4081 110.302 64.6241 110.302 64.8881V67.7321C110.302 68.9801 110.314 70.2161 110.338 71.4401C110.362 72.6641 110.374 73.7921 110.374 74.8241C110.398 75.8321 110.422 76.6601 110.446 77.3081C110.47 77.9561 110.482 78.3521 110.482 78.4961C110.482 78.7361 110.314 78.9401 109.978 79.1081C109.666 79.2761 109.258 79.4081 108.754 79.5041C108.274 79.6001 107.794 79.6481 107.314 79.6481C106.762 79.6481 106.486 79.3841 106.486 78.8561V78.0641C106.486 77.8721 106.426 77.7161 106.306 77.5961C106.186 77.4521 106.03 77.3801 105.838 77.3801H97.9901C97.8221 77.3801 97.6781 77.4521 97.5581 77.5961C97.4381 77.7161 97.3781 77.8721 97.3781 78.0641V79.0361C97.3781 79.2761 97.2101 79.4801 96.8741 79.6481C96.5621 79.8161 96.1661 79.9481 95.6861 80.0441C95.2301 80.1401 94.7621 80.1881 94.2821 80.1881ZM88.1621 85.5881C87.5621 85.5881 87.2621 85.3121 87.2621 84.7601C87.2621 84.6641 87.2741 84.2081 87.2981 83.3921C87.3221 82.6001 87.3461 81.5561 87.3701 80.2601C87.4181 78.9641 87.4541 77.5121 87.4781 75.9041C87.5021 74.2721 87.5141 72.5921 87.5141 70.8641V63.3401C87.5141 62.5721 87.4781 61.9601 87.4061 61.5041C87.3581 61.0481 87.2861 60.7361 87.1901 60.5681C87.1181 60.3521 87.1181 60.2081 87.1901 60.1361C87.2621 60.0401 87.3821 59.9921 87.5501 59.9921C87.8621 59.9921 88.3421 60.0281 88.9901 60.1001C89.6381 60.1721 90.2861 60.2561 90.9341 60.3521C91.6061 60.4481 92.0861 60.5321 92.3741 60.6041C92.6141 60.6521 92.7341 60.8081 92.7341 61.0721C92.7341 61.4321 92.5661 61.6361 92.2301 61.6841C91.7501 61.7561 91.5101 61.9841 91.5101 62.3681V81.3401C91.5101 81.7961 91.7261 82.0241 92.1581 82.0241H111.742C112.174 82.0241 112.39 81.7961 112.39 81.3401V63.3041C112.39 62.5361 112.354 61.9241 112.282 61.4681C112.234 61.0121 112.162 60.7001 112.066 60.5321C111.994 60.3401 111.994 60.1961 112.066 60.1001C112.162 60.0041 112.282 59.9561 112.426 59.9561C112.738 59.9561 113.218 60.0041 113.866 60.1001C114.514 60.1721 115.162 60.2561 115.81 60.3521C116.482 60.4241 116.962 60.4961 117.25 60.5681C117.418 60.5921 117.526 60.6641 117.574 60.7841C117.622 60.9041 117.646 61.0241 117.646 61.1441C117.622 61.4321 117.442 61.6001 117.106 61.6481C116.626 61.7201 116.386 61.9481 116.386 62.3321V66.6161C116.386 68.8001 116.398 70.8881 116.422 72.8801C116.47 74.8481 116.518 76.6241 116.566 78.2081C116.614 79.7921 116.65 81.1001 116.674 82.1321C116.722 83.1401 116.746 83.7761 116.746 84.0401C116.746 84.3041 116.566 84.5321 116.206 84.7241C115.846 84.9161 115.402 85.0601 114.874 85.1561C114.37 85.2521 113.854 85.3001 113.326 85.3001C112.702 85.3001 112.39 85.0241 112.39 84.4721V83.7521C112.39 83.5601 112.33 83.4041 112.21 83.2841C112.09 83.1641 111.934 83.1041 111.742 83.1041H92.1581C91.9901 83.1041 91.8341 83.1641 91.6901 83.2841C91.5701 83.4041 91.5101 83.5601 91.5101 83.7521V84.3641C91.5101 84.6041 91.3301 84.8201 90.9701 85.0121C90.6341 85.2041 90.2021 85.3481 89.6741 85.4441C89.1701 85.5401 88.6661 85.5881 88.1621 85.5881ZM97.9901 76.3001H99.3221C99.7781 76.3001 100.006 76.0841 100.006 75.6521V71.0081C100.006 70.8161 99.9341 70.6601 99.7901 70.5401C99.6701 70.3961 99.5141 70.3241 99.3221 70.3241H97.9901C97.8221 70.3241 97.6781 70.3961 97.5581 70.5401C97.4381 70.6601 97.3781 70.8161 97.3781 71.0081V75.6521C97.3781 76.0841 97.5821 76.3001 97.9901 76.3001ZM104.506 76.3001H105.838C106.27 76.3001 106.486 76.0841 106.486 75.6521V71.0081C106.486 70.8161 106.426 70.6601 106.306 70.5401C106.186 70.3961 106.03 70.3241 105.838 70.3241H104.506C104.338 70.3241 104.182 70.3961 104.038 70.5401C103.918 70.6601 103.858 70.8161 103.858 71.0081V75.6521C103.858 75.8201 103.918 75.9761 104.038 76.1201C104.182 76.2401 104.338 76.3001 104.506 76.3001ZM97.9901 69.2441H99.3221C99.7781 69.2441 100.006 69.0281 100.006 68.5961V64.1321C100.006 63.7001 99.7781 63.4841 99.3221 63.4841H97.9901C97.5821 63.4841 97.3781 63.7001 97.3781 64.1321V68.5961C97.3781 69.0281 97.5821 69.2441 97.9901 69.2441ZM104.506 69.2441H105.838C106.27 69.2441 106.486 69.0281 106.486 68.5961V64.1321C106.486 63.7001 106.27 63.4841 105.838 63.4841H104.506C104.338 63.4841 104.182 63.5441 104.038 63.6641C103.918 63.7841 103.858 63.9401 103.858 64.1321V68.5961C103.858 68.7641 103.918 68.9201 104.038 69.0641C104.182 69.1841 104.338 69.2441 104.506 69.2441ZM138.202 85.3001C138.154 85.3241 138.082 85.3361 137.986 85.3361C137.842 85.3361 137.734 85.2881 137.662 85.1921C137.518 84.9281 137.314 84.5081 137.05 83.9321C136.786 83.3561 136.522 82.7681 136.258 82.1681C135.994 81.5681 135.802 81.1001 135.682 80.7641C135.634 80.6441 135.658 80.5481 135.754 80.4761C135.778 80.4521 135.802 80.4401 135.826 80.4401C135.874 80.4401 135.91 80.4281 135.934 80.4041L136.798 80.2961C137.014 80.2481 137.23 80.2121 137.446 80.1881C137.686 80.1641 137.926 80.1401 138.166 80.1161C138.358 80.0921 138.514 80.0081 138.634 79.8641C138.754 79.7201 138.814 79.5641 138.814 79.3961V67.5161C138.814 65.9801 138.778 64.7681 138.706 63.8801C138.658 62.9681 138.586 62.3561 138.49 62.0441C138.466 61.9001 138.49 61.7921 138.562 61.7201C138.61 61.6721 138.658 61.6481 138.706 61.6481C138.802 61.6481 139.018 61.7081 139.354 61.8281C139.714 61.9481 140.122 62.1041 140.578 62.2961C141.058 62.4641 141.502 62.6441 141.91 62.8361C141.934 62.8601 141.97 62.8721 142.018 62.8721C142.138 62.8721 142.246 62.8361 142.342 62.7641C142.438 62.6681 142.486 62.5601 142.486 62.4401V62.3681C142.486 61.6721 142.45 61.1201 142.378 60.7121C142.33 60.2801 142.27 59.9801 142.198 59.8121C142.126 59.6921 142.126 59.5721 142.198 59.4521C142.246 59.3561 142.354 59.3081 142.522 59.3081C142.786 59.3081 143.218 59.3441 143.818 59.4161C144.418 59.4881 145.018 59.5721 145.618 59.6681C146.218 59.7401 146.65 59.8121 146.914 59.8841C147.154 59.9321 147.274 60.1121 147.274 60.4241C147.25 60.6641 147.094 60.8081 146.806 60.8561C146.35 60.9281 146.122 61.1441 146.122 61.5041V62.3321C146.122 62.4761 146.182 62.5601 146.302 62.5841C146.446 62.6081 146.554 62.5721 146.626 62.4761L146.914 61.9721C147.01 61.8041 147.13 61.7201 147.274 61.7201C147.322 61.7201 147.418 61.7441 147.562 61.7921C147.85 61.8881 148.198 62.0321 148.606 62.2241C149.014 62.3921 149.422 62.5721 149.83 62.7641C150.262 62.9561 150.598 63.1241 150.838 63.2681C151.054 63.4121 151.162 63.6041 151.162 63.8441C151.162 64.1321 151.018 64.3361 150.73 64.4561C150.586 64.5041 150.478 64.5641 150.406 64.6361C150.094 64.8281 149.938 65.2121 149.938 65.7881C149.938 66.4361 149.95 67.2041 149.974 68.0921C149.998 68.9801 150.01 69.8681 150.01 70.7561C150.034 71.6441 150.058 72.4001 150.082 73.0241C150.106 73.6481 150.118 74.0081 150.118 74.1041C150.118 74.4161 149.794 74.6801 149.146 74.8961C148.522 75.0881 147.874 75.1841 147.202 75.1841C146.698 75.1841 146.446 74.9441 146.446 74.4641V74.3921C146.446 74.2001 146.374 74.0441 146.23 73.9241C146.11 73.8041 145.954 73.7441 145.762 73.7441H143.098C142.93 73.7441 142.774 73.8041 142.63 73.9241C142.51 74.0441 142.45 74.2001 142.45 74.3921V79.0001C142.45 79.1681 142.51 79.3241 142.63 79.4681C142.774 79.5881 142.93 79.6361 143.098 79.6121C143.53 79.5641 143.95 79.5161 144.358 79.4681C144.79 79.4201 145.186 79.3841 145.546 79.3601C145.714 79.3361 145.834 79.2641 145.906 79.1441C146.002 79.0001 146.002 78.8561 145.906 78.7121C145.45 77.8001 144.73 76.9241 143.746 76.0841C143.554 75.9401 143.53 75.7841 143.674 75.6161C143.746 75.4241 143.902 75.3521 144.142 75.4001C145.342 75.7841 146.446 76.2401 147.454 76.7681C148.486 77.2961 149.314 77.9561 149.938 78.7481C150.562 79.5161 150.874 80.4641 150.874 81.5921C150.874 82.4081 150.598 83.0201 150.046 83.4281C149.518 83.8361 149.014 84.0401 148.534 84.0401C148.198 84.0401 147.898 83.9561 147.634 83.7881C147.394 83.6201 147.25 83.3801 147.202 83.0681C147.13 82.6841 147.058 82.3241 146.986 81.9881C146.914 81.6281 146.842 81.2921 146.77 80.9801C146.746 80.8121 146.65 80.6921 146.482 80.6201C146.314 80.5481 146.146 80.5481 145.978 80.6201C145.234 80.9321 144.442 81.2921 143.602 81.7001C142.762 82.1081 141.934 82.5161 141.118 82.9241C140.326 83.3081 139.63 83.6681 139.03 84.0041C138.79 84.1241 138.634 84.2321 138.562 84.3281C138.49 84.4241 138.478 84.5681 138.526 84.7601V84.8681C138.526 85.0361 138.418 85.1801 138.202 85.3001ZM152.566 85.5881C152.014 85.5881 151.738 85.3361 151.738 84.8321C151.738 84.5201 151.762 83.0321 151.81 80.3681C151.882 77.6801 151.918 73.6361 151.918 68.2361C151.918 65.7401 151.894 63.8801 151.846 62.6561C151.798 61.4321 151.714 60.6281 151.594 60.2441C151.546 60.1001 151.57 60.0041 151.666 59.9561C151.714 59.8841 151.798 59.8601 151.918 59.8841C152.158 59.9561 152.494 60.0881 152.926 60.2801C153.382 60.4481 153.862 60.6401 154.366 60.8561C154.87 61.0721 155.29 61.2641 155.626 61.4321C155.866 61.5521 156.106 61.6121 156.346 61.6121H157.786C158.05 61.6121 158.266 61.5281 158.434 61.3601L159.55 60.2081C159.67 60.0881 159.79 60.0281 159.91 60.0281C159.982 60.0281 160.09 60.0641 160.234 60.1361C160.546 60.3041 160.93 60.5561 161.386 60.8921C161.866 61.2281 162.322 61.5761 162.754 61.9361C163.21 62.2721 163.546 62.5481 163.762 62.7641C163.858 62.8601 163.906 62.9921 163.906 63.1601C163.906 63.2321 163.882 63.3401 163.834 63.4841C163.714 63.7241 163.534 63.8321 163.294 63.8081C162.982 63.7601 162.73 63.7841 162.538 63.8801C162.37 63.9521 162.166 64.1201 161.926 64.3841C161.566 64.7681 161.11 65.2841 160.558 65.9321C160.006 66.5561 159.466 67.1921 158.938 67.8401C158.434 68.4881 158.038 69.0161 157.75 69.4241C157.63 69.5681 157.57 69.7241 157.57 69.8921C157.57 70.0841 157.726 70.2521 158.038 70.3961C158.926 70.8281 159.778 71.3921 160.594 72.0881C161.434 72.7601 162.118 73.5281 162.646 74.3921C163.198 75.2561 163.474 76.1681 163.474 77.1281C163.474 78.6641 163.042 79.9721 162.178 81.0521C161.338 82.1321 160.042 82.7681 158.29 82.9601H158.218C158.05 82.9601 157.906 82.9121 157.786 82.8161C157.666 82.6961 157.606 82.5521 157.606 82.3841C157.558 81.6881 157.414 81.1721 157.174 80.8361C156.958 80.5001 156.622 80.2481 156.166 80.0801L156.022 80.0441C155.662 80.0441 155.482 80.2121 155.482 80.5481V84.4721C155.482 84.8081 155.17 85.0721 154.546 85.2641C153.922 85.4801 153.262 85.5881 152.566 85.5881ZM130.39 85.4081C130.222 85.2641 130.174 85.0961 130.246 84.9041C130.75 83.9201 131.182 82.8761 131.542 81.7721C131.902 80.6681 132.19 79.4081 132.406 77.9921C132.646 76.5761 132.814 74.9201 132.91 73.0241C133.03 71.1281 133.09 68.9201 133.09 66.4001C133.09 65.2961 133.066 64.1801 133.018 63.0521C132.994 61.9241 132.958 60.8681 132.91 59.8841C132.862 58.9001 132.802 58.0721 132.73 57.4001C132.658 56.7041 132.586 56.2601 132.514 56.0681C132.466 55.9241 132.49 55.8161 132.586 55.7441C132.658 55.6241 132.79 55.6001 132.982 55.6721C133.294 55.7441 133.69 55.8761 134.17 56.0681C134.674 56.2361 135.19 56.4401 135.718 56.6801C136.27 56.8961 136.762 57.1121 137.194 57.3281C137.434 57.4481 137.674 57.5081 137.914 57.5081H144.79C145.246 57.5081 145.474 57.2921 145.474 56.8601V55.7441C145.474 54.6161 145.366 53.8601 145.15 53.4761C145.078 53.3081 145.066 53.1641 145.114 53.0441C145.21 52.9241 145.342 52.8761 145.51 52.9001C145.75 52.9001 146.122 52.9241 146.626 52.9721C147.13 53.0201 147.67 53.0801 148.246 53.1521C148.822 53.2001 149.35 53.2601 149.83 53.3321C150.334 53.4041 150.694 53.4641 150.91 53.5121C151.174 53.5841 151.306 53.7521 151.306 54.0161C151.306 54.4001 151.126 54.6161 150.766 54.6641C150.262 54.6881 150.01 54.9161 150.01 55.3481V56.8601C150.01 57.0281 150.07 57.1841 150.19 57.3281C150.334 57.4481 150.49 57.5081 150.658 57.5081H156.562C156.73 57.5081 156.862 57.4961 156.958 57.4721C157.078 57.4241 157.198 57.3161 157.318 57.1481C157.414 57.0041 157.558 56.8001 157.75 56.5361C157.966 56.2721 158.17 56.0081 158.362 55.7441C158.578 55.4561 158.734 55.2641 158.83 55.1681C158.95 54.9761 159.094 54.8801 159.262 54.8801C159.55 54.8801 159.958 55.0601 160.486 55.4201C161.014 55.7561 161.53 56.1401 162.034 56.5721C162.562 57.0041 162.934 57.3761 163.15 57.6881C163.27 57.8561 163.33 58.0001 163.33 58.1201C163.33 58.4321 163.186 58.5881 162.898 58.5881H137.806C137.638 58.5881 137.482 58.6481 137.338 58.7681C137.218 58.8881 137.158 59.0441 137.158 59.2361V66.1121C137.158 68.8001 136.978 71.1401 136.618 73.1321C136.282 75.1241 135.814 76.8641 135.214 78.3521C134.614 79.8161 133.942 81.1121 133.198 82.2401C132.454 83.3681 131.698 84.4001 130.93 85.3361C130.762 85.5041 130.582 85.5281 130.39 85.4081ZM156.13 79.1081H157.354C157.978 79.1081 158.47 78.8321 158.83 78.2801C159.19 77.7041 159.37 76.9121 159.37 75.9041C159.37 74.9201 159.178 73.9841 158.794 73.0961C158.434 72.1841 157.786 71.4161 156.85 70.7921C156.586 70.6001 156.454 70.3601 156.454 70.0721C156.454 70.0001 156.454 69.9281 156.454 69.8561C156.478 69.7601 156.502 69.6641 156.526 69.5681C156.646 69.1601 156.79 68.5841 156.958 67.8401C157.126 67.0961 157.306 66.3161 157.498 65.5001C157.69 64.6841 157.87 63.9641 158.038 63.3401V63.2321C158.038 62.8721 157.87 62.6921 157.534 62.6921H156.13C155.698 62.6921 155.482 62.9201 155.482 63.3761V78.4601C155.482 78.6281 155.542 78.7841 155.662 78.9281C155.806 79.0481 155.962 79.1081 156.13 79.1081ZM143.098 72.6281H145.762C145.954 72.6281 146.11 72.5681 146.23 72.4481C146.374 72.3041 146.446 72.1481 146.446 71.9801V69.5681C146.446 69.3761 146.374 69.2201 146.23 69.1001C146.11 68.9801 145.954 68.9201 145.762 68.9201H143.098C142.93 68.9201 142.774 68.9801 142.63 69.1001C142.51 69.2201 142.45 69.3761 142.45 69.5681V71.9801C142.45 72.1481 142.51 72.3041 142.63 72.4481C142.774 72.5681 142.93 72.6281 143.098 72.6281ZM143.098 67.8401H145.762C145.954 67.8401 146.11 67.7681 146.23 67.6241C146.374 67.4801 146.446 67.3241 146.446 67.1561V64.9961C146.446 64.8041 146.374 64.6481 146.23 64.5281C146.11 64.4081 145.954 64.3481 145.762 64.3481H143.098C142.93 64.3481 142.774 64.4081 142.63 64.5281C142.51 64.6481 142.45 64.8041 142.45 64.9961V67.1561C142.45 67.3241 142.51 67.4801 142.63 67.6241C142.774 67.7681 142.93 67.8401 143.098 67.8401Z" fill="white"/>
</svg>
