<svg width="306" height="87" viewBox="0 0 306 87" fill="none" xmlns="http://www.w3.org/2000/svg">
<path d="M10.115 80.811C10.721 81.311 11.353 81.768 12 82.214C12.6484 81.7739 13.2773 81.3058 13.885 80.811C14.898 79.9792 15.8513 79.0773 16.738 78.112C18.782 75.877 21 72.637 21 69C21 67.8181 20.7672 66.6478 20.3149 65.5558C19.8626 64.4639 19.1997 63.4718 18.364 62.636C17.5282 61.8003 16.5361 61.1374 15.4442 60.6851C14.3522 60.2328 13.1819 60 12 60C10.8181 60 9.64778 60.2328 8.55585 60.6851C7.46392 61.1374 6.47177 61.8003 5.63604 62.636C4.80031 63.4718 4.13738 64.4639 3.68508 65.5558C3.23279 66.6478 3 67.8181 3 69C3 72.637 5.218 75.876 7.262 78.112C8.14862 79.0777 9.10196 79.9789 10.115 80.811ZM12 72.25C11.138 72.25 10.3114 71.9076 9.7019 71.2981C9.09241 70.6886 8.75 69.862 8.75 69C8.75 68.138 9.09241 67.3114 9.7019 66.7019C10.3114 66.0924 11.138 65.75 12 65.75C12.862 65.75 13.6886 66.0924 14.2981 66.7019C14.9076 67.3114 15.25 68.138 15.25 69C15.25 69.862 14.9076 70.6886 14.2981 71.2981C13.6886 71.9076 12.862 72.25 12 72.25Z" fill="#00B9F2"/>
<path d="M45.496 32V27.392H50.552V13.856H46.168V10.336C47.448 10.1013 48.536 9.81333 49.432 9.472C50.3493 9.13067 51.224 8.69333 52.056 8.16H56.248V27.392H60.536V32H45.496ZM75.428 32.448C74.3187 32.448 73.2307 32.224 72.164 31.776C71.0973 31.3067 70.1373 30.592 69.284 29.632C68.452 28.6507 67.78 27.392 67.268 25.856C66.7773 24.32 66.532 22.464 66.532 20.288C66.532 18.1333 66.788 16.2667 67.3 14.688C67.8333 13.1093 68.5373 11.808 69.412 10.784C70.308 9.76 71.3213 9.00267 72.452 8.512C73.5827 8 74.7667 7.744 76.004 7.744C77.5827 7.744 78.948 8.032 80.1 8.608C81.252 9.16267 82.2013 9.824 82.948 10.592L79.94 13.952C79.556 13.5253 79.0333 13.1413 78.372 12.8C77.7107 12.4587 77.0493 12.288 76.388 12.288C75.5133 12.288 74.724 12.544 74.02 13.056C73.316 13.5467 72.7507 14.3787 72.324 15.552C71.9187 16.704 71.716 18.2827 71.716 20.288C71.716 22.3573 71.8867 23.968 72.228 25.12C72.5907 26.2507 73.0387 27.0507 73.572 27.52C74.1267 27.968 74.7027 28.192 75.3 28.192C75.812 28.192 76.2707 28.064 76.676 27.808C77.1027 27.5307 77.444 27.1147 77.7 26.56C77.956 25.984 78.084 25.248 78.084 24.352C78.084 23.4773 77.9453 22.7947 77.668 22.304C77.412 21.792 77.0707 21.4293 76.644 21.216C76.2173 21.0027 75.7373 20.896 75.204 20.896C74.6067 20.896 73.9987 21.0667 73.38 21.408C72.7827 21.7493 72.2387 22.3573 71.748 23.232L71.492 19.552C71.876 18.976 72.3453 18.496 72.9 18.112C73.476 17.7067 74.0627 17.408 74.66 17.216C75.2787 17.0027 75.8227 16.896 76.292 16.896C77.6147 16.896 78.7987 17.1627 79.844 17.696C80.9107 18.208 81.7427 19.0187 82.34 20.128C82.9587 21.216 83.268 22.624 83.268 24.352C83.268 26.0373 82.9053 27.488 82.18 28.704C81.476 29.8987 80.5267 30.8267 79.332 31.488C78.1587 32.128 76.8573 32.448 75.428 32.448ZM100.848 4.64H105.648V12.416H100.848V4.64ZM95.248 24.672L98.8 22.432C99.4613 22.9227 100.155 23.488 100.88 24.128C101.627 24.7467 102.331 25.3653 102.992 25.984C103.675 26.6027 104.229 27.1787 104.656 27.712L100.848 30.24C100.485 29.728 99.984 29.152 99.344 28.512C98.7253 27.8507 98.0533 27.1893 97.328 26.528C96.6027 25.8453 95.9093 25.2267 95.248 24.672ZM96.016 17.408H111.728V21.44H96.016V17.408ZM98.736 13.888L103.6 15.552C102.704 16.832 101.648 18.0587 100.432 19.232C99.2373 20.4053 97.9467 21.4827 96.56 22.464C95.1733 23.424 93.7333 24.2453 92.24 24.928C92.0053 24.5653 91.7067 24.1493 91.344 23.68C90.9813 23.2107 90.608 22.752 90.224 22.304C89.8613 21.856 89.52 21.4827 89.2 21.184C90.544 20.672 91.8347 20.0213 93.072 19.232C94.3093 18.4427 95.4187 17.5893 96.4 16.672C97.4027 15.7333 98.1813 14.8053 98.736 13.888ZM110.288 17.408H111.248L112.08 17.248L115.376 19.2C114.373 21.504 113.083 23.5413 111.504 25.312C109.925 27.0827 108.123 28.608 106.096 29.888C104.091 31.168 101.915 32.2347 99.568 33.088C97.2427 33.9413 94.8 34.6133 92.24 35.104C92.0907 34.6987 91.856 34.2187 91.536 33.664C91.216 33.1093 90.864 32.5653 90.48 32.032C90.1173 31.4987 89.776 31.072 89.456 30.752C91.9307 30.3893 94.2667 29.8773 96.464 29.216C98.6827 28.5547 100.699 27.7227 102.512 26.72C104.347 25.696 105.925 24.48 107.248 23.072C108.571 21.664 109.584 20.0427 110.288 18.208V17.408ZM90.64 6.048H95.472V10.56H110.8V6.048H115.856V14.624H90.64V6.048ZM132.392 32V29.96C133.632 28.8267 134.719 27.7733 135.652 26.8C136.586 25.8267 137.312 24.92 137.832 24.08C138.352 23.2267 138.612 22.44 138.612 21.72C138.612 21.2667 138.532 20.8867 138.372 20.58C138.226 20.26 138.006 20.02 137.712 19.86C137.419 19.7 137.072 19.62 136.672 19.62C136.166 19.62 135.706 19.7667 135.292 20.06C134.892 20.34 134.512 20.6733 134.152 21.06L132.212 19.14C132.946 18.3533 133.686 17.7733 134.432 17.4C135.192 17.0267 136.099 16.84 137.152 16.84C138.112 16.84 138.959 17.0333 139.692 17.42C140.426 17.8067 140.999 18.3533 141.412 19.06C141.826 19.7533 142.032 20.5733 142.032 21.52C142.032 22.3733 141.812 23.2467 141.372 24.14C140.946 25.02 140.392 25.8933 139.712 26.76C139.032 27.6133 138.312 28.4267 137.552 29.2C137.926 29.1467 138.339 29.1 138.792 29.06C139.259 29.02 139.659 29 139.992 29H142.712V32H132.392ZM150.92 15.78H160.66V18.62H150.92V15.78ZM150.94 20.54H160.76V23.3H150.94V20.54ZM150.86 25.22H160.6V28.04H150.86V25.22ZM148.86 15.78H151.86V22.66C151.86 23.5267 151.807 24.4667 151.7 25.48C151.607 26.4933 151.427 27.52 151.16 28.56C150.893 29.5867 150.5 30.56 149.98 31.48C149.46 32.4 148.78 33.2067 147.94 33.9C147.793 33.7 147.58 33.46 147.3 33.18C147.033 32.9 146.747 32.6333 146.44 32.38C146.147 32.1267 145.893 31.9333 145.68 31.8C146.413 31.1867 146.993 30.5067 147.42 29.76C147.847 29.0133 148.16 28.2333 148.36 27.42C148.573 26.6067 148.707 25.7933 148.76 24.98C148.827 24.1667 148.86 23.3867 148.86 22.64V15.78ZM159.28 15.78H162.38V30.38C162.38 31.1933 162.273 31.8267 162.06 32.28C161.847 32.7333 161.487 33.08 160.98 33.32C160.447 33.5733 159.807 33.7267 159.06 33.78C158.327 33.8467 157.447 33.88 156.42 33.88C156.367 33.5867 156.273 33.2533 156.14 32.88C156.007 32.5067 155.86 32.1333 155.7 31.76C155.54 31.3867 155.38 31.0733 155.22 30.82C155.647 30.8467 156.093 30.8667 156.56 30.88C157.04 30.8933 157.467 30.9 157.84 30.9C158.227 30.9 158.5 30.9 158.66 30.9C158.887 30.9 159.047 30.86 159.14 30.78C159.233 30.6867 159.28 30.54 159.28 30.34V15.78ZM168.5 32V29.12H171.66V20.66H168.92V18.46C169.72 18.3133 170.4 18.1333 170.96 17.92C171.533 17.7067 172.08 17.4333 172.6 17.1H175.22V29.12H177.9V32H168.5ZM187.207 32.28C186.514 32.28 185.834 32.14 185.167 31.86C184.501 31.5667 183.901 31.12 183.367 30.52C182.847 29.9067 182.427 29.12 182.107 28.16C181.801 27.2 181.647 26.04 181.647 24.68C181.647 23.3333 181.807 22.1667 182.127 21.18C182.461 20.1933 182.901 19.38 183.447 18.74C184.007 18.1 184.641 17.6267 185.347 17.32C186.054 17 186.794 16.84 187.567 16.84C188.554 16.84 189.407 17.02 190.127 17.38C190.847 17.7267 191.441 18.14 191.907 18.62L190.027 20.72C189.787 20.4533 189.461 20.2133 189.047 20C188.634 19.7867 188.221 19.68 187.807 19.68C187.261 19.68 186.767 19.84 186.327 20.16C185.887 20.4667 185.534 20.9867 185.267 21.72C185.014 22.44 184.887 23.4267 184.887 24.68C184.887 25.9733 184.994 26.98 185.207 27.7C185.434 28.4067 185.714 28.9067 186.047 29.2C186.394 29.48 186.754 29.62 187.127 29.62C187.447 29.62 187.734 29.54 187.987 29.38C188.254 29.2067 188.467 28.9467 188.627 28.6C188.787 28.24 188.867 27.78 188.867 27.22C188.867 26.6733 188.781 26.2467 188.607 25.94C188.447 25.62 188.234 25.3933 187.967 25.26C187.701 25.1267 187.401 25.06 187.067 25.06C186.694 25.06 186.314 25.1667 185.927 25.38C185.554 25.5933 185.214 25.9733 184.907 26.52L184.747 24.22C184.987 23.86 185.281 23.56 185.627 23.32C185.987 23.0667 186.354 22.88 186.727 22.76C187.114 22.6267 187.454 22.56 187.747 22.56C188.574 22.56 189.314 22.7267 189.967 23.06C190.634 23.38 191.154 23.8867 191.527 24.58C191.914 25.26 192.107 26.14 192.107 27.22C192.107 28.2733 191.881 29.18 191.427 29.94C190.987 30.6867 190.394 31.2667 189.647 31.68C188.914 32.08 188.101 32.28 187.207 32.28ZM197.335 16.02H211.775V33.66H208.635V18.96H200.335V33.66H197.335V16.02ZM199.395 22.62H209.935V25.5H199.395V22.62ZM199.395 29.4H209.935V32.34H199.395V29.4Z" fill="black"/>
<path d="M35.04 80V77.72H38.928V65.432H35.76V63.68C36.592 63.536 37.312 63.352 37.92 63.128C38.544 62.904 39.112 62.632 39.624 62.312H41.712V77.72H45.144V80H35.04ZM49.6635 80V78.392C51.4075 76.84 52.8635 75.424 54.0315 74.144C55.1995 72.848 56.0715 71.648 56.6475 70.544C57.2395 69.44 57.5355 68.408 57.5355 67.448C57.5355 66.808 57.4235 66.248 57.1995 65.768C56.9915 65.272 56.6635 64.896 56.2155 64.64C55.7835 64.368 55.2315 64.232 54.5595 64.232C53.8715 64.232 53.2395 64.424 52.6635 64.808C52.0875 65.176 51.5595 65.632 51.0795 66.176L49.5195 64.64C50.2715 63.808 51.0635 63.16 51.8955 62.696C52.7435 62.232 53.7515 62 54.9195 62C55.9915 62 56.9275 62.224 57.7275 62.672C58.5275 63.104 59.1435 63.72 59.5755 64.52C60.0235 65.304 60.2475 66.232 60.2475 67.304C60.2475 68.44 59.9675 69.592 59.4075 70.76C58.8475 71.912 58.0795 73.08 57.1035 74.264C56.1275 75.432 55.0155 76.616 53.7675 77.816C54.2315 77.768 54.7195 77.728 55.2315 77.696C55.7595 77.648 56.2315 77.624 56.6475 77.624H61.0875V80H49.6635ZM70.791 62.648V65.48H81.495V62.648H70.791ZM68.535 60.656H83.895V67.472H68.535V60.656ZM65.607 69.344H86.703V71.408H65.607V69.344ZM70.215 73.688H82.215V75.752H70.215V73.688ZM81.543 73.688H83.967C83.967 73.688 83.959 73.752 83.943 73.88C83.943 74.008 83.935 74.152 83.919 74.312C83.903 74.456 83.879 74.584 83.847 74.696C83.687 75.976 83.503 77.056 83.295 77.936C83.103 78.8 82.887 79.488 82.647 80C82.423 80.512 82.159 80.904 81.855 81.176C81.551 81.448 81.215 81.632 80.847 81.728C80.479 81.84 80.039 81.912 79.527 81.944C79.095 81.96 78.511 81.96 77.775 81.944C77.039 81.944 76.255 81.928 75.423 81.896C75.407 81.56 75.327 81.184 75.183 80.768C75.039 80.368 74.855 80.016 74.631 79.712C75.463 79.792 76.271 79.848 77.055 79.88C77.839 79.896 78.407 79.904 78.759 79.904C79.047 79.904 79.271 79.896 79.431 79.88C79.607 79.848 79.767 79.776 79.911 79.664C80.135 79.504 80.335 79.2 80.511 78.752C80.703 78.304 80.879 77.696 81.039 76.928C81.215 76.144 81.375 75.168 81.519 74L81.543 73.688ZM70.743 70.184L73.191 70.52C73.015 71.096 72.823 71.704 72.615 72.344C72.407 72.984 72.199 73.6 71.991 74.192C71.783 74.784 71.591 75.304 71.415 75.752H68.799C69.023 75.256 69.247 74.688 69.471 74.048C69.711 73.408 69.935 72.752 70.143 72.08C70.367 71.408 70.567 70.776 70.743 70.184ZM91.695 65.768H98.367V68.072H91.695V65.768ZM101.007 59.768H103.407V79.04C103.407 79.728 103.319 80.264 103.143 80.648C102.983 81.032 102.695 81.328 102.279 81.536C101.879 81.744 101.343 81.88 100.671 81.944C100.015 82.008 99.215 82.04 98.271 82.04C98.239 81.816 98.175 81.552 98.079 81.248C97.983 80.944 97.879 80.64 97.767 80.336C97.655 80.032 97.535 79.768 97.407 79.544C98.095 79.56 98.719 79.576 99.279 79.592C99.855 79.592 100.247 79.584 100.455 79.568C100.647 79.568 100.783 79.536 100.863 79.472C100.959 79.392 101.007 79.248 101.007 79.04V59.768ZM97.599 65.768H98.055L98.463 65.696L99.975 66.248C99.607 68.376 99.063 70.312 98.343 72.056C97.639 73.784 96.807 75.296 95.847 76.592C94.903 77.888 93.863 78.944 92.727 79.76C92.599 79.584 92.423 79.384 92.199 79.16C91.991 78.936 91.767 78.72 91.527 78.512C91.287 78.288 91.071 78.12 90.879 78.008C91.999 77.272 93.007 76.336 93.903 75.2C94.799 74.048 95.559 72.728 96.183 71.24C96.823 69.736 97.295 68.08 97.599 66.272V65.768ZM103.263 65.168C103.727 66.48 104.303 67.76 104.991 69.008C105.679 70.256 106.463 71.424 107.343 72.512C108.223 73.6 109.191 74.576 110.247 75.44C111.303 76.288 112.431 76.992 113.631 77.552C113.455 77.696 113.255 77.896 113.031 78.152C112.823 78.392 112.615 78.648 112.407 78.92C112.215 79.176 112.055 79.416 111.927 79.64C110.711 78.984 109.575 78.176 108.519 77.216C107.463 76.24 106.495 75.144 105.615 73.928C104.751 72.712 103.975 71.4 103.287 69.992C102.599 68.584 101.999 67.128 101.487 65.624L103.263 65.168ZM109.551 64.136L111.663 65.6C111.055 66.24 110.415 66.904 109.743 67.592C109.071 68.28 108.391 68.936 107.703 69.56C107.031 70.184 106.399 70.728 105.807 71.192L104.223 69.944C104.799 69.448 105.415 68.864 106.071 68.192C106.727 67.52 107.359 66.832 107.967 66.128C108.591 65.424 109.119 64.76 109.551 64.136ZM128.919 79.136H136.695V81.104H128.919V79.136ZM130.047 62.12H136.263V64.064H130.047V62.12ZM128.031 73.208H137.679V81.896H135.495V75.128H130.119V81.968H128.031V73.208ZM135.471 62.12H135.879L136.287 62.024L137.727 62.648C137.279 64.136 136.687 65.496 135.951 66.728C135.215 67.96 134.375 69.072 133.431 70.064C132.487 71.04 131.463 71.896 130.359 72.632C129.271 73.368 128.143 73.984 126.975 74.48C126.831 74.224 126.631 73.928 126.375 73.592C126.135 73.24 125.903 72.968 125.679 72.776C126.735 72.376 127.767 71.848 128.775 71.192C129.799 70.52 130.751 69.744 131.631 68.864C132.511 67.984 133.279 67.008 133.935 65.936C134.591 64.864 135.103 63.72 135.471 62.504V62.12ZM130.311 59.72L132.471 60.248C132.119 61.336 131.695 62.392 131.199 63.416C130.703 64.44 130.151 65.392 129.543 66.272C128.951 67.136 128.319 67.904 127.647 68.576C127.535 68.432 127.367 68.272 127.143 68.096C126.935 67.904 126.711 67.72 126.471 67.544C126.247 67.352 126.055 67.2 125.895 67.088C126.855 66.224 127.719 65.144 128.487 63.848C129.271 62.536 129.879 61.16 130.311 59.72ZM130.071 63.272C130.423 64.104 130.879 64.96 131.439 65.84C132.015 66.72 132.695 67.568 133.479 68.384C134.279 69.2 135.183 69.944 136.191 70.616C137.199 71.288 138.319 71.84 139.551 72.272C139.407 72.416 139.239 72.608 139.047 72.848C138.871 73.072 138.703 73.304 138.543 73.544C138.383 73.768 138.247 73.984 138.135 74.192C136.903 73.68 135.775 73.048 134.751 72.296C133.743 71.544 132.839 70.72 132.039 69.824C131.255 68.928 130.567 68.016 129.975 67.088C129.399 66.144 128.927 65.24 128.559 64.376L130.071 63.272ZM117.999 70.352H119.871V79.064H117.999V70.352ZM120.087 62.648V66.368H123.999V62.648H120.087ZM118.071 60.704H126.111V68.336H118.071V60.704ZM121.455 67.472H123.495V78.32H121.455V67.472ZM116.847 78.776C117.663 78.616 118.599 78.424 119.655 78.2C120.711 77.976 121.823 77.728 122.991 77.456C124.175 77.184 125.351 76.912 126.519 76.64L126.735 78.656C125.055 79.072 123.375 79.488 121.695 79.904C120.031 80.304 118.543 80.656 117.231 80.96L116.847 78.776ZM122.223 71.528H126.327V73.52H122.223V71.528Z" fill="black"/>
<path d="M262.936 65.32L264.616 64.216C265.256 64.584 265.92 65.032 266.608 65.56C267.296 66.072 267.832 66.544 268.216 66.976L266.416 68.2C266.176 67.912 265.864 67.6 265.48 67.264C265.096 66.912 264.68 66.568 264.232 66.232C263.8 65.896 263.368 65.592 262.936 65.32ZM273.064 60.784H273.52L273.904 60.664L275.392 61.576C274.624 62.936 273.632 64.152 272.416 65.224C271.216 66.296 269.872 67.24 268.384 68.056C266.896 68.872 265.336 69.56 263.704 70.12C262.072 70.68 260.432 71.12 258.784 71.44C258.688 71.152 258.536 70.808 258.328 70.408C258.12 70.008 257.912 69.68 257.704 69.424C259.256 69.184 260.808 68.824 262.36 68.344C263.912 67.848 265.384 67.248 266.776 66.544C268.168 65.84 269.408 65.032 270.496 64.12C271.584 63.208 272.44 62.208 273.064 61.12V60.784ZM265.072 60.784H273.448V62.776H265.072V60.784ZM266.752 58.672L269.224 59.248C268.12 60.512 266.808 61.72 265.288 62.872C263.768 64.024 262 65.064 259.984 65.992C259.872 65.816 259.72 65.624 259.528 65.416C259.352 65.208 259.168 65.016 258.976 64.84C258.784 64.648 258.6 64.496 258.424 64.384C259.72 63.872 260.896 63.296 261.952 62.656C263.024 62.016 263.96 61.36 264.76 60.688C265.56 60 266.224 59.328 266.752 58.672ZM266.2 74.368L268.048 73.288C268.464 73.576 268.896 73.896 269.344 74.248C269.808 74.6 270.24 74.96 270.64 75.328C271.056 75.68 271.392 76.008 271.648 76.312L269.656 77.512C269.416 77.224 269.104 76.896 268.72 76.528C268.336 76.144 267.92 75.768 267.472 75.4C267.024 75.016 266.6 74.672 266.2 74.368ZM276.328 69.424H276.808L277.24 69.328L278.776 70.24C277.944 72.032 276.832 73.568 275.44 74.848C274.048 76.112 272.456 77.16 270.664 77.992C268.888 78.824 266.96 79.48 264.88 79.96C262.816 80.456 260.688 80.824 258.496 81.064C258.432 80.856 258.352 80.616 258.256 80.344C258.16 80.072 258.056 79.8 257.944 79.528C257.832 79.272 257.712 79.056 257.584 78.88C259.664 78.704 261.68 78.416 263.632 78.016C265.584 77.6 267.392 77.032 269.056 76.312C270.72 75.592 272.176 74.696 273.424 73.624C274.672 72.552 275.64 71.264 276.328 69.76V69.424ZM269.008 69.424H276.904V71.464H269.008V69.424ZM270.688 67.144L273.184 67.72C272.368 68.712 271.416 69.68 270.328 70.624C269.24 71.568 268.008 72.448 266.632 73.264C265.256 74.064 263.712 74.792 262 75.448C261.92 75.272 261.792 75.08 261.616 74.872C261.456 74.648 261.288 74.432 261.112 74.224C260.936 74.016 260.768 73.848 260.608 73.72C262.24 73.144 263.704 72.504 265 71.8C266.296 71.08 267.416 70.328 268.36 69.544C269.32 68.744 270.096 67.944 270.688 67.144ZM285.856 60.52H302.2V62.848H285.856V60.52ZM283.168 67.264H304.696V69.592H283.168V67.264ZM296.584 72.496L298.672 71.416C299.344 72.312 300.032 73.272 300.736 74.296C301.44 75.304 302.104 76.288 302.728 77.248C303.352 78.208 303.856 79.064 304.24 79.816L302.056 81.136C301.688 80.368 301.192 79.488 300.568 78.496C299.96 77.488 299.304 76.456 298.6 75.4C297.912 74.344 297.24 73.376 296.584 72.496ZM285.232 80.152C285.2 79.976 285.128 79.736 285.016 79.432C284.92 79.128 284.808 78.816 284.68 78.496C284.568 78.16 284.456 77.872 284.344 77.632C284.664 77.552 284.968 77.368 285.256 77.08C285.544 76.776 285.88 76.384 286.264 75.904C286.472 75.68 286.76 75.304 287.128 74.776C287.512 74.248 287.936 73.616 288.4 72.88C288.864 72.128 289.328 71.328 289.792 70.48C290.256 69.632 290.672 68.776 291.04 67.912L293.872 68.8C293.216 70.048 292.496 71.28 291.712 72.496C290.944 73.696 290.152 74.832 289.336 75.904C288.52 76.96 287.72 77.912 286.936 78.76V78.808C286.936 78.808 286.848 78.856 286.672 78.952C286.512 79.048 286.32 79.16 286.096 79.288C285.872 79.432 285.672 79.576 285.496 79.72C285.32 79.88 285.232 80.024 285.232 80.152ZM285.232 80.152L285.208 78.208L286.84 77.296L300.952 76.312C301 76.664 301.072 77.056 301.168 77.488C301.28 77.904 301.368 78.248 301.432 78.52C299.192 78.696 297.256 78.856 295.624 79C294.008 79.128 292.632 79.24 291.496 79.336C290.376 79.448 289.448 79.536 288.712 79.6C287.992 79.664 287.408 79.72 286.96 79.768C286.512 79.832 286.16 79.888 285.904 79.936C285.664 80 285.44 80.072 285.232 80.152Z" fill="black"/>
<path d="M14.25 16.833H11.0833V19.9997H14.25V16.833ZM20.5833 16.833H17.4167V19.9997H20.5833V16.833ZM26.9167 16.833H23.75V19.9997H26.9167V16.833ZM30.0833 5.74967H28.5V2.58301H25.3333V5.74967H12.6667V2.58301H9.5V5.74967H7.91667C7.07681 5.74967 6.27136 6.0833 5.6775 6.67717C5.08363 7.27103 4.75 8.07649 4.75 8.91634V31.083C4.75 31.9229 5.08363 32.7283 5.6775 33.3222C6.27136 33.916 7.07681 34.2497 7.91667 34.2497H30.0833C30.9232 34.2497 31.7286 33.916 32.3225 33.3222C32.9164 32.7283 33.25 31.9229 33.25 31.083V8.91634C33.25 8.07649 32.9164 7.27103 32.3225 6.67717C31.7286 6.0833 30.9232 5.74967 30.0833 5.74967ZM30.0833 31.083H7.91667V13.6663H30.0833V31.083Z" fill="#00B9F2"/>
<path d="M240.625 79.2501H228.438C226.92 79.2501 225.614 78.8484 224.66 78.089C223.574 77.2241 223 75.9402 223 74.3751C223 71.6765 224.969 70.1291 227.104 69.6524C227.245 69.6204 227.373 69.5486 227.474 69.4456C227.575 69.3426 227.644 69.2128 227.673 69.0716C228.032 67.3523 228.819 65.8771 229.978 64.7591C231.327 63.462 233.128 62.7414 235 62.7501C236.664 62.7501 238.199 63.298 239.438 64.3345C240.285 65.049 240.959 65.9466 241.409 66.9595C241.458 67.0682 241.531 67.1638 241.624 67.2385C241.717 67.3131 241.826 67.3647 241.942 67.3888C243.208 67.6518 244.336 68.2012 245.185 68.9755C246.372 70.057 247 71.5354 247 73.2501C247 74.9376 246.326 76.4788 245.102 77.5902C243.923 78.6609 242.333 79.2501 240.625 79.2501Z" fill="#00B9F2"/>
</svg>
