<svg width="378" height="89" viewBox="0 0 378 89" fill="none" xmlns="http://www.w3.org/2000/svg">
<path d="M16.25 19.833H13.0833V22.9997H16.25V19.833ZM22.5833 19.833H19.4167V22.9997H22.5833V19.833ZM28.9167 19.833H25.75V22.9997H28.9167V19.833ZM32.0833 8.74967H30.5V5.58301H27.3333V8.74967H14.6667V5.58301H11.5V8.74967H9.91667C9.07681 8.74967 8.27136 9.0833 7.6775 9.67717C7.08363 10.271 6.75 11.0765 6.75 11.9163V34.083C6.75 34.9229 7.08363 35.7283 7.6775 36.3222C8.27136 36.916 9.07681 37.2497 9.91667 37.2497H32.0833C32.9232 37.2497 33.7286 36.916 34.3225 36.3222C34.9164 35.7283 35.25 34.9229 35.25 34.083V11.9163C35.25 11.0765 34.9164 10.271 34.3225 9.67717C33.7286 9.0833 32.9232 8.74967 32.0833 8.74967ZM32.0833 34.083H9.91667V16.6663H32.0833V34.083Z" fill="#00B9F2"/>
<path d="M45.496 32V27.392H50.552V13.856H46.168V10.336C47.448 10.1013 48.536 9.81333 49.432 9.472C50.3493 9.13067 51.224 8.69333 52.056 8.16H56.248V27.392H60.536V32H45.496ZM70.788 32C70.8947 30.0373 71.0653 28.2347 71.3 26.592C71.556 24.928 71.908 23.3493 72.356 21.856C72.804 20.3627 73.4013 18.8907 74.148 17.44C74.8947 15.9893 75.8227 14.4853 76.932 12.928H66.692V8.16H83.012V11.648C81.6467 13.2693 80.548 14.816 79.716 16.288C78.9053 17.76 78.2867 19.264 77.86 20.8C77.4333 22.3147 77.124 23.9787 76.932 25.792C76.7613 27.6053 76.6227 29.6747 76.516 32H70.788ZM100.848 4.64H105.648V12.416H100.848V4.64ZM95.248 24.672L98.8 22.432C99.4613 22.9227 100.155 23.488 100.88 24.128C101.627 24.7467 102.331 25.3653 102.992 25.984C103.675 26.6027 104.229 27.1787 104.656 27.712L100.848 30.24C100.485 29.728 99.984 29.152 99.344 28.512C98.7253 27.8507 98.0533 27.1893 97.328 26.528C96.6027 25.8453 95.9093 25.2267 95.248 24.672ZM96.016 17.408H111.728V21.44H96.016V17.408ZM98.736 13.888L103.6 15.552C102.704 16.832 101.648 18.0587 100.432 19.232C99.2373 20.4053 97.9467 21.4827 96.56 22.464C95.1733 23.424 93.7333 24.2453 92.24 24.928C92.0053 24.5653 91.7067 24.1493 91.344 23.68C90.9813 23.2107 90.608 22.752 90.224 22.304C89.8613 21.856 89.52 21.4827 89.2 21.184C90.544 20.672 91.8347 20.0213 93.072 19.232C94.3093 18.4427 95.4187 17.5893 96.4 16.672C97.4027 15.7333 98.1813 14.8053 98.736 13.888ZM110.288 17.408H111.248L112.08 17.248L115.376 19.2C114.373 21.504 113.083 23.5413 111.504 25.312C109.925 27.0827 108.123 28.608 106.096 29.888C104.091 31.168 101.915 32.2347 99.568 33.088C97.2427 33.9413 94.8 34.6133 92.24 35.104C92.0907 34.6987 91.856 34.2187 91.536 33.664C91.216 33.1093 90.864 32.5653 90.48 32.032C90.1173 31.4987 89.776 31.072 89.456 30.752C91.9307 30.3893 94.2667 29.8773 96.464 29.216C98.6827 28.5547 100.699 27.7227 102.512 26.72C104.347 25.696 105.925 24.48 107.248 23.072C108.571 21.664 109.584 20.0427 110.288 18.208V17.408ZM90.64 6.048H95.472V10.56H110.8V6.048H115.856V14.624H90.64V6.048ZM138.252 32V23.4C138.252 22.9333 138.266 22.3867 138.292 21.76C138.332 21.12 138.359 20.56 138.372 20.08H138.292C138.106 20.5067 137.912 20.9333 137.712 21.36C137.512 21.7867 137.306 22.2133 137.092 22.64L135.392 25.58H143.212V28.28H131.992V25.82L137.172 17.1H141.572V32H138.252ZM150.92 15.78H160.66V18.62H150.92V15.78ZM150.94 20.54H160.76V23.3H150.94V20.54ZM150.86 25.22H160.6V28.04H150.86V25.22ZM148.86 15.78H151.86V22.66C151.86 23.5267 151.807 24.4667 151.7 25.48C151.607 26.4933 151.427 27.52 151.16 28.56C150.893 29.5867 150.5 30.56 149.98 31.48C149.46 32.4 148.78 33.2067 147.94 33.9C147.793 33.7 147.58 33.46 147.3 33.18C147.033 32.9 146.747 32.6333 146.44 32.38C146.147 32.1267 145.893 31.9333 145.68 31.8C146.413 31.1867 146.993 30.5067 147.42 29.76C147.847 29.0133 148.16 28.2333 148.36 27.42C148.573 26.6067 148.707 25.7933 148.76 24.98C148.827 24.1667 148.86 23.3867 148.86 22.64V15.78ZM159.28 15.78H162.38V30.38C162.38 31.1933 162.273 31.8267 162.06 32.28C161.847 32.7333 161.487 33.08 160.98 33.32C160.447 33.5733 159.807 33.7267 159.06 33.78C158.327 33.8467 157.447 33.88 156.42 33.88C156.367 33.5867 156.273 33.2533 156.14 32.88C156.007 32.5067 155.86 32.1333 155.7 31.76C155.54 31.3867 155.38 31.0733 155.22 30.82C155.647 30.8467 156.093 30.8667 156.56 30.88C157.04 30.8933 157.467 30.9 157.84 30.9C158.227 30.9 158.5 30.9 158.66 30.9C158.887 30.9 159.047 30.86 159.14 30.78C159.233 30.6867 159.28 30.54 159.28 30.34V15.78ZM167.78 32V29.96C169.02 28.8267 170.107 27.7733 171.04 26.8C171.973 25.8267 172.7 24.92 173.22 24.08C173.74 23.2267 174 22.44 174 21.72C174 21.2667 173.92 20.8867 173.76 20.58C173.613 20.26 173.393 20.02 173.1 19.86C172.807 19.7 172.46 19.62 172.06 19.62C171.553 19.62 171.093 19.7667 170.68 20.06C170.28 20.34 169.9 20.6733 169.54 21.06L167.6 19.14C168.333 18.3533 169.073 17.7733 169.82 17.4C170.58 17.0267 171.487 16.84 172.54 16.84C173.5 16.84 174.347 17.0333 175.08 17.42C175.813 17.8067 176.387 18.3533 176.8 19.06C177.213 19.7533 177.42 20.5733 177.42 21.52C177.42 22.3733 177.2 23.2467 176.76 24.14C176.333 25.02 175.78 25.8933 175.1 26.76C174.42 27.6133 173.7 28.4267 172.94 29.2C173.313 29.1467 173.727 29.1 174.18 29.06C174.647 29.02 175.047 29 175.38 29H178.1V32H167.78ZM186.427 32.28C185.641 32.28 184.927 32.1867 184.287 32C183.647 31.8267 183.074 31.5867 182.567 31.28C182.074 30.96 181.627 30.6067 181.227 30.22L182.847 27.98C183.127 28.2467 183.427 28.4867 183.747 28.7C184.067 28.9133 184.407 29.0867 184.767 29.22C185.141 29.34 185.521 29.4 185.907 29.4C186.387 29.4 186.801 29.3133 187.147 29.14C187.494 28.9667 187.761 28.7067 187.947 28.36C188.147 28.0133 188.247 27.5867 188.247 27.08C188.247 26.3333 188.041 25.7667 187.627 25.38C187.227 24.98 186.707 24.78 186.067 24.78C185.654 24.78 185.307 24.8333 185.027 24.94C184.761 25.0333 184.407 25.22 183.967 25.5L182.407 24.48L182.787 17.1H191.147V20.08H185.847L185.627 22.6C185.894 22.4933 186.147 22.42 186.387 22.38C186.627 22.3267 186.887 22.3 187.167 22.3C188.007 22.3 188.781 22.4667 189.487 22.8C190.194 23.1333 190.754 23.6467 191.167 24.34C191.594 25.0333 191.807 25.92 191.807 27C191.807 28.1067 191.554 29.06 191.047 29.86C190.554 30.6467 189.901 31.2467 189.087 31.66C188.274 32.0733 187.387 32.28 186.427 32.28ZM197.335 16.02H211.775V33.66H208.635V18.96H200.335V33.66H197.335V16.02ZM199.395 22.62H209.935V25.5H199.395V22.62ZM199.395 29.4H209.935V32.34H199.395V29.4Z" fill="black"/>
<path d="M25.424 61.136L27.104 62.912C25.984 63.6 24.72 64.24 23.312 64.832C21.904 65.424 20.432 65.96 18.896 66.44C17.36 66.92 15.832 67.36 14.312 67.76C14.264 67.488 14.152 67.184 13.976 66.848C13.816 66.496 13.656 66.2 13.496 65.96C14.6 65.672 15.712 65.352 16.832 65C17.952 64.648 19.04 64.264 20.096 63.848C21.152 63.432 22.136 63 23.048 62.552C23.96 62.088 24.752 61.616 25.424 61.136ZM17.624 60.08H19.904V68.384C19.904 68.784 19.976 69.048 20.12 69.176C20.264 69.288 20.6 69.344 21.128 69.344C21.256 69.344 21.472 69.344 21.776 69.344C22.08 69.344 22.416 69.344 22.784 69.344C23.168 69.344 23.52 69.344 23.84 69.344C24.16 69.344 24.4 69.344 24.56 69.344C24.864 69.344 25.088 69.28 25.232 69.152C25.376 69.024 25.48 68.776 25.544 68.408C25.624 68.04 25.68 67.496 25.712 66.776C25.968 66.952 26.288 67.12 26.672 67.28C27.072 67.424 27.416 67.536 27.704 67.616C27.624 68.576 27.488 69.328 27.296 69.872C27.104 70.4 26.808 70.776 26.408 71C26.008 71.208 25.456 71.312 24.752 71.312C24.64 71.312 24.448 71.312 24.176 71.312C23.92 71.312 23.624 71.312 23.288 71.312C22.952 71.312 22.616 71.312 22.28 71.312C21.944 71.312 21.648 71.312 21.392 71.312C21.136 71.312 20.952 71.312 20.84 71.312C19.992 71.312 19.336 71.224 18.872 71.048C18.408 70.872 18.08 70.576 17.888 70.16C17.712 69.728 17.624 69.136 17.624 68.384V60.08ZM12.56 59.696L14.696 60.44C14.12 61.416 13.44 62.368 12.656 63.296C11.872 64.208 11.048 65.064 10.184 65.864C9.32 66.648 8.448 67.336 7.568 67.928C7.456 67.784 7.304 67.608 7.112 67.4C6.92 67.176 6.712 66.96 6.488 66.752C6.28 66.528 6.096 66.352 5.936 66.224C6.8 65.712 7.64 65.112 8.456 64.424C9.272 63.736 10.032 62.992 10.736 62.192C11.456 61.376 12.064 60.544 12.56 59.696ZM10.136 63.68L11.696 62.12L12.392 62.312V71.912H10.136V63.68ZM15.8 71.888H18.2V82.016H15.8V71.888ZM6.176 74.624H27.848V76.832H6.176V74.624ZM35.552 70.568L37.304 69.872C37.608 70.368 37.912 70.904 38.216 71.48C38.52 72.056 38.8 72.624 39.056 73.184C39.328 73.728 39.544 74.208 39.704 74.624L37.856 75.464C37.712 75.016 37.512 74.512 37.256 73.952C37 73.392 36.72 72.816 36.416 72.224C36.128 71.616 35.84 71.064 35.552 70.568ZM46.088 70.76L47.768 70.088C48.088 70.584 48.4 71.12 48.704 71.696C49.008 72.256 49.296 72.8 49.568 73.328C49.84 73.856 50.056 74.328 50.216 74.744L48.464 75.56C48.304 75.128 48.088 74.64 47.816 74.096C47.56 73.536 47.28 72.968 46.976 72.392C46.672 71.8 46.376 71.256 46.088 70.76ZM32.12 61.088H53.744V63.272H32.12V61.088ZM33.368 65.408H40.76V67.496H35.48V81.992H33.368V65.408ZM43.808 65.408H51.512V67.496H45.92V81.992H43.808V65.408ZM39.704 65.408H41.936V79.376C41.936 79.936 41.872 80.376 41.744 80.696C41.632 81.032 41.4 81.296 41.048 81.488C40.712 81.664 40.288 81.776 39.776 81.824C39.264 81.872 38.64 81.896 37.904 81.896C37.872 81.592 37.792 81.224 37.664 80.792C37.552 80.36 37.416 79.992 37.256 79.688C37.704 79.704 38.12 79.72 38.504 79.736C38.904 79.736 39.176 79.736 39.32 79.736C39.576 79.736 39.704 79.608 39.704 79.352V65.408ZM50.384 65.408H52.664V79.4C52.664 79.96 52.6 80.408 52.472 80.744C52.344 81.08 52.104 81.336 51.752 81.512C51.4 81.688 50.952 81.792 50.408 81.824C49.864 81.872 49.2 81.896 48.416 81.896C48.384 81.592 48.312 81.232 48.2 80.816C48.088 80.4 47.96 80.048 47.816 79.76C48.28 79.776 48.72 79.784 49.136 79.784C49.568 79.784 49.856 79.784 50 79.784C50.256 79.768 50.384 79.632 50.384 79.376V65.408ZM58.28 66.44H79.496V68.792H58.28V66.44ZM70.232 67.376C70.744 69.264 71.432 71.024 72.296 72.656C73.176 74.288 74.248 75.72 75.512 76.952C76.792 78.168 78.272 79.128 79.952 79.832C79.76 79.992 79.552 80.2 79.328 80.456C79.12 80.712 78.92 80.968 78.728 81.224C78.536 81.496 78.376 81.736 78.248 81.944C76.472 81.112 74.92 80.016 73.592 78.656C72.28 77.28 71.168 75.688 70.256 73.88C69.344 72.072 68.576 70.088 67.952 67.928L70.232 67.376ZM67.592 59.744H70.064C70.064 60.88 70.032 62.104 69.968 63.416C69.92 64.712 69.8 66.048 69.608 67.424C69.416 68.8 69.104 70.176 68.672 71.552C68.24 72.928 67.64 74.256 66.872 75.536C66.104 76.816 65.12 78.008 63.92 79.112C62.72 80.2 61.256 81.152 59.528 81.968C59.336 81.664 59.08 81.328 58.76 80.96C58.44 80.608 58.12 80.312 57.8 80.072C59.464 79.32 60.864 78.448 62 77.456C63.152 76.448 64.08 75.36 64.784 74.192C65.504 73.008 66.056 71.784 66.44 70.52C66.824 69.256 67.096 67.992 67.256 66.728C67.416 65.464 67.512 64.24 67.544 63.056C67.576 61.872 67.592 60.768 67.592 59.744ZM84.392 61.304H105.2V65.216H103.04V63.056H86.48V65.216H84.392V61.304ZM90.176 63.536H92.288V70.376H90.176V63.536ZM97.28 63.536H99.392V70.376H97.28V63.536ZM86.672 64.544H102.872V65.864H86.672V64.544ZM87.008 67.088H102.632V68.336H87.008V67.088ZM84.176 69.608H105.416V71.24H84.176V69.608ZM90.536 69.992L92.192 70.688C91.648 71.392 90.976 72.064 90.176 72.704C89.376 73.328 88.512 73.896 87.584 74.408C86.672 74.904 85.752 75.312 84.824 75.632C84.68 75.376 84.472 75.088 84.2 74.768C83.944 74.432 83.704 74.168 83.48 73.976C84.376 73.72 85.264 73.392 86.144 72.992C87.04 72.592 87.872 72.136 88.64 71.624C89.408 71.112 90.04 70.568 90.536 69.992ZM99.272 69.968C99.752 70.496 100.352 71.008 101.072 71.504C101.792 71.984 102.584 72.416 103.448 72.8C104.328 73.168 105.208 73.456 106.088 73.664C105.848 73.872 105.584 74.152 105.296 74.504C105.024 74.84 104.816 75.144 104.672 75.416C103.776 75.128 102.88 74.744 101.984 74.264C101.104 73.768 100.288 73.208 99.536 72.584C98.8 71.96 98.168 71.304 97.64 70.616L99.272 69.968ZM93.296 60.104L95.528 59.504C95.752 59.84 95.968 60.224 96.176 60.656C96.384 61.072 96.528 61.432 96.608 61.736L94.256 62.432C94.192 62.112 94.064 61.736 93.872 61.304C93.68 60.856 93.488 60.456 93.296 60.104ZM87.896 72.8H101.864V78.296H99.704V74.504H89.96V78.488H87.896V72.8ZM93.848 75.056H96.104C95.88 76.144 95.536 77.08 95.072 77.864C94.624 78.632 93.984 79.288 93.152 79.832C92.32 80.36 91.24 80.792 89.912 81.128C88.584 81.464 86.944 81.736 84.992 81.944C84.928 81.688 84.808 81.384 84.632 81.032C84.456 80.696 84.28 80.416 84.104 80.192C85.912 80.048 87.408 79.856 88.592 79.616C89.776 79.36 90.72 79.032 91.424 78.632C92.128 78.232 92.664 77.744 93.032 77.168C93.416 76.576 93.688 75.872 93.848 75.056ZM95.192 78.848L96.344 77.432C97.08 77.608 97.864 77.816 98.696 78.056C99.544 78.296 100.384 78.544 101.216 78.8C102.064 79.056 102.856 79.32 103.592 79.592C104.344 79.848 104.992 80.096 105.536 80.336L104.288 81.992C103.776 81.752 103.16 81.488 102.44 81.2C101.72 80.912 100.944 80.624 100.112 80.336C99.28 80.064 98.44 79.8 97.592 79.544C96.744 79.288 95.944 79.056 95.192 78.848ZM110.12 66.44H131.336V68.792H110.12V66.44ZM122.072 67.376C122.584 69.264 123.272 71.024 124.136 72.656C125.016 74.288 126.088 75.72 127.352 76.952C128.632 78.168 130.112 79.128 131.792 79.832C131.6 79.992 131.392 80.2 131.168 80.456C130.96 80.712 130.76 80.968 130.568 81.224C130.376 81.496 130.216 81.736 130.088 81.944C128.312 81.112 126.76 80.016 125.432 78.656C124.12 77.28 123.008 75.688 122.096 73.88C121.184 72.072 120.416 70.088 119.792 67.928L122.072 67.376ZM119.432 59.744H121.904C121.904 60.88 121.872 62.104 121.808 63.416C121.76 64.712 121.64 66.048 121.448 67.424C121.256 68.8 120.944 70.176 120.512 71.552C120.08 72.928 119.48 74.256 118.712 75.536C117.944 76.816 116.96 78.008 115.76 79.112C114.56 80.2 113.096 81.152 111.368 81.968C111.176 81.664 110.92 81.328 110.6 80.96C110.28 80.608 109.96 80.312 109.64 80.072C111.304 79.32 112.704 78.448 113.84 77.456C114.992 76.448 115.92 75.36 116.624 74.192C117.344 73.008 117.896 71.784 118.28 70.52C118.664 69.256 118.936 67.992 119.096 66.728C119.256 65.464 119.352 64.24 119.384 63.056C119.416 61.872 119.432 60.768 119.432 59.744ZM136.904 60.656H147.8V62.672H136.904V60.656ZM136.088 65.624H148.304V67.64H136.088V65.624ZM135.728 79.112H157.448V81.2H135.728V79.112ZM138.2 74.48H154.976V76.544H138.2V74.48ZM143.672 61.472H145.784V72.56H143.672V61.472ZM145.496 72.128H147.824V80.6H145.496V72.128ZM149.6 61.112H151.688V69.2H149.6V61.112ZM154.04 59.936H156.2V70.496C156.2 71.072 156.128 71.512 155.984 71.816C155.856 72.12 155.584 72.36 155.168 72.536C154.784 72.68 154.288 72.776 153.68 72.824C153.072 72.872 152.344 72.896 151.496 72.896C151.448 72.592 151.352 72.248 151.208 71.864C151.08 71.48 150.936 71.144 150.776 70.856C151.4 70.872 151.976 70.888 152.504 70.904C153.032 70.904 153.384 70.896 153.56 70.88C153.752 70.864 153.88 70.832 153.944 70.784C154.008 70.72 154.04 70.608 154.04 70.448V59.936ZM139.016 61.496H141.104V65.672C141.104 66.52 141.008 67.408 140.816 68.336C140.624 69.248 140.248 70.128 139.688 70.976C139.128 71.824 138.312 72.56 137.24 73.184C137.144 73.04 137 72.864 136.808 72.656C136.632 72.448 136.448 72.248 136.256 72.056C136.064 71.864 135.896 71.712 135.752 71.6C136.728 71.04 137.44 70.432 137.888 69.776C138.352 69.104 138.656 68.408 138.8 67.688C138.944 66.968 139.016 66.272 139.016 65.6V61.496ZM164.384 62.648H183.44V64.832H164.384V62.648ZM163.16 62.648H165.44V68.984C165.44 69.912 165.408 70.936 165.344 72.056C165.28 73.176 165.168 74.328 165.008 75.512C164.848 76.68 164.608 77.816 164.288 78.92C163.984 80.024 163.576 81.032 163.064 81.944C162.936 81.816 162.744 81.664 162.488 81.488C162.248 81.328 162 81.168 161.744 81.008C161.504 80.864 161.288 80.76 161.096 80.696C161.576 79.848 161.952 78.928 162.224 77.936C162.512 76.928 162.72 75.896 162.848 74.84C162.992 73.784 163.08 72.76 163.112 71.768C163.144 70.76 163.16 69.824 163.16 68.96V62.648ZM171.248 60.44L173.288 59.648C173.72 60.144 174.128 60.704 174.512 61.328C174.896 61.936 175.176 62.48 175.352 62.96L173.216 63.92C173.056 63.424 172.792 62.856 172.424 62.216C172.056 61.56 171.664 60.968 171.248 60.44ZM166.52 69.2H183.008V71.312H166.52V69.2ZM173.432 65.528H175.832C175.752 66.696 175.632 67.896 175.472 69.128C175.312 70.36 175.064 71.592 174.728 72.824C174.392 74.04 173.912 75.216 173.288 76.352C172.664 77.472 171.84 78.512 170.816 79.472C169.808 80.432 168.552 81.272 167.048 81.992C166.888 81.72 166.664 81.408 166.376 81.056C166.088 80.72 165.808 80.448 165.536 80.24C166.96 79.616 168.136 78.872 169.064 78.008C170.008 77.128 170.752 76.184 171.296 75.176C171.856 74.152 172.28 73.096 172.568 72.008C172.856 70.904 173.056 69.8 173.168 68.696C173.28 67.592 173.368 66.536 173.432 65.528ZM175.184 70.568C175.712 71.912 176.4 73.2 177.248 74.432C178.096 75.648 179.072 76.736 180.176 77.696C181.28 78.64 182.472 79.392 183.752 79.952C183.592 80.112 183.4 80.304 183.176 80.528C182.968 80.752 182.768 80.984 182.576 81.224C182.4 81.48 182.256 81.712 182.144 81.92C180.816 81.232 179.584 80.352 178.448 79.28C177.312 78.208 176.296 76.984 175.4 75.608C174.52 74.232 173.768 72.768 173.144 71.216L175.184 70.568ZM200.408 77.984L202.016 76.496C202.88 76.896 203.744 77.328 204.608 77.792C205.488 78.256 206.312 78.712 207.08 79.16C207.864 79.608 208.536 80.024 209.096 80.408L207.032 81.92C206.52 81.552 205.904 81.136 205.184 80.672C204.464 80.224 203.696 79.768 202.88 79.304C202.064 78.824 201.24 78.384 200.408 77.984ZM187.304 74.264H209.576V76.424H187.304V74.264ZM190.832 68.264H206.024V70.376H190.832V68.264ZM194.792 59.672H196.904V75.248H194.792V59.672ZM199.904 59.672H202.088V75.272H199.904V59.672ZM189.704 62.576H207.368V75.104H205.088V64.688H191.912V75.104H189.704V62.576ZM194.456 76.544L196.568 77.888C195.944 78.4 195.216 78.912 194.384 79.424C193.552 79.936 192.68 80.416 191.768 80.864C190.872 81.312 190.016 81.696 189.2 82.016C188.992 81.776 188.712 81.496 188.36 81.176C188.024 80.856 187.72 80.592 187.448 80.384C188.296 80.08 189.16 79.712 190.04 79.28C190.936 78.848 191.768 78.392 192.536 77.912C193.32 77.432 193.96 76.976 194.456 76.544ZM213.56 63.44H235.184V65.504H213.56V63.44ZM216.2 71.336H222.704V73.064H216.2V71.336ZM216.2 75.128H222.704V76.832H216.2V75.128ZM226.64 67.664H228.728V77.528H226.64V67.664ZM221.888 67.424H224.096V79.616C224.096 80.144 224.024 80.56 223.88 80.864C223.752 81.168 223.504 81.4 223.136 81.56C222.768 81.736 222.312 81.84 221.768 81.872C221.224 81.92 220.56 81.944 219.776 81.944C219.728 81.656 219.632 81.32 219.488 80.936C219.344 80.552 219.192 80.232 219.032 79.976C219.576 79.992 220.08 80 220.544 80C221.008 80.016 221.32 80.016 221.48 80C221.64 79.984 221.744 79.952 221.792 79.904C221.856 79.84 221.888 79.736 221.888 79.592V67.424ZM231.464 66.968H233.72V79.376C233.72 79.984 233.64 80.448 233.48 80.768C233.32 81.104 233.032 81.36 232.616 81.536C232.216 81.712 231.696 81.824 231.056 81.872C230.416 81.92 229.648 81.944 228.752 81.944C228.688 81.64 228.576 81.272 228.416 80.84C228.256 80.424 228.096 80.072 227.936 79.784C228.608 79.8 229.232 79.816 229.808 79.832C230.384 79.832 230.768 79.824 230.96 79.808C231.152 79.792 231.28 79.76 231.344 79.712C231.424 79.648 231.464 79.528 231.464 79.352V66.968ZM217.088 60.464L219.224 59.72C219.672 60.2 220.12 60.752 220.568 61.376C221.016 61.984 221.344 62.52 221.552 62.984L219.296 63.8C219.12 63.352 218.816 62.816 218.384 62.192C217.968 61.552 217.536 60.976 217.088 60.464ZM229.424 59.648L231.872 60.392C231.408 61.16 230.92 61.92 230.408 62.672C229.912 63.424 229.44 64.072 228.992 64.616L226.976 63.896C227.264 63.512 227.56 63.072 227.864 62.576C228.168 62.08 228.456 61.576 228.728 61.064C229.016 60.552 229.248 60.08 229.424 59.648ZM214.976 67.424H222.56V69.368H217.136V81.896H214.976V67.424Z" fill="black"/>
<path d="M338.848 59.08H341.32V78.04C341.32 78.808 341.216 79.376 341.008 79.744C340.816 80.112 340.472 80.392 339.976 80.584C339.496 80.76 338.856 80.872 338.056 80.92C337.256 80.984 336.288 81.016 335.152 81.016C335.104 80.792 335.024 80.536 334.912 80.248C334.816 79.976 334.704 79.696 334.576 79.408C334.464 79.12 334.344 78.864 334.216 78.64C334.792 78.672 335.344 78.696 335.872 78.712C336.416 78.712 336.888 78.712 337.288 78.712C337.704 78.696 338 78.688 338.176 78.688C338.416 78.672 338.584 78.624 338.68 78.544C338.792 78.448 338.848 78.28 338.848 78.04V59.08ZM344.632 65.272L346.84 64.456C347.528 65.576 348.184 66.784 348.808 68.08C349.448 69.36 350.008 70.616 350.488 71.848C350.984 73.08 351.328 74.184 351.52 75.16L349.048 76.144C348.872 75.184 348.56 74.08 348.112 72.832C347.68 71.584 347.16 70.304 346.552 68.992C345.944 67.664 345.304 66.424 344.632 65.272ZM332.56 64.648L335.128 65.08C334.872 66.264 334.544 67.512 334.144 68.824C333.744 70.136 333.272 71.392 332.728 72.592C332.184 73.776 331.56 74.816 330.856 75.712C330.68 75.584 330.456 75.448 330.184 75.304C329.928 75.144 329.664 75 329.392 74.872C329.12 74.728 328.88 74.608 328.672 74.512C329.36 73.68 329.96 72.704 330.472 71.584C330.984 70.448 331.416 69.272 331.768 68.056C332.12 66.84 332.384 65.704 332.56 64.648ZM364.72 61.624H366.952V80.728H364.72V61.624ZM359.008 69.712L360.304 68.464C360.736 68.704 361.2 68.984 361.696 69.304C362.208 69.624 362.696 69.936 363.16 70.24C363.64 70.528 364.032 70.792 364.336 71.032L362.992 72.448C362.688 72.208 362.304 71.928 361.84 71.608C361.392 71.288 360.92 70.96 360.424 70.624C359.928 70.288 359.456 69.984 359.008 69.712ZM358.792 74.344L360.136 73.096C360.568 73.384 361.048 73.704 361.576 74.056C362.104 74.408 362.608 74.752 363.088 75.088C363.568 75.424 363.96 75.72 364.264 75.976L362.896 77.416C362.592 77.144 362.2 76.832 361.72 76.48C361.256 76.112 360.768 75.744 360.256 75.376C359.744 75.008 359.256 74.664 358.792 74.344ZM367.552 69.712L368.824 68.416C369.272 68.656 369.76 68.936 370.288 69.256C370.816 69.576 371.328 69.888 371.824 70.192C372.32 70.48 372.728 70.744 373.048 70.984L371.728 72.448C371.424 72.208 371.032 71.928 370.552 71.608C370.072 71.288 369.568 70.96 369.04 70.624C368.512 70.288 368.016 69.984 367.552 69.712ZM367.24 74.296L368.536 73.024C368.984 73.296 369.48 73.608 370.024 73.96C370.584 74.296 371.112 74.632 371.608 74.968C372.12 75.288 372.544 75.584 372.88 75.856L371.536 77.32C371.216 77.048 370.808 76.736 370.312 76.384C369.816 76.032 369.296 75.672 368.752 75.304C368.208 74.936 367.704 74.6 367.24 74.296ZM356.224 65.2H374.416V67.312H358.384V80.992H356.224V65.2ZM373.504 65.2H375.736V78.4C375.736 78.976 375.656 79.424 375.496 79.744C375.336 80.08 375.048 80.336 374.632 80.512C374.216 80.672 373.664 80.768 372.976 80.8C372.288 80.848 371.472 80.872 370.528 80.872C370.464 80.584 370.36 80.24 370.216 79.84C370.072 79.456 369.92 79.128 369.76 78.856C370.224 78.872 370.672 78.88 371.104 78.88C371.552 78.88 371.944 78.88 372.28 78.88C372.616 78.88 372.848 78.88 372.976 78.88C373.184 78.864 373.32 78.824 373.384 78.76C373.464 78.68 373.504 78.552 373.504 78.376V65.2ZM355.12 60.184H376.744V62.44H355.12V60.184Z" fill="black"/>
<path d="M306.5 87.5C306.1 86.7 307 83.5 308 82C308 83.5 309 85.5 309 87C309 88.5 307 88.5 306.5 87.5Z" fill="#00B9F2"/>
<path d="M302.075 84.4377C301.767 83.7922 302.46 81.2103 303.23 80C303.23 81.2103 304 82.824 304 84.0343C304 85.2445 302.46 85.2445 302.075 84.4377Z" fill="#00B9F2"/>
<path d="M312.625 79.2501H300.438C298.92 79.2501 297.614 78.8484 296.66 78.089C295.574 77.2241 295 75.9402 295 74.3751C295 71.6765 296.969 70.1291 299.104 69.6524C299.245 69.6204 299.373 69.5486 299.474 69.4456C299.575 69.3426 299.644 69.2128 299.673 69.0716C300.032 67.3523 300.819 65.8771 301.978 64.7591C303.327 63.462 305.128 62.7414 307 62.7501C308.664 62.7501 310.199 63.298 311.438 64.3345C312.285 65.049 312.959 65.9466 313.409 66.9595C313.458 67.0682 313.531 67.1638 313.624 67.2385C313.717 67.3131 313.826 67.3647 313.942 67.3888C315.208 67.6518 316.336 68.2012 317.185 68.9755C318.372 70.057 319 71.5354 319 73.2501C319 74.9376 318.326 76.4788 317.102 77.5902C315.923 78.6609 314.333 79.2501 312.625 79.2501Z" fill="#00B9F2"/>
</svg>
