<svg width="332" height="87" viewBox="0 0 332 87" fill="none" xmlns="http://www.w3.org/2000/svg">
<path d="M10.115 80.811C10.721 81.311 11.353 81.768 12 82.214C12.6484 81.7739 13.2773 81.3058 13.885 80.811C14.898 79.9792 15.8513 79.0773 16.738 78.112C18.782 75.877 21 72.637 21 69C21 67.8181 20.7672 66.6478 20.3149 65.5558C19.8626 64.4639 19.1997 63.4718 18.364 62.636C17.5282 61.8003 16.5361 61.1374 15.4442 60.6851C14.3522 60.2328 13.1819 60 12 60C10.8181 60 9.64778 60.2328 8.55585 60.6851C7.46392 61.1374 6.47177 61.8003 5.63604 62.636C4.80031 63.4718 4.13738 64.4639 3.68508 65.5558C3.23279 66.6478 3 67.8181 3 69C3 72.637 5.218 75.876 7.262 78.112C8.14862 79.0777 9.10196 79.9789 10.115 80.811ZM12 72.25C11.138 72.25 10.3114 71.9076 9.7019 71.2981C9.09241 70.6886 8.75 69.862 8.75 69C8.75 68.138 9.09241 67.3114 9.7019 66.7019C10.3114 66.0924 11.138 65.75 12 65.75C12.862 65.75 13.6886 66.0924 14.2981 66.7019C14.9076 67.3114 15.25 68.138 15.25 69C15.25 69.862 14.9076 70.6886 14.2981 71.2981C13.6886 71.9076 12.862 72.25 12 72.25Z" fill="#00B9F2"/>
<path d="M45.496 32V27.392H50.552V13.856H46.168V10.336C47.448 10.1013 48.536 9.81333 49.432 9.472C50.3493 9.13067 51.224 8.69333 52.056 8.16H56.248V27.392H60.536V32H45.496ZM74.18 32.448C72.9213 32.448 71.78 32.2987 70.756 32C69.732 31.7227 68.8147 31.3387 68.004 30.848C67.2147 30.336 66.5 29.7707 65.86 29.152L68.452 25.568C68.9 25.9947 69.38 26.3787 69.892 26.72C70.404 27.0613 70.948 27.3387 71.524 27.552C72.1213 27.744 72.7293 27.84 73.348 27.84C74.116 27.84 74.7773 27.7013 75.332 27.424C75.8867 27.1467 76.3133 26.7307 76.612 26.176C76.932 25.6213 77.092 24.9387 77.092 24.128C77.092 22.9333 76.7613 22.0267 76.1 21.408C75.46 20.768 74.628 20.448 73.604 20.448C72.9427 20.448 72.388 20.5333 71.94 20.704C71.5133 20.8533 70.948 21.152 70.244 21.6L67.748 19.968L68.356 8.16H81.732V12.928H73.252L72.9 16.96C73.3267 16.7893 73.732 16.672 74.116 16.608C74.5 16.5227 74.916 16.48 75.364 16.48C76.708 16.48 77.9453 16.7467 79.076 17.28C80.2067 17.8133 81.1027 18.6347 81.764 19.744C82.4467 20.8533 82.788 22.272 82.788 24C82.788 25.7707 82.3827 27.296 81.572 28.576C80.7827 29.8347 79.7373 30.7947 78.436 31.456C77.1347 32.1173 75.716 32.448 74.18 32.448ZM100.848 4.64H105.648V12.416H100.848V4.64ZM95.248 24.672L98.8 22.432C99.4613 22.9227 100.155 23.488 100.88 24.128C101.627 24.7467 102.331 25.3653 102.992 25.984C103.675 26.6027 104.229 27.1787 104.656 27.712L100.848 30.24C100.485 29.728 99.984 29.152 99.344 28.512C98.7253 27.8507 98.0533 27.1893 97.328 26.528C96.6027 25.8453 95.9093 25.2267 95.248 24.672ZM96.016 17.408H111.728V21.44H96.016V17.408ZM98.736 13.888L103.6 15.552C102.704 16.832 101.648 18.0587 100.432 19.232C99.2373 20.4053 97.9467 21.4827 96.56 22.464C95.1733 23.424 93.7333 24.2453 92.24 24.928C92.0053 24.5653 91.7067 24.1493 91.344 23.68C90.9813 23.2107 90.608 22.752 90.224 22.304C89.8613 21.856 89.52 21.4827 89.2 21.184C90.544 20.672 91.8347 20.0213 93.072 19.232C94.3093 18.4427 95.4187 17.5893 96.4 16.672C97.4027 15.7333 98.1813 14.8053 98.736 13.888ZM110.288 17.408H111.248L112.08 17.248L115.376 19.2C114.373 21.504 113.083 23.5413 111.504 25.312C109.925 27.0827 108.123 28.608 106.096 29.888C104.091 31.168 101.915 32.2347 99.568 33.088C97.2427 33.9413 94.8 34.6133 92.24 35.104C92.0907 34.6987 91.856 34.2187 91.536 33.664C91.216 33.1093 90.864 32.5653 90.48 32.032C90.1173 31.4987 89.776 31.072 89.456 30.752C91.9307 30.3893 94.2667 29.8773 96.464 29.216C98.6827 28.5547 100.699 27.7227 102.512 26.72C104.347 25.696 105.925 24.48 107.248 23.072C108.571 21.664 109.584 20.0427 110.288 18.208V17.408ZM90.64 6.048H95.472V10.56H110.8V6.048H115.856V14.624H90.64V6.048ZM133.112 32V29.12H136.272V20.66H133.532V18.46C134.332 18.3133 135.012 18.1333 135.572 17.92C136.146 17.7067 136.692 17.4333 137.212 17.1H139.832V29.12H142.512V32H133.112ZM151.44 32.28C150.4 32.28 149.48 31.9867 148.68 31.4C147.893 30.8133 147.273 29.94 146.82 28.78C146.38 27.62 146.16 26.1867 146.16 24.48C146.16 22.7733 146.38 21.3533 146.82 20.22C147.273 19.0867 147.893 18.24 148.68 17.68C149.48 17.12 150.4 16.84 151.44 16.84C152.493 16.84 153.413 17.1267 154.2 17.7C154.987 18.26 155.6 19.1067 156.04 20.24C156.48 21.36 156.7 22.7733 156.7 24.48C156.7 26.1867 156.48 27.62 156.04 28.78C155.6 29.94 154.987 30.8133 154.2 31.4C153.413 31.9867 152.493 32.28 151.44 32.28ZM151.44 29.52C151.8 29.52 152.12 29.3867 152.4 29.12C152.693 28.84 152.92 28.34 153.08 27.62C153.253 26.8867 153.34 25.84 153.34 24.48C153.34 23.12 153.253 22.0867 153.08 21.38C152.92 20.6733 152.693 20.1933 152.4 19.94C152.12 19.6867 151.8 19.56 151.44 19.56C151.093 19.56 150.773 19.6867 150.48 19.94C150.187 20.1933 149.953 20.6733 149.78 21.38C149.607 22.0867 149.52 23.12 149.52 24.48C149.52 25.84 149.607 26.8867 149.78 27.62C149.953 28.34 150.187 28.84 150.48 29.12C150.773 29.3867 151.093 29.52 151.44 29.52ZM164.708 15.78H174.448V18.62H164.708V15.78ZM164.728 20.54H174.548V23.3H164.728V20.54ZM164.648 25.22H174.388V28.04H164.648V25.22ZM162.648 15.78H165.648V22.66C165.648 23.5267 165.594 24.4667 165.488 25.48C165.394 26.4933 165.214 27.52 164.948 28.56C164.681 29.5867 164.288 30.56 163.768 31.48C163.248 32.4 162.568 33.2067 161.728 33.9C161.581 33.7 161.368 33.46 161.088 33.18C160.821 32.9 160.534 32.6333 160.228 32.38C159.934 32.1267 159.681 31.9333 159.468 31.8C160.201 31.1867 160.781 30.5067 161.208 29.76C161.634 29.0133 161.948 28.2333 162.148 27.42C162.361 26.6067 162.494 25.7933 162.548 24.98C162.614 24.1667 162.648 23.3867 162.648 22.64V15.78ZM173.068 15.78H176.168V30.38C176.168 31.1933 176.061 31.8267 175.848 32.28C175.634 32.7333 175.274 33.08 174.768 33.32C174.234 33.5733 173.594 33.7267 172.848 33.78C172.114 33.8467 171.234 33.88 170.208 33.88C170.154 33.5867 170.061 33.2533 169.928 32.88C169.794 32.5067 169.648 32.1333 169.488 31.76C169.328 31.3867 169.168 31.0733 169.008 30.82C169.434 30.8467 169.881 30.8667 170.348 30.88C170.828 30.8933 171.254 30.9 171.628 30.9C172.014 30.9 172.288 30.9 172.448 30.9C172.674 30.9 172.834 30.86 172.928 30.78C173.021 30.6867 173.068 30.54 173.068 30.34V15.78ZM182.287 32V29.12H185.447V20.66H182.707V18.46C183.507 18.3133 184.187 18.1333 184.747 17.92C185.321 17.7067 185.867 17.4333 186.387 17.1H189.007V29.12H191.687V32H182.287ZM195.355 32V29.96C196.595 28.8267 197.682 27.7733 198.615 26.8C199.548 25.8267 200.275 24.92 200.795 24.08C201.315 23.2267 201.575 22.44 201.575 21.72C201.575 21.2667 201.495 20.8867 201.335 20.58C201.188 20.26 200.968 20.02 200.675 19.86C200.382 19.7 200.035 19.62 199.635 19.62C199.128 19.62 198.668 19.7667 198.255 20.06C197.855 20.34 197.475 20.6733 197.115 21.06L195.175 19.14C195.908 18.3533 196.648 17.7733 197.395 17.4C198.155 17.0267 199.062 16.84 200.115 16.84C201.075 16.84 201.922 17.0333 202.655 17.42C203.388 17.8067 203.962 18.3533 204.375 19.06C204.788 19.7533 204.995 20.5733 204.995 21.52C204.995 22.3733 204.775 23.2467 204.335 24.14C203.908 25.02 203.355 25.8933 202.675 26.76C201.995 27.6133 201.275 28.4267 200.515 29.2C200.888 29.1467 201.302 29.1 201.755 29.06C202.222 29.02 202.622 29 202.955 29H205.675V32H195.355ZM211.123 16.02H225.563V33.66H222.423V18.96H214.123V33.66H211.123V16.02ZM213.183 22.62H223.723V25.5H213.183V22.62ZM213.183 29.4H223.723V32.34H213.183V29.4Z" fill="black"/>
<path d="M34.56 65.768H41.232V68.072H34.56V65.768ZM43.872 59.768H46.272V79.04C46.272 79.728 46.184 80.264 46.008 80.648C45.848 81.032 45.56 81.328 45.144 81.536C44.744 81.744 44.208 81.88 43.536 81.944C42.88 82.008 42.08 82.04 41.136 82.04C41.104 81.816 41.04 81.552 40.944 81.248C40.848 80.944 40.744 80.64 40.632 80.336C40.52 80.032 40.4 79.768 40.272 79.544C40.96 79.56 41.584 79.576 42.144 79.592C42.72 79.592 43.112 79.584 43.32 79.568C43.512 79.568 43.648 79.536 43.728 79.472C43.824 79.392 43.872 79.248 43.872 79.04V59.768ZM40.464 65.768H40.92L41.328 65.696L42.84 66.248C42.472 68.376 41.928 70.312 41.208 72.056C40.504 73.784 39.672 75.296 38.712 76.592C37.768 77.888 36.728 78.944 35.592 79.76C35.464 79.584 35.288 79.384 35.064 79.16C34.856 78.936 34.632 78.72 34.392 78.512C34.152 78.288 33.936 78.12 33.744 78.008C34.864 77.272 35.872 76.336 36.768 75.2C37.664 74.048 38.424 72.728 39.048 71.24C39.688 69.736 40.16 68.08 40.464 66.272V65.768ZM46.128 65.168C46.592 66.48 47.168 67.76 47.856 69.008C48.544 70.256 49.328 71.424 50.208 72.512C51.088 73.6 52.056 74.576 53.112 75.44C54.168 76.288 55.296 76.992 56.496 77.552C56.32 77.696 56.12 77.896 55.896 78.152C55.688 78.392 55.48 78.648 55.272 78.92C55.08 79.176 54.92 79.416 54.792 79.64C53.576 78.984 52.44 78.176 51.384 77.216C50.328 76.24 49.36 75.144 48.48 73.928C47.616 72.712 46.84 71.4 46.152 69.992C45.464 68.584 44.864 67.128 44.352 65.624L46.128 65.168ZM52.416 64.136L54.528 65.6C53.92 66.24 53.28 66.904 52.608 67.592C51.936 68.28 51.256 68.936 50.568 69.56C49.896 70.184 49.264 70.728 48.672 71.192L47.088 69.944C47.664 69.448 48.28 68.864 48.936 68.192C49.592 67.52 50.224 66.832 50.832 66.128C51.456 65.424 51.984 64.76 52.416 64.136ZM60.96 62.408H69.312V64.4H60.96V62.408ZM63.648 78.728H70.08V80.576H63.648V78.728ZM63.648 74.792H70.128V76.544H63.648V74.792ZM59.904 66.896H72.24V68.888H59.904V66.896ZM64.44 59.936H66.552V68.168H64.44V59.936ZM70.776 60.68L72.816 61.256C71.536 64.328 69.864 67.032 67.8 69.368C65.736 71.688 63.36 73.576 60.672 75.032C60.608 74.872 60.488 74.672 60.312 74.432C60.152 74.192 59.984 73.96 59.808 73.736C59.632 73.496 59.472 73.304 59.328 73.16C61.936 71.896 64.216 70.2 66.168 68.072C68.12 65.944 69.656 63.48 70.776 60.68ZM64.368 70.976H70.032V72.824H64.368V81.92H62.304V72.296L63.552 70.976H64.368ZM69.12 70.976H71.28V81.584H69.12V70.976ZM73.152 61.088H80.28V63.224H75.408V82.016H73.152V61.088ZM79.752 61.088H80.184L80.52 61.016L82.176 62.048C81.712 63.184 81.192 64.4 80.616 65.696C80.04 66.976 79.48 68.16 78.936 69.248C79.72 69.984 80.312 70.688 80.712 71.36C81.128 72.016 81.416 72.648 81.576 73.256C81.736 73.864 81.816 74.448 81.816 75.008C81.816 75.808 81.712 76.496 81.504 77.072C81.312 77.632 80.984 78.064 80.52 78.368C80.088 78.656 79.536 78.848 78.864 78.944C78.576 78.976 78.232 78.992 77.832 78.992C77.448 78.992 77.064 78.984 76.68 78.968C76.664 78.664 76.6 78.296 76.488 77.864C76.392 77.432 76.248 77.064 76.056 76.76C76.424 76.792 76.76 76.816 77.064 76.832C77.368 76.832 77.64 76.824 77.88 76.808C78.088 76.808 78.28 76.784 78.456 76.736C78.648 76.688 78.808 76.624 78.936 76.544C79.192 76.4 79.368 76.176 79.464 75.872C79.576 75.568 79.624 75.2 79.608 74.768C79.608 74.048 79.4 73.248 78.984 72.368C78.584 71.488 77.816 70.552 76.68 69.56C76.952 68.952 77.232 68.296 77.52 67.592C77.824 66.888 78.112 66.184 78.384 65.48C78.656 64.776 78.904 64.112 79.128 63.488C79.368 62.848 79.576 62.304 79.752 61.856V61.088ZM88.416 61.712H105.264V73.16H103.056V63.584H90.552V73.16H88.416V61.712ZM86.136 74.096H107.52V76.064H86.136V74.096ZM91.392 67.424H102.168V69.008H91.392V67.424ZM95.424 72.776H97.824C97.68 73.784 97.48 74.712 97.224 75.56C96.968 76.392 96.592 77.16 96.096 77.864C95.616 78.552 94.976 79.168 94.176 79.712C93.376 80.24 92.368 80.696 91.152 81.08C89.936 81.48 88.464 81.808 86.736 82.064C86.688 81.872 86.6 81.648 86.472 81.392C86.344 81.152 86.208 80.912 86.064 80.672C85.936 80.432 85.8 80.24 85.656 80.096C87.24 79.888 88.576 79.64 89.664 79.352C90.752 79.048 91.648 78.688 92.352 78.272C93.056 77.84 93.608 77.36 94.008 76.832C94.424 76.288 94.736 75.68 94.944 75.008C95.152 74.32 95.312 73.576 95.424 72.776ZM98.424 74.816C99.144 76.384 100.296 77.576 101.88 78.392C103.48 79.192 105.552 79.696 108.096 79.904C107.92 80.08 107.744 80.288 107.568 80.528C107.392 80.784 107.224 81.048 107.064 81.32C106.92 81.592 106.8 81.84 106.704 82.064C104.88 81.824 103.296 81.424 101.952 80.864C100.624 80.32 99.496 79.584 98.568 78.656C97.656 77.712 96.912 76.544 96.336 75.152L98.424 74.816ZM95.808 64.04H97.752V72.152H95.808V64.04ZM100.008 64.208L101.712 64.976C101.376 65.408 101.04 65.84 100.704 66.272C100.368 66.688 100.064 67.056 99.792 67.376L98.472 66.728C98.728 66.376 99.008 65.96 99.312 65.48C99.616 64.984 99.848 64.56 100.008 64.208ZM91.968 65L93.408 64.328C93.68 64.696 93.96 65.104 94.248 65.552C94.552 65.984 94.784 66.352 94.944 66.656L93.432 67.4C93.288 67.096 93.072 66.712 92.784 66.248C92.496 65.784 92.224 65.368 91.968 65ZM98.04 70.256L99.144 69.176C99.496 69.384 99.864 69.624 100.248 69.896C100.632 70.152 101 70.408 101.352 70.664C101.72 70.904 102.024 71.12 102.264 71.312L101.136 72.512C100.912 72.304 100.624 72.072 100.272 71.816C99.92 71.544 99.544 71.272 99.144 71C98.76 70.712 98.392 70.464 98.04 70.256ZM95.664 59.648L98.16 60.032C97.904 60.576 97.664 61.096 97.44 61.592C97.216 62.072 97.016 62.488 96.84 62.84L94.56 62.48C94.752 62.064 94.952 61.592 95.16 61.064C95.384 60.536 95.552 60.064 95.664 59.648ZM95.328 67.928L96.768 68.552C96.432 69.064 96.008 69.6 95.496 70.16C94.984 70.704 94.448 71.216 93.888 71.696C93.328 72.16 92.784 72.552 92.256 72.872C92.112 72.664 91.912 72.424 91.656 72.152C91.416 71.88 91.192 71.664 90.984 71.504C91.512 71.264 92.04 70.952 92.568 70.568C93.112 70.168 93.624 69.744 94.104 69.296C94.6 68.832 95.008 68.376 95.328 67.928ZM117.696 66.32L119.376 65.216C120.016 65.584 120.68 66.032 121.368 66.56C122.056 67.072 122.592 67.544 122.976 67.976L121.176 69.2C120.936 68.912 120.624 68.6 120.24 68.264C119.856 67.912 119.44 67.568 118.992 67.232C118.56 66.896 118.128 66.592 117.696 66.32ZM127.824 61.784H128.28L128.664 61.664L130.152 62.576C129.384 63.936 128.392 65.152 127.176 66.224C125.976 67.296 124.632 68.24 123.144 69.056C121.656 69.872 120.096 70.56 118.464 71.12C116.832 71.68 115.192 72.12 113.544 72.44C113.448 72.152 113.296 71.808 113.088 71.408C112.88 71.008 112.672 70.68 112.464 70.424C114.016 70.184 115.568 69.824 117.12 69.344C118.672 68.848 120.144 68.248 121.536 67.544C122.928 66.84 124.168 66.032 125.256 65.12C126.344 64.208 127.2 63.208 127.824 62.12V61.784ZM119.832 61.784H128.208V63.776H119.832V61.784ZM121.512 59.672L123.984 60.248C122.88 61.512 121.568 62.72 120.048 63.872C118.528 65.024 116.76 66.064 114.744 66.992C114.632 66.816 114.48 66.624 114.288 66.416C114.112 66.208 113.928 66.016 113.736 65.84C113.544 65.648 113.36 65.496 113.184 65.384C114.48 64.872 115.656 64.296 116.712 63.656C117.784 63.016 118.72 62.36 119.52 61.688C120.32 61 120.984 60.328 121.512 59.672ZM120.96 75.368L122.808 74.288C123.224 74.576 123.656 74.896 124.104 75.248C124.568 75.6 125 75.96 125.4 76.328C125.816 76.68 126.152 77.008 126.408 77.312L124.416 78.512C124.176 78.224 123.864 77.896 123.48 77.528C123.096 77.144 122.68 76.768 122.232 76.4C121.784 76.016 121.36 75.672 120.96 75.368ZM131.088 70.424H131.568L132 70.328L133.536 71.24C132.704 73.032 131.592 74.568 130.2 75.848C128.808 77.112 127.216 78.16 125.424 78.992C123.648 79.824 121.72 80.48 119.64 80.96C117.576 81.456 115.448 81.824 113.256 82.064C113.192 81.856 113.112 81.616 113.016 81.344C112.92 81.072 112.816 80.8 112.704 80.528C112.592 80.272 112.472 80.056 112.344 79.88C114.424 79.704 116.44 79.416 118.392 79.016C120.344 78.6 122.152 78.032 123.816 77.312C125.48 76.592 126.936 75.696 128.184 74.624C129.432 73.552 130.4 72.264 131.088 70.76V70.424ZM123.768 70.424H131.664V72.464H123.768V70.424ZM125.448 68.144L127.944 68.72C127.128 69.712 126.176 70.68 125.088 71.624C124 72.568 122.768 73.448 121.392 74.264C120.016 75.064 118.472 75.792 116.76 76.448C116.68 76.272 116.552 76.08 116.376 75.872C116.216 75.648 116.048 75.432 115.872 75.224C115.696 75.016 115.528 74.848 115.368 74.72C117 74.144 118.464 73.504 119.76 72.8C121.056 72.08 122.176 71.328 123.12 70.544C124.08 69.744 124.856 68.944 125.448 68.144ZM156.6 70.328H158.928C158.928 70.328 158.92 70.392 158.904 70.52C158.904 70.632 158.896 70.768 158.88 70.928C158.88 71.088 158.872 71.224 158.856 71.336C158.664 73.416 158.472 75.12 158.28 76.448C158.088 77.76 157.872 78.784 157.632 79.52C157.392 80.256 157.112 80.784 156.792 81.104C156.488 81.408 156.168 81.616 155.832 81.728C155.512 81.856 155.12 81.944 154.656 81.992C154.24 82.024 153.696 82.032 153.024 82.016C152.352 82.016 151.632 82 150.864 81.968C150.848 81.632 150.776 81.256 150.648 80.84C150.52 80.44 150.352 80.088 150.144 79.784C150.896 79.864 151.608 79.912 152.28 79.928C152.952 79.928 153.44 79.928 153.744 79.928C154 79.928 154.208 79.912 154.368 79.88C154.544 79.848 154.704 79.776 154.848 79.664C155.104 79.44 155.328 79 155.52 78.344C155.728 77.672 155.92 76.712 156.096 75.464C156.272 74.216 156.44 72.624 156.6 70.688V70.328ZM139.776 61.088H153.888V63.296H139.776V61.088ZM141.936 64.784L144.192 64.952C144.144 65.768 144.072 66.64 143.976 67.568C143.88 68.48 143.784 69.36 143.688 70.208C143.592 71.056 143.496 71.8 143.4 72.44H141.12C141.232 71.784 141.336 71.016 141.432 70.136C141.544 69.256 141.64 68.352 141.72 67.424C141.816 66.48 141.888 65.6 141.936 64.784ZM141.84 70.328H157.296V72.464H141.84V70.328ZM138 75.056H153.792V77.24H138V75.056ZM153.384 61.088H153.6L153.984 60.992L155.688 61.16C155.64 61.912 155.568 62.736 155.472 63.632C155.392 64.512 155.304 65.416 155.208 66.344C155.112 67.272 155.008 68.2 154.896 69.128C154.784 70.04 154.672 70.904 154.56 71.72L152.304 71.528C152.416 70.712 152.52 69.84 152.616 68.912C152.728 67.968 152.832 67.032 152.928 66.104C153.04 65.16 153.128 64.28 153.192 63.464C153.272 62.632 153.336 61.928 153.384 61.352V61.088ZM165.744 60.632H183.408V62.456H165.744V60.632ZM167.424 75.92H181.68V77.648H167.424V75.92ZM167.424 79.448H181.68V81.224H167.424V79.448ZM167.28 66.8H172.416V68.336H167.28V66.8ZM166.776 69.536H172.44V71.096H166.776V69.536ZM176.664 69.536H182.448V71.096H176.664V69.536ZM176.664 66.8H181.872V68.336H176.664V66.8ZM173.424 61.328H175.632V71.792H173.424V61.328ZM173.424 73.328H175.632V80.384H173.424V73.328ZM164.256 63.776H184.992V69.104H182.856V65.552H166.296V69.104H164.256V63.776ZM166.344 72.44H182.88V81.8H180.624V74.192H168.528V81.992H166.344V72.44Z" fill="black"/>
<path d="M269.224 68.992C269.992 71.392 271.216 73.448 272.896 75.16C274.576 76.872 276.72 78.088 279.328 78.808C279.152 78.984 278.96 79.192 278.752 79.432C278.56 79.672 278.376 79.92 278.2 80.176C278.024 80.448 277.88 80.688 277.768 80.896C275.944 80.304 274.344 79.48 272.968 78.424C271.608 77.368 270.448 76.096 269.488 74.608C268.528 73.104 267.728 71.408 267.088 69.52L269.224 68.992ZM258.424 60.472H277.48V62.8H258.424V60.472ZM257.56 67.792H278.488V70.12H257.56V67.792ZM266.632 61.264H269.008V65.488C269.008 66.48 268.944 67.528 268.816 68.632C268.688 69.736 268.424 70.856 268.024 71.992C267.64 73.112 267.056 74.216 266.272 75.304C265.488 76.392 264.456 77.416 263.176 78.376C261.896 79.32 260.288 80.176 258.352 80.944C258.256 80.752 258.12 80.536 257.944 80.296C257.784 80.056 257.608 79.816 257.416 79.576C257.224 79.336 257.04 79.144 256.864 79C258.64 78.328 260.12 77.568 261.304 76.72C262.488 75.856 263.432 74.944 264.136 73.984C264.856 73.024 265.392 72.056 265.744 71.08C266.112 70.088 266.352 69.12 266.464 68.176C266.576 67.216 266.632 66.312 266.632 65.464V61.264ZM287.8 61.288H304.216V63.208H287.8V61.288ZM288.088 64.72H302.344V66.592H288.088V64.72ZM285.568 68.2H299.224V70.168H285.568V68.2ZM287.896 58.696L290.176 59.248C289.728 60.496 289.2 61.712 288.592 62.896C287.984 64.08 287.328 65.176 286.624 66.184C285.92 67.176 285.192 68.056 284.44 68.824C284.296 68.696 284.096 68.544 283.84 68.368C283.584 68.192 283.328 68.024 283.072 67.864C282.816 67.688 282.592 67.552 282.4 67.456C283.584 66.432 284.656 65.144 285.616 63.592C286.576 62.04 287.336 60.408 287.896 58.696ZM298.264 68.2H300.568C300.584 69.288 300.624 70.352 300.688 71.392C300.752 72.416 300.84 73.376 300.952 74.272C301.08 75.152 301.232 75.928 301.408 76.6C301.6 77.272 301.824 77.8 302.08 78.184C302.336 78.552 302.64 78.736 302.992 78.736C303.2 78.736 303.344 78.448 303.424 77.872C303.504 77.296 303.552 76.512 303.568 75.52C303.792 75.776 304.048 76.032 304.336 76.288C304.624 76.528 304.888 76.728 305.128 76.888C305.048 78.328 304.848 79.368 304.528 80.008C304.224 80.648 303.664 80.968 302.848 80.968C301.92 80.968 301.16 80.632 300.568 79.96C299.992 79.288 299.544 78.368 299.224 77.2C298.904 76.016 298.672 74.656 298.528 73.12C298.384 71.584 298.296 69.944 298.264 68.2ZM311.008 60.424H315.904V76.408H311.008V74.392H313.984V62.44H311.008V60.424ZM310.816 67.36H314.704V69.352H310.816V67.36ZM309.568 60.424H311.44V78.352H309.568V60.424ZM317.608 60.616H330.424V62.272H317.608V60.616ZM318.208 63.544H329.968V65.128H318.208V63.544ZM316.96 66.472H330.928V68.176H316.96V66.472ZM322.864 58.744H325.048V67.408H322.864V58.744ZM318.52 69.424H328.144V71.104H320.632V81.016H318.52V69.424ZM327.472 69.424H329.584V78.832C329.584 79.344 329.52 79.736 329.392 80.008C329.264 80.296 329.024 80.52 328.672 80.68C328.32 80.824 327.872 80.912 327.328 80.944C326.8 80.992 326.152 81.008 325.384 80.992C325.336 80.72 325.256 80.408 325.144 80.056C325.032 79.72 324.904 79.424 324.76 79.168C325.272 79.184 325.744 79.192 326.176 79.192C326.624 79.192 326.92 79.192 327.064 79.192C327.224 79.192 327.328 79.16 327.376 79.096C327.44 79.048 327.472 78.96 327.472 78.832V69.424ZM319.72 72.592H328.48V74.152H319.72V72.592ZM319.72 75.688H328.48V77.224H319.72V75.688Z" fill="black"/>
<path d="M235 80.3337C235.327 80.3337 235.642 80.4536 235.886 80.6706C236.13 80.8876 236.286 81.1867 236.324 81.511L236.333 81.667V83.0003C236.333 83.3402 236.203 83.667 235.97 83.9142C235.736 84.1613 235.417 84.31 235.078 84.3299C234.739 84.3498 234.405 84.2394 234.144 84.0213C233.884 83.8032 233.716 83.4938 233.676 83.1563L233.667 83.0003V81.667C233.667 81.3134 233.807 80.9742 234.057 80.7242C234.307 80.4741 234.646 80.3337 235 80.3337ZM243.417 77.547L243.543 77.6577L244.476 78.591C244.715 78.8309 244.854 79.1529 244.864 79.4915C244.875 79.8301 244.756 80.1599 244.532 80.414C244.308 80.6681 243.995 80.8274 243.658 80.8595C243.321 80.8917 242.984 80.7942 242.716 80.587L242.591 80.4763L241.657 79.543C241.427 79.3133 241.289 79.0075 241.269 78.683C241.248 78.3585 241.347 78.0378 241.547 77.7811C241.746 77.5244 242.033 77.3495 242.352 77.2892C242.671 77.2289 243.002 77.2874 243.281 77.4537L243.417 77.547ZM228.343 77.6577C228.572 77.8873 228.71 78.1927 228.731 78.5168C228.751 78.8408 228.652 79.1611 228.453 79.4177L228.343 79.543L227.409 80.4763C227.169 80.7155 226.847 80.8543 226.509 80.8646C226.17 80.875 225.84 80.756 225.586 80.532C225.332 80.3079 225.173 79.9956 225.141 79.6584C225.109 79.3211 225.206 78.9843 225.413 78.7163L225.524 78.591L226.457 77.6577C226.707 77.4077 227.046 77.2673 227.4 77.2673C227.754 77.2673 228.093 77.4077 228.343 77.6577ZM224.333 69.667C224.673 69.6674 225 69.7975 225.247 70.0308C225.494 70.2641 225.643 70.5829 225.663 70.9222C225.683 71.2614 225.572 71.5955 225.354 71.8561C225.136 72.1167 224.827 72.2842 224.489 72.3243L224.333 72.3337H223C222.66 72.3333 222.333 72.2032 222.086 71.9699C221.839 71.7366 221.69 71.4177 221.67 71.0785C221.651 70.7392 221.761 70.4052 221.979 70.1445C222.197 69.8839 222.507 69.7165 222.844 69.6763L223 69.667H224.333ZM247 69.667C247.34 69.6674 247.667 69.7975 247.914 70.0308C248.161 70.2641 248.31 70.5829 248.33 70.9222C248.349 71.2614 248.239 71.5955 248.021 71.8561C247.803 72.1167 247.493 72.2842 247.156 72.3243L247 72.3337H245.667C245.327 72.3333 245 72.2032 244.753 71.9699C244.506 71.7366 244.357 71.4177 244.337 71.0785C244.317 70.7392 244.428 70.4052 244.646 70.1445C244.864 69.8839 245.173 69.7165 245.511 69.6763L245.667 69.667H247ZM227.284 61.4137L227.409 61.5243L228.343 62.4577C228.582 62.6976 228.721 63.0196 228.731 63.3582C228.741 63.6968 228.622 64.0266 228.398 64.2807C228.174 64.5348 227.862 64.6941 227.525 64.7262C227.187 64.7583 226.851 64.6609 226.583 64.4537L226.457 64.343L225.524 63.4097C225.295 63.1799 225.157 62.8744 225.137 62.5505C225.117 62.2266 225.216 61.9065 225.415 61.6501C225.614 61.3938 225.9 61.2189 226.218 61.1582C226.537 61.0975 226.867 61.1551 227.147 61.3203L227.284 61.4137ZM244.476 61.5243C244.706 61.7539 244.843 62.0594 244.864 62.3834C244.884 62.7075 244.786 63.0278 244.587 63.2843L244.476 63.4097L243.543 64.343C243.303 64.5821 242.981 64.721 242.642 64.7313C242.304 64.7416 241.974 64.6227 241.72 64.3987C241.466 64.1746 241.306 63.8623 241.274 63.525C241.242 63.1878 241.339 62.851 241.547 62.583L241.657 62.4577L242.591 61.5243C242.841 61.2744 243.18 61.1339 243.533 61.1339C243.887 61.1339 244.226 61.2744 244.476 61.5243ZM235 57.667C235.327 57.667 235.642 57.7869 235.886 58.0039C236.13 58.221 236.286 58.52 236.324 58.8443L236.333 59.0003V60.3337C236.333 60.6735 236.203 61.0004 235.97 61.2475C235.736 61.4946 235.417 61.6433 235.078 61.6632C234.739 61.6831 234.405 61.5728 234.144 61.3546C233.884 61.1365 233.716 60.8271 233.676 60.4897L233.667 60.3337V59.0003C233.667 58.6467 233.807 58.3076 234.057 58.0575C234.307 57.8075 234.646 57.667 235 57.667ZM235 64.3337C236.306 64.3336 237.584 64.7172 238.674 65.437C239.764 66.1567 240.618 67.1809 241.131 68.3821C241.644 69.5834 241.793 70.9089 241.559 72.1941C241.325 73.4792 240.719 74.6673 239.816 75.6108C238.912 76.5543 237.752 77.2116 236.478 77.5012C235.204 77.7907 233.874 77.6996 232.651 77.2393C231.429 76.779 230.368 75.9698 229.602 74.912C228.836 73.8543 228.397 72.5947 228.34 71.2897L228.333 71.0003L228.34 70.711C228.415 68.9947 229.149 67.3734 230.39 66.1852C231.63 64.997 233.282 64.3338 235 64.3337Z" fill="#00B9F2"/>
<path d="M14.25 16.833H11.0833V19.9997H14.25V16.833ZM20.5833 16.833H17.4167V19.9997H20.5833V16.833ZM26.9167 16.833H23.75V19.9997H26.9167V16.833ZM30.0833 5.74967H28.5V2.58301H25.3333V5.74967H12.6667V2.58301H9.5V5.74967H7.91667C7.07681 5.74967 6.27136 6.0833 5.6775 6.67717C5.08363 7.27103 4.75 8.07649 4.75 8.91634V31.083C4.75 31.9229 5.08363 32.7283 5.6775 33.3222C6.27136 33.916 7.07681 34.2497 7.91667 34.2497H30.0833C30.9232 34.2497 31.7286 33.916 32.3225 33.3222C32.9164 32.7283 33.25 31.9229 33.25 31.083V8.91634C33.25 8.07649 32.9164 7.27103 32.3225 6.67717C31.7286 6.0833 30.9232 5.74967 30.0833 5.74967ZM30.0833 31.083H7.91667V13.6663H30.0833V31.083Z" fill="#00B9F2"/>
</svg>
