<svg width="55" height="37" viewBox="0 0 55 37" fill="none" xmlns="http://www.w3.org/2000/svg">
<path fill-rule="evenodd" clip-rule="evenodd" d="M11.3938 0.869141C11.8013 0.869141 12.0852 1.17865 12.0852 1.62305C12.0856 3.17435 14.0815 4.27332 15.5042 4.27344C16.9268 4.2732 18.991 3.1818 18.9915 1.62305C18.9915 1.1864 19.2747 0.86946 19.6819 0.869141H23.136L30.595 4.68066C30.7883 4.78609 30.9264 4.97435 30.9817 5.2002C31.0369 5.41863 30.9676 5.66033 30.8508 5.84863L27.1282 11.8887C26.9901 12.122 26.6996 12.2509 26.4573 12.251C26.388 12.2509 26.1946 12.2355 26.1194 12.2129L23.136 11.4141L26.1194 26.0322C26.1194 26.4691 22.8521 26.4785 22.4446 26.4785H17.5588V31.6182H22.9504V37H6.77661V31.6182H12.1672V26.4785H7.94068C7.5312 26.4785 3.81763 26.469 3.81763 26.0322L7.25025 11.4141L4.57056 12.2207C4.25986 12.326 3.99026 12.1901 3.81763 11.8965L0.122316 5.87109C0.00500657 5.67537 -0.0294987 5.45657 0.0256363 5.23828C0.0739677 5.01239 0.219125 4.86131 0.405519 4.75586L7.94068 0.869141H11.3938Z" fill="#41D1ED"/>
<path d="M35.9932 17.4752C35.776 17.4754 35.5646 17.402 35.391 17.2659C35.2174 17.1299 35.0911 16.9387 35.0311 16.7212C34.9711 16.5037 34.9807 16.2718 35.0585 16.0606C35.1363 15.8493 35.278 15.6701 35.4622 15.5502L38.1502 12.7502C38.3378 12.5549 38.5923 12.4452 38.8575 12.4453C39.1228 12.4454 39.3772 12.5553 39.5647 12.7507C39.7522 12.9462 39.8575 13.2112 39.8574 13.4876C39.8573 13.7639 39.7518 14.0288 39.5642 14.2242L38.4432 15.3908H45.9932C46.2584 15.3908 46.5128 15.5006 46.7003 15.6959C46.8878 15.8913 46.9932 16.1562 46.9932 16.4325C46.9932 16.7088 46.8878 16.9737 46.7003 17.1691C46.5128 17.3644 46.2584 17.4742 45.9932 17.4742L35.9932 17.4752ZM50.0072 19.5263C50.2244 19.526 50.4358 19.5995 50.6094 19.7355C50.783 19.8716 50.9093 20.0628 50.9693 20.2802C51.0293 20.4977 51.0197 20.7296 50.9419 20.9409C50.8641 21.1522 50.7224 21.3313 50.5382 21.4513L47.8502 24.2502C47.7573 24.3469 47.647 24.4236 47.5256 24.4759C47.4043 24.5283 47.2742 24.5552 47.1428 24.5551C47.0115 24.5551 46.8814 24.5281 46.7601 24.4757C46.6388 24.4233 46.5285 24.3465 46.4357 24.2497C46.3428 24.1529 46.2692 24.038 46.219 23.9116C46.1688 23.7852 46.1429 23.6497 46.143 23.5129C46.143 23.376 46.169 23.2406 46.2193 23.1142C46.2696 22.9878 46.3433 22.873 46.4362 22.7763L47.5572 21.6096H40.0072C39.742 21.6096 39.4876 21.4998 39.3001 21.3045C39.1125 21.1091 39.0072 20.8442 39.0072 20.5679C39.0072 20.2917 39.1125 20.0267 39.3001 19.8314C39.4876 19.636 39.742 19.5263 40.0072 19.5263H50.0072Z" fill="#41D1ED"/>
</svg>
