<svg width="34" height="33" viewBox="0 0 34 33" fill="none" xmlns="http://www.w3.org/2000/svg">
<path d="M29.1476 3.08148C29.3354 3.22455 29.4872 3.40643 29.5915 3.61357C29.6958 3.82071 29.75 4.04776 29.75 4.27777V22.103C29.75 22.1641 29.7463 22.2257 29.7388 22.2878C29.7463 22.3948 29.75 22.5027 29.75 22.6117C29.7495 23.5846 29.426 24.5321 28.8265 25.317C28.227 26.102 27.3825 26.6837 26.4152 26.978C25.4479 27.2723 24.4081 27.264 23.4461 26.9542C22.4841 26.6443 21.6499 26.0491 21.0642 25.2546C20.4785 24.4601 20.1716 23.5076 20.1881 22.5349C20.2046 21.5621 20.5435 20.6197 21.1559 19.8438C21.7682 19.068 22.6221 18.4991 23.5941 18.2194C24.5661 17.9397 25.6057 17.9637 26.5625 18.288V12.3142L13.8125 15.1666V25.672C13.8113 26.6447 13.4873 27.5918 12.8874 28.3764C12.2875 29.1609 11.4428 29.7421 10.4754 30.0359C9.50814 30.3297 8.46841 30.3209 7.50668 30.0107C6.54494 29.7006 5.71108 29.1051 5.12573 28.3106C4.54039 27.516 4.23391 26.5635 4.25065 25.5909C4.26739 24.6183 4.60647 23.676 5.21883 22.9004C5.8312 22.1248 6.68509 21.556 7.65697 21.2764C8.62886 20.9968 9.66833 21.0209 10.625 21.3452V7.8422C10.625 7.49725 10.7467 7.16245 10.9704 6.89226C11.1941 6.62207 11.5065 6.43239 11.857 6.35409L27.7945 2.78966C28.0261 2.73806 28.2668 2.73679 28.499 2.78597C28.7312 2.83514 28.949 2.9335 29.1364 3.07384L29.1476 3.08148Z" fill="black"/>
<line x1="1" y1="-1" x2="40.4587" y2="-1" transform="matrix(0.717581 0.696475 -0.717581 0.696475 2.8335 2.75)" stroke="black" stroke-width="2" stroke-linecap="round"/>
</svg>
